<svg xmlns="http://www.w3.org/2000/svg" xmlns:xlink="http://www.w3.org/1999/xlink" width="800" zoomAndPan="magnify" viewBox="0 0 600 599.999999" height="800" preserveAspectRatio="xMidYMid meet" version="1.0"><defs><g/><clipPath id="7ff002f701"><path d="M 164.949219 186.832031 L 394 186.832031 L 394 413.699219 L 164.949219 413.699219 Z M 164.949219 186.832031 " clip-rule="nonzero"/></clipPath><clipPath id="7a80dd2d62"><path d="M 191.195312 247 L 393 247 L 393 413.699219 L 191.195312 413.699219 Z M 191.195312 247 " clip-rule="nonzero"/></clipPath><clipPath id="2bd40d6cb6"><path d="M 171 186.449219 L 391 186.449219 L 391 411 L 171 411 Z M 171 186.449219 " clip-rule="nonzero"/></clipPath><clipPath id="e4b6dac455"><path d="M 164.25 196 L 394 196 L 394 411 L 164.25 411 Z M 164.25 196 " clip-rule="nonzero"/></clipPath></defs><rect x="-60" width="720" fill="#ffffff" y="-60" height="719.999999" fill-opacity="1"/><rect x="-60" width="720" fill="#ffbf82" y="-60" height="719.999999" fill-opacity="1"/><g clip-path="url(#7ff002f701)"><path fill="#996f38" d="M 356.742188 391.472656 C 356.101562 391.390625 355.367188 391.203125 355.089844 390.621094 C 354.871094 390.171875 355 389.636719 355.15625 389.160156 C 356.769531 384.179688 360.636719 379.972656 362.714844 375.28125 C 363.46875 380.964844 364.21875 386.644531 364.972656 392.320312 C 362.328125 391.53125 359.484375 391.835938 356.742188 391.472656 Z M 391.027344 232.070312 C 390.273438 229.648438 389.523438 227.230469 388.773438 224.808594 C 391.054688 217.726562 392.785156 210.433594 391.8125 203.125 C 391.601562 201.515625 391.234375 199.878906 390.28125 198.578125 C 389.328125 197.277344 387.652344 196.386719 386.082031 196.773438 C 385.125 197.011719 384.339844 197.671875 383.597656 198.316406 C 378.253906 202.949219 373.191406 207.902344 368.433594 213.132812 C 364.753906 210.914062 360.726562 209.269531 356.550781 208.273438 C 353.097656 207.449219 349.554688 207.066406 346.011719 207.167969 C 345.203125 205.792969 344.265625 204.484375 343.292969 203.230469 C 340.628906 199.789062 337.59375 196.578125 335.59375 192.710938 C 334.84375 191.257812 334.226562 189.695312 333.132812 188.480469 C 332.035156 187.261719 330.285156 186.453125 328.75 187.015625 C 327.667969 187.410156 326.917969 188.390625 326.328125 189.378906 C 323.304688 194.472656 323.105469 200.71875 323.203125 206.648438 C 323.292969 212.222656 323.566406 217.785156 324.03125 223.339844 C 321.761719 226.515625 319.636719 229.785156 317.921875 233.28125 C 315.546875 238.125 313.96875 243.484375 314.101562 248.851562 C 314.117188 249.539062 314.160156 250.222656 314.230469 250.90625 C 314.53125 253.742188 315.394531 256.558594 316.769531 259.066406 C 316.058594 259.707031 315.28125 260.308594 314.476562 260.902344 C 311.050781 263.386719 307.019531 265.558594 304.550781 268.90625 C 302.683594 271.4375 301.796875 274.558594 300.191406 277.265625 C 296.960938 282.730469 291.226562 285.992188 285.554688 288.988281 C 284.808594 289.382812 284.058594 289.773438 283.316406 290.160156 C 271.808594 296.234375 260.660156 303.417969 252.074219 313.199219 C 245.640625 320.527344 241.007812 329.265625 238.25 338.589844 C 233.6875 353.949219 234.207031 370.90625 240.089844 385.769531 C 236.109375 385.488281 232.101562 385.242188 228.089844 385.085938 C 222.066406 384.84375 216.042969 384.789062 210.089844 385.113281 C 208.113281 385.214844 206.144531 385.363281 204.195312 385.558594 C 202.164062 385.753906 200.136719 386.007812 198.128906 386.3125 C 190.054688 387.5625 182.214844 389.746094 174.824219 393.34375 C 174.320312 393.585938 173.816406 393.835938 173.316406 394.097656 C 170.648438 395.476562 167.984375 397.113281 166.335938 399.628906 C 164.6875 402.132812 164.335938 405.722656 166.242188 408.039062 C 167.453125 409.507812 169.144531 410.136719 171.019531 410.285156 C 173.414062 410.484375 176.105469 409.894531 178.472656 409.296875 C 183.730469 407.96875 189.089844 407.058594 194.492188 406.582031 C 197.3125 406.328125 200.136719 406.191406 202.964844 406.179688 C 205.058594 406.160156 207.144531 406.210938 209.230469 406.324219 C 212.339844 406.492188 215.429688 406.800781 218.511719 407.253906 C 225.496094 408.28125 232.46875 410.035156 239.515625 409.625 C 243.34375 409.402344 247.269531 408.394531 250.589844 406.519531 C 253.003906 407.734375 255.351562 409.167969 257.894531 410.058594 C 260.394531 410.9375 263.042969 411.28125 265.675781 411.617188 C 268.238281 411.945312 270.804688 412.273438 273.371094 412.601562 C 277.734375 413.160156 282.109375 413.71875 286.507812 413.71875 C 290.3125 413.71875 294.117188 413.292969 297.824219 412.464844 C 300.441406 411.875 303.15625 411 304.941406 408.996094 C 305.476562 408.386719 305.890625 407.648438 306.152344 406.867188 C 312.878906 407.90625 319.945312 406.808594 326.011719 403.726562 C 328.710938 407.820312 332.039062 412.269531 336.898438 412.789062 C 338.148438 412.921875 339.453125 412.765625 340.546875 412.15625 C 343.039062 410.785156 343.828125 407.542969 343.679688 404.703125 C 343.675781 404.648438 343.675781 404.601562 343.671875 404.550781 C 344.609375 404.722656 345.558594 404.636719 346.363281 404.128906 C 347.207031 403.597656 347.769531 402.6875 348.65625 402.242188 C 349.417969 401.871094 350.308594 401.882812 351.15625 401.910156 C 353.148438 401.96875 355.140625 402.03125 357.132812 402.09375 C 359.539062 402.167969 362.023438 402.230469 364.28125 401.394531 C 364.710938 401.238281 365.132812 401.035156 365.535156 400.800781 C 366.972656 404.273438 368.792969 407.617188 371.914062 409.582031 C 375.832031 412.046875 382.320312 410.703125 383.1875 406.152344 C 383.539062 404.304688 382.910156 402.425781 382.40625 400.609375 C 379.910156 391.539062 380.667969 381.9375 381.441406 372.5625 C 381.796875 368.265625 382.152344 363.96875 382.507812 359.671875 C 382.667969 357.769531 382.820312 355.867188 382.980469 353.96875 C 383.554688 347.050781 384.132812 340.105469 385.625 333.332031 C 386.894531 327.59375 388.824219 321.929688 388.945312 316.054688 C 389.03125 311.980469 388.238281 307.90625 388.601562 303.847656 C 388.949219 299.949219 390.355469 296.203125 390.71875 292.308594 C 391.105469 288.125 390.269531 283.953125 389.492188 279.792969 C 388.726562 275.722656 388.015625 271.65625 388.535156 267.578125 C 389.152344 262.742188 391.464844 258.277344 392.863281 253.613281 C 393.273438 252.242188 393.605469 250.855469 393.785156 249.433594 C 394.554688 243.574219 392.78125 237.710938 391.027344 232.070312 " fill-opacity="1" fill-rule="nonzero"/></g><g clip-path="url(#7a80dd2d62)"><path fill="#f2eff1" d="M 198.128906 386.3125 C 197.871094 386.773438 197.5625 387.210938 197.261719 387.617188 C 195.460938 390.058594 193.910156 392.683594 192.636719 395.441406 C 191.960938 396.902344 191.355469 398.46875 191.496094 400.070312 C 191.691406 402.367188 193.355469 404.234375 194.367188 406.308594 C 194.410156 406.398438 194.453125 406.484375 194.492188 406.582031 C 197.3125 406.328125 200.136719 406.191406 202.964844 406.179688 C 202.222656 403.976562 201.460938 401.765625 201.421875 399.472656 C 201.34375 394.726562 204.375 390.195312 204.195312 385.558594 C 202.164062 385.753906 200.136719 386.007812 198.128906 386.3125 Z M 364.972656 392.320312 C 364.21875 386.644531 363.46875 380.964844 362.714844 375.28125 C 360.636719 379.972656 356.769531 384.179688 355.15625 389.160156 C 355 389.636719 354.871094 390.171875 355.089844 390.621094 C 355.367188 391.203125 356.101562 391.390625 356.742188 391.472656 C 359.484375 391.835938 362.328125 391.53125 364.972656 392.320312 Z M 392.863281 253.613281 C 391.464844 258.277344 389.152344 262.742188 388.535156 267.582031 C 388.015625 271.65625 388.726562 275.722656 389.492188 279.792969 C 388.691406 281.75 387.476562 283.605469 386.09375 285.148438 C 382.527344 289.117188 377.847656 292.136719 375.054688 296.679688 C 372.511719 300.820312 371.792969 306.046875 373.132812 310.722656 C 374.207031 314.476562 376.496094 317.753906 377.984375 321.367188 C 379.96875 326.179688 380.496094 331.582031 379.472656 336.6875 C 378.527344 341.429688 376.285156 345.976562 376.4375 350.804688 C 376.558594 354.613281 379.128906 358.691406 382.507812 359.671875 C 382.152344 363.96875 381.796875 368.265625 381.441406 372.5625 C 380.667969 381.9375 379.910156 391.539062 382.40625 400.609375 C 382.910156 402.425781 383.539062 404.304688 383.1875 406.152344 C 382.320312 410.703125 375.832031 412.046875 371.914062 409.582031 C 368.792969 407.617188 366.972656 404.273438 365.535156 400.800781 C 365.132812 401.035156 364.710938 401.238281 364.28125 401.394531 C 362.023438 402.230469 359.539062 402.167969 357.132812 402.09375 C 355.140625 402.03125 353.148438 401.96875 351.15625 401.910156 C 350.308594 401.882812 349.417969 401.871094 348.65625 402.242188 C 347.769531 402.6875 347.207031 403.597656 346.363281 404.128906 C 345.558594 404.636719 344.609375 404.722656 343.671875 404.550781 C 343.675781 404.601562 343.675781 404.648438 343.679688 404.703125 C 343.828125 407.542969 343.039062 410.785156 340.546875 412.15625 C 339.453125 412.765625 338.148438 412.921875 336.898438 412.789062 C 332.039062 412.269531 328.710938 407.820312 326.011719 403.726562 C 319.945312 406.808594 312.878906 407.90625 306.152344 406.867188 C 305.890625 407.648438 305.476562 408.386719 304.941406 408.996094 C 303.15625 411 300.441406 411.875 297.824219 412.464844 C 294.117188 413.292969 290.3125 413.71875 286.507812 413.71875 C 282.109375 413.71875 277.734375 413.160156 273.371094 412.601562 C 270.804688 412.273438 268.238281 411.945312 265.675781 411.617188 C 263.042969 411.28125 260.394531 410.9375 257.894531 410.058594 C 255.351562 409.167969 253.003906 407.734375 250.589844 406.519531 C 247.269531 408.394531 243.34375 409.402344 239.515625 409.625 C 232.46875 410.035156 225.496094 408.28125 218.511719 407.253906 C 215.429688 406.800781 212.339844 406.492188 209.230469 406.324219 C 209.589844 404.832031 209.648438 403.273438 209.378906 401.765625 C 210.40625 402.125 211.410156 402.664062 212.429688 403.054688 C 214.195312 403.726562 216.601562 403.734375 217.527344 402.085938 C 218.007812 401.21875 217.933594 400.117188 218.453125 399.269531 C 219.75 397.152344 223.136719 398.378906 225.382812 397.304688 C 227.433594 396.328125 228.011719 393.707031 228.160156 391.433594 C 228.296875 389.316406 228.273438 387.195312 228.089844 385.085938 C 232.101562 385.242188 236.109375 385.488281 240.089844 385.769531 C 234.207031 370.90625 233.6875 353.949219 238.25 338.589844 C 241.082031 341.609375 244.648438 344.003906 248.296875 346.039062 C 252.976562 348.660156 258.167969 350.875 263.511719 350.457031 C 268.859375 350.042969 274.253906 346.253906 274.894531 340.933594 C 275.25 338.019531 274.195312 335.144531 273.703125 332.253906 C 273.210938 329.359375 273.484375 325.960938 275.785156 324.136719 C 277.46875 322.804688 279.625 322.730469 281.835938 322.933594 C 283.109375 323.050781 284.40625 323.261719 285.640625 323.371094 C 293.277344 324.066406 301.144531 319.992188 304.996094 313.359375 C 306.574219 310.644531 308.832031 306.960938 311.757812 308.09375 C 313.574219 308.796875 314.210938 311.082031 315.757812 312.273438 C 318.039062 314.023438 321.605469 312.699219 323.152344 310.273438 C 324.691406 307.847656 324.722656 304.78125 324.539062 301.910156 C 324.074219 294.699219 322.542969 287.558594 320.011719 280.789062 C 317.585938 274.304688 314.183594 267.667969 314.476562 260.902344 C 315.28125 260.308594 316.058594 259.707031 316.769531 259.066406 C 315.394531 256.558594 314.53125 253.742188 314.230469 250.90625 C 314.160156 250.222656 314.117188 249.539062 314.101562 248.851562 C 316.105469 248.144531 318.019531 247.679688 319.433594 249.070312 C 320.996094 250.613281 320.378906 253.230469 321 255.339844 C 321.957031 258.589844 325.914062 260.148438 329.253906 259.589844 C 332.59375 259.03125 335.429688 256.921875 338.128906 254.871094 C 340.890625 252.769531 343.8125 250.410156 345.410156 247.4375 C 351.484375 248.40625 357.222656 251.519531 361.289062 256.152344 C 363.996094 259.234375 366.738281 263.324219 370.828125 263.15625 C 375.230469 262.976562 377.695312 257.753906 377.558594 253.347656 C 377.535156 252.671875 377.484375 251.972656 377.691406 251.328125 C 378.132812 249.96875 379.683594 249.214844 381.121094 249.246094 C 382.550781 249.273438 383.890625 249.910156 385.179688 250.546875 C 387.644531 251.769531 390.199219 253.074219 392.863281 253.613281 " fill-opacity="1" fill-rule="nonzero"/></g><g clip-path="url(#2bd40d6cb6)"><path fill="#fac264" d="M 174.824219 393.34375 C 174.984375 396.546875 175.777344 400.003906 174.835938 403.027344 C 174.164062 405.179688 172.652344 406.953125 171.601562 408.945312 C 171.378906 409.371094 171.175781 409.820312 171.019531 410.285156 C 173.414062 410.484375 176.105469 409.894531 178.472656 409.296875 C 183.730469 407.96875 189.089844 407.058594 194.492188 406.582031 C 194.453125 406.484375 194.410156 406.398438 194.367188 406.308594 C 193.355469 404.234375 191.691406 402.367188 191.496094 400.070312 C 191.355469 398.46875 191.960938 396.902344 192.636719 395.441406 C 193.910156 392.683594 195.460938 390.058594 197.261719 387.617188 C 197.5625 387.210938 197.871094 386.773438 198.128906 386.3125 C 190.054688 387.5625 182.214844 389.746094 174.824219 393.34375 Z M 204.195312 385.558594 C 204.375 390.195312 201.34375 394.726562 201.421875 399.472656 C 201.460938 401.765625 202.222656 403.976562 202.964844 406.179688 C 205.058594 406.160156 207.144531 406.210938 209.230469 406.324219 C 209.589844 404.832031 209.648438 403.273438 209.378906 401.765625 C 209.285156 401.21875 209.144531 400.671875 208.957031 400.140625 C 208.679688 399.367188 208.320312 398.605469 208.257812 397.785156 C 208.039062 394.953125 211.308594 393.109375 212.140625 390.386719 C 212.738281 388.445312 211.785156 386.191406 210.089844 385.113281 C 208.113281 385.214844 206.144531 385.363281 204.195312 385.558594 Z M 285.554688 288.988281 C 284.808594 289.382812 284.058594 289.773438 283.316406 290.160156 C 271.808594 296.234375 260.660156 303.417969 252.074219 313.199219 C 245.640625 320.527344 241.007812 329.265625 238.25 338.589844 C 241.082031 341.609375 244.648438 344.003906 248.296875 346.039062 C 252.976562 348.660156 258.167969 350.875 263.511719 350.457031 C 268.859375 350.042969 274.253906 346.253906 274.894531 340.933594 C 275.25 338.019531 274.195312 335.144531 273.703125 332.253906 C 273.210938 329.359375 273.484375 325.960938 275.785156 324.136719 C 277.46875 322.804688 279.625 322.730469 281.835938 322.933594 C 281.613281 321.265625 282.308594 319.269531 283.347656 317.84375 C 284.988281 315.589844 287.335938 313.582031 287.65625 310.808594 C 287.890625 308.746094 286.921875 306.757812 286.199219 304.804688 C 284.347656 299.773438 284.148438 294.160156 285.554688 288.988281 Z M 346.011719 207.167969 C 345.203125 205.792969 344.265625 204.484375 343.292969 203.230469 C 340.628906 199.789062 337.59375 196.578125 335.59375 192.710938 C 334.84375 191.257812 334.226562 189.695312 333.132812 188.480469 C 332.035156 187.261719 330.285156 186.453125 328.75 187.015625 C 327.667969 187.410156 326.917969 188.390625 326.328125 189.378906 C 323.304688 194.472656 323.105469 200.71875 323.203125 206.648438 C 323.292969 212.222656 323.566406 217.785156 324.03125 223.339844 C 321.761719 226.515625 319.636719 229.785156 317.921875 233.28125 C 315.546875 238.125 313.96875 243.484375 314.101562 248.851562 C 316.105469 248.144531 318.019531 247.679688 319.433594 249.070312 C 320.996094 250.613281 320.378906 253.230469 321 255.339844 C 321.957031 258.589844 325.914062 260.148438 329.253906 259.589844 C 332.59375 259.03125 335.429688 256.921875 338.128906 254.871094 C 340.890625 252.769531 343.8125 250.410156 345.410156 247.4375 C 345.953125 246.429688 346.34375 245.355469 346.523438 244.191406 C 346.964844 241.351562 346.050781 238.46875 346.210938 235.59375 C 346.503906 230.238281 350.382812 225.878906 352.929688 221.15625 C 355.058594 217.195312 356.292969 212.761719 356.550781 208.273438 C 353.097656 207.449219 349.554688 207.066406 346.011719 207.167969 Z M 389.492188 279.792969 C 390.269531 283.953125 391.105469 288.125 390.71875 292.308594 C 390.355469 296.203125 388.949219 299.949219 388.601562 303.847656 C 388.238281 307.90625 389.03125 311.980469 388.945312 316.054688 C 388.824219 321.929688 386.894531 327.59375 385.625 333.332031 C 384.132812 340.105469 383.554688 347.050781 382.980469 353.96875 C 382.820312 355.867188 382.667969 357.769531 382.507812 359.671875 C 379.128906 358.691406 376.558594 354.613281 376.4375 350.804688 C 376.285156 345.976562 378.527344 341.429688 379.472656 336.6875 C 380.496094 331.582031 379.96875 326.179688 377.984375 321.367188 C 376.496094 317.753906 374.207031 314.476562 373.132812 310.722656 C 371.792969 306.046875 372.511719 300.820312 375.054688 296.679688 C 377.847656 292.136719 382.527344 289.117188 386.09375 285.148438 C 387.476562 283.605469 388.691406 281.75 389.492188 279.792969 " fill-opacity="1" fill-rule="nonzero"/></g><g clip-path="url(#e4b6dac455)"><path fill="#996f38" d="M 173.316406 394.097656 C 170.648438 395.476562 167.984375 397.113281 166.335938 399.628906 C 164.6875 402.132812 164.335938 405.722656 166.242188 408.039062 C 167.453125 409.507812 169.144531 410.136719 171.019531 410.285156 C 171.175781 409.820312 171.378906 409.371094 171.601562 408.945312 C 172.652344 406.953125 174.164062 405.179688 174.835938 403.027344 C 175.777344 400.003906 174.984375 396.546875 174.824219 393.34375 C 174.320312 393.585938 173.816406 393.835938 173.316406 394.097656 Z M 210.089844 385.113281 C 211.785156 386.191406 212.738281 388.445312 212.140625 390.386719 C 211.308594 393.109375 208.039062 394.953125 208.257812 397.785156 C 208.320312 398.605469 208.679688 399.367188 208.957031 400.140625 C 209.144531 400.671875 209.285156 401.21875 209.378906 401.765625 C 210.40625 402.125 211.410156 402.664062 212.429688 403.054688 C 214.195312 403.726562 216.601562 403.734375 217.527344 402.085938 C 218.007812 401.21875 217.933594 400.117188 218.453125 399.269531 C 219.75 397.152344 223.136719 398.378906 225.382812 397.304688 C 227.433594 396.328125 228.011719 393.707031 228.160156 391.433594 C 228.296875 389.316406 228.273438 387.195312 228.089844 385.085938 C 222.066406 384.84375 216.042969 384.789062 210.089844 385.113281 Z M 320.011719 280.789062 C 317.585938 274.304688 314.183594 267.667969 314.476562 260.902344 C 311.050781 263.386719 307.019531 265.558594 304.550781 268.90625 C 302.683594 271.4375 301.796875 274.558594 300.191406 277.265625 C 296.960938 282.730469 291.226562 285.992188 285.554688 288.988281 C 284.148438 294.160156 284.347656 299.773438 286.199219 304.804688 C 286.921875 306.757812 287.890625 308.746094 287.65625 310.808594 C 287.335938 313.582031 284.988281 315.589844 283.347656 317.84375 C 282.308594 319.269531 281.613281 321.265625 281.835938 322.933594 C 283.109375 323.050781 284.40625 323.261719 285.640625 323.371094 C 293.277344 324.066406 301.144531 319.992188 304.996094 313.359375 C 306.574219 310.644531 308.832031 306.960938 311.757812 308.09375 C 313.574219 308.796875 314.210938 311.082031 315.757812 312.273438 C 318.039062 314.023438 321.605469 312.699219 323.152344 310.273438 C 324.691406 307.847656 324.722656 304.78125 324.539062 301.910156 C 324.074219 294.699219 322.542969 287.558594 320.011719 280.789062 Z M 391.027344 232.070312 C 392.78125 237.710938 394.554688 243.574219 393.785156 249.433594 C 393.605469 250.855469 393.273438 252.242188 392.863281 253.613281 C 390.199219 253.074219 387.644531 251.769531 385.179688 250.546875 C 383.890625 249.910156 382.550781 249.273438 381.121094 249.246094 C 379.683594 249.214844 378.132812 249.96875 377.691406 251.328125 C 377.484375 251.972656 377.535156 252.671875 377.558594 253.347656 C 377.695312 257.753906 375.230469 262.976562 370.828125 263.15625 C 366.738281 263.324219 363.996094 259.234375 361.289062 256.152344 C 357.222656 251.519531 351.484375 248.40625 345.410156 247.4375 C 345.953125 246.429688 346.34375 245.355469 346.523438 244.191406 C 346.964844 241.351562 346.050781 238.46875 346.210938 235.59375 C 346.503906 230.238281 350.382812 225.878906 352.929688 221.15625 C 355.058594 217.195312 356.292969 212.761719 356.550781 208.273438 C 360.726562 209.269531 364.753906 210.914062 368.433594 213.132812 C 373.191406 207.902344 378.253906 202.949219 383.597656 198.316406 C 384.339844 197.671875 385.125 197.011719 386.082031 196.773438 C 387.652344 196.386719 389.328125 197.277344 390.28125 198.578125 C 391.234375 199.878906 391.601562 201.515625 391.8125 203.125 C 392.785156 210.433594 391.054688 217.726562 388.773438 224.808594 C 389.523438 227.230469 390.273438 229.648438 391.027344 232.070312 " fill-opacity="1" fill-rule="nonzero"/></g><path fill="#f68c64" d="M 386.625 220.792969 C 387.738281 217.570312 388.484375 214.222656 388.835938 210.828125 C 388.9375 209.835938 389.003906 208.8125 388.722656 207.859375 C 388.4375 206.898438 387.738281 206.007812 386.773438 205.761719 C 385.148438 205.355469 383.703125 206.800781 382.660156 208.109375 C 380.796875 210.429688 378.9375 212.738281 377.078125 215.050781 C 376.09375 216.273438 376.492188 218.082031 377.886719 218.792969 C 379.601562 219.65625 381.226562 220.703125 382.726562 221.90625 C 384.070312 222.980469 386.058594 222.421875 386.625 220.792969 Z M 335.78125 212.113281 C 334.148438 213.117188 332.601562 214.261719 331.164062 215.519531 C 329.628906 216.859375 327.25 215.886719 327.082031 213.855469 C 326.769531 209.980469 326.722656 206.078125 326.957031 202.191406 C 327.046875 200.71875 327.449219 198.902344 328.886719 198.558594 C 330.332031 198.210938 331.519531 199.667969 332.273438 200.945312 C 333.816406 203.550781 335.28125 206.207031 336.652344 208.910156 C 337.230469 210.042969 336.867188 211.445312 335.78125 212.113281 " fill-opacity="1" fill-rule="nonzero"/><path fill="#fac264" d="M 373.316406 229.0625 C 373.324219 231.09375 370.375 230.632812 366.746094 230.644531 C 363.113281 230.65625 360.167969 231.144531 360.160156 229.113281 C 360.152344 227.082031 363.09375 225.425781 366.726562 225.410156 C 370.359375 225.398438 373.308594 227.03125 373.316406 229.0625 " fill-opacity="1" fill-rule="nonzero"/><path fill="#996f38" d="M 339.632812 229.089844 C 339.632812 231.121094 336.6875 230.644531 333.054688 230.644531 C 329.421875 230.644531 326.480469 231.121094 326.480469 229.089844 C 326.480469 227.058594 329.421875 225.410156 333.054688 225.410156 C 336.6875 225.410156 339.632812 227.058594 339.632812 229.089844 " fill-opacity="1" fill-rule="nonzero"/><path fill="#3e393a" d="M 378.140625 267.265625 C 379.605469 266.34375 378.308594 264.574219 376.949219 265.417969 C 367.601562 271.230469 357.246094 277.34375 345.785156 275.691406 C 340.230469 274.894531 335.078125 272.464844 330.480469 269.316406 C 328 267.617188 325.699219 265.691406 323.449219 263.703125 C 323.410156 263.667969 323.371094 263.632812 323.335938 263.597656 C 324.664062 262.421875 326.023438 261.28125 327.414062 260.1875 C 329.78125 258.332031 332.546875 256.765625 334.722656 254.695312 C 335.15625 254.28125 334.507812 253.847656 334.09375 253.992188 C 330.96875 255.105469 328.0625 257.390625 325.460938 259.402344 C 324.257812 260.332031 323.09375 261.304688 321.953125 262.3125 C 320.527344 260.941406 319.109375 259.527344 317.476562 258.460938 C 317.242188 258.304688 316.539062 258.472656 316.773438 258.859375 C 317.789062 260.542969 319.222656 262.050781 320.675781 263.472656 C 319.820312 264.265625 318.976562 265.070312 318.15625 265.902344 C 313.367188 270.738281 309.257812 276.164062 305.890625 282.078125 C 305.339844 283.046875 307.128906 283.34375 307.605469 282.554688 C 311.070312 276.847656 315.175781 271.53125 319.90625 266.8125 C 320.601562 266.125 321.308594 265.449219 322.027344 264.785156 C 322.207031 264.957031 322.386719 265.132812 322.558594 265.300781 C 324.828125 267.527344 327.273438 269.589844 329.878906 271.410156 C 334.460938 274.605469 339.773438 276.96875 345.320312 277.789062 C 357.375 279.574219 368.3125 273.460938 378.140625 267.265625 Z M 360.59375 256.210938 C 360.03125 256.335938 360.265625 257.085938 360.800781 257.003906 C 367.53125 255.953125 374.207031 257.929688 379.933594 261.449219 C 385.613281 264.945312 390.117188 269.800781 395.285156 273.945312 C 395.769531 274.332031 396.769531 273.71875 396.285156 273.140625 C 387.855469 263.015625 374.476562 253.105469 360.59375 256.210938 Z M 403.300781 260.972656 C 392.175781 250.585938 375.738281 247.542969 361.398438 252.246094 C 360.410156 252.574219 361.117188 253.644531 361.984375 253.394531 C 375.703125 249.425781 390.785156 253.078125 401.746094 262.074219 C 402.496094 262.691406 404.183594 261.796875 403.300781 260.972656 Z M 289.609375 267.472656 C 302.015625 257.488281 317.273438 252.167969 333.238281 253.238281 C 334.289062 253.308594 334.65625 251.902344 333.488281 251.792969 C 317.332031 250.320312 300.464844 255.574219 288.441406 266.578125 C 287.734375 267.226562 289.011719 267.953125 289.609375 267.472656 Z M 331.980469 405.179688 C 331.84375 405.113281 331.589844 405.175781 331.554688 405.34375 C 331.410156 406.042969 331.707031 406.828125 331.625 407.566406 C 331.542969 408.3125 330.992188 409.054688 331.199219 409.78125 C 331.28125 410.0625 331.761719 410.132812 331.988281 410.039062 C 333.632812 409.339844 333.5625 405.945312 331.980469 405.179688 Z M 372.148438 403.929688 C 372.832031 405.929688 372.566406 407.75 372.5 409.792969 C 372.480469 410.410156 373.578125 410.347656 373.785156 409.914062 C 374.746094 407.902344 374.214844 405.472656 373.214844 403.578125 C 372.945312 403.074219 371.941406 403.320312 372.148438 403.929688 Z M 378.691406 401.136719 C 378.292969 400.769531 377.3125 401.152344 377.761719 401.691406 C 378.671875 402.785156 379.28125 404.003906 379.617188 405.390625 C 379.875 406.449219 379.777344 407.632812 380.253906 408.621094 C 380.449219 409.03125 381.152344 408.996094 381.363281 408.617188 C 382.726562 406.167969 380.457031 402.757812 378.691406 401.136719 Z M 365.203125 391.859375 C 365.191406 391.640625 364.765625 391.609375 364.734375 391.828125 C 364.304688 394.789062 364.027344 398.972656 365.765625 401.574219 C 366.078125 402.042969 367.117188 401.976562 367.054688 401.277344 C 366.914062 399.691406 366.179688 398.175781 365.84375 396.609375 C 365.511719 395.046875 365.304688 393.449219 365.203125 391.859375 Z M 337.816406 406.082031 C 338.832031 407.898438 338.863281 409.722656 338.6875 411.746094 C 338.632812 412.367188 339.664062 412.5625 339.894531 412.003906 C 340.78125 409.882812 340.265625 407.546875 339.046875 405.652344 C 338.695312 405.109375 337.453125 405.429688 337.816406 406.082031 Z M 294.902344 405.570312 C 294.195312 405.433594 293.703125 406.40625 294.484375 406.691406 C 296.824219 407.535156 298.105469 409.488281 299.121094 411.640625 C 299.484375 412.410156 300.953125 412.007812 300.863281 411.15625 C 300.535156 408.132812 297.6875 406.117188 294.902344 405.570312 Z M 360.710938 247.105469 C 362.0625 245.050781 363.300781 243.042969 365.507812 241.789062 C 368.144531 240.292969 370.859375 240.589844 373.699219 241.125 C 374.28125 241.234375 374.988281 240.582031 374.328125 240.144531 C 368.996094 236.65625 360.820312 241 359.566406 246.9375 C 359.425781 247.609375 360.464844 247.476562 360.710938 247.105469 Z M 335.035156 258.785156 C 334.605469 260.242188 336.261719 261.320312 337.46875 261.789062 C 339.03125 262.390625 340.726562 262.285156 342.277344 261.699219 C 344.207031 260.972656 345.734375 259.589844 346.878906 257.910156 C 347.976562 259.785156 349.6875 261.3125 351.730469 261.96875 C 354.277344 262.785156 357.875 262.320312 359.09375 259.632812 C 359.242188 259.304688 358.808594 259.066406 358.539062 259.25 C 356.164062 260.839844 353.453125 260.886719 351.171875 259.070312 C 349.890625 258.050781 349.066406 256.714844 348.25 255.359375 C 348.320312 255.191406 348.386719 255.023438 348.453125 254.851562 L 350.003906 254.101562 C 353.59375 252.363281 352.359375 246.957031 348.367188 246.957031 L 344.851562 246.957031 C 340.863281 246.957031 339.625 252.363281 343.21875 254.101562 L 344.976562 254.949219 C 345.242188 255.078125 345.519531 255.175781 345.800781 255.238281 C 345.035156 256.667969 344.167969 258.03125 342.875 259.035156 C 341.433594 260.15625 339.765625 260.628906 338.007812 260.0625 C 337.011719 259.742188 336.339844 258.980469 335.355469 258.667969 C 335.242188 258.632812 335.078125 258.648438 335.035156 258.785156 Z M 330.277344 250.253906 C 332.414062 250.253906 334.148438 247.195312 334.148438 243.417969 C 334.148438 241.839844 333.84375 240.394531 333.335938 239.238281 C 334.316406 239.835938 335.011719 240.683594 335.863281 241.480469 C 336.203125 241.800781 337.125 241.695312 337.035156 241.082031 C 336.457031 237.078125 330.402344 235.117188 327.355469 237.46875 C 326.8125 237.886719 327.058594 238.417969 327.546875 238.578125 C 326.84375 239.816406 326.40625 241.527344 326.40625 243.417969 C 326.40625 247.195312 328.140625 250.253906 330.277344 250.253906 Z M 290.804688 393.050781 C 283.09375 390.628906 267.550781 390.90625 266.417969 380.273438 C 266.371094 379.839844 265.644531 379.914062 265.613281 380.332031 C 264.992188 389.734375 276.960938 392.039062 283.824219 393.664062 C 288.152344 394.6875 292.554688 395.855469 296.191406 398.546875 C 300.027344 401.378906 302.398438 405.570312 304.03125 409.972656 C 304.421875 411.015625 306.253906 410.734375 306.136719 409.566406 C 305.308594 401.246094 298.378906 395.425781 290.804688 393.050781 Z M 354.289062 390.671875 C 352.753906 392.890625 351.613281 395.34375 349.988281 397.511719 C 348.269531 399.800781 346.234375 401.773438 344.050781 403.609375 C 343.960938 398.5 343.429688 393.382812 343.296875 388.273438 C 343.136719 382.148438 343.105469 376.015625 343.199219 369.886719 C 343.285156 364.617188 343.277344 359.273438 343.738281 354.019531 C 343.910156 352.023438 344.199219 350.007812 344.800781 348.09375 C 345.59375 345.589844 347.097656 343.824219 348.507812 341.679688 C 348.664062 341.4375 348.285156 341.273438 348.105469 341.386719 C 344.609375 343.53125 342.929688 348.046875 342.289062 351.90625 C 341.386719 357.304688 341.484375 362.949219 341.367188 368.402344 C 341.242188 374.207031 341.230469 380.011719 341.335938 385.816406 C 341.445312 392.125 341.300781 398.621094 342.035156 404.894531 C 342.125 405.660156 343.34375 405.699219 343.847656 405.222656 C 343.9375 405.210938 344.023438 405.1875 344.09375 405.144531 C 348.925781 402.238281 354.691406 396.789062 355.65625 390.945312 C 355.792969 390.148438 354.621094 390.199219 354.289062 390.671875 Z M 364.507812 350.863281 C 366.996094 345.402344 373.175781 341.804688 373.605469 335.425781 C 373.636719 334.988281 372.84375 335.046875 372.738281 335.402344 C 370.722656 342.21875 363.640625 345.75 361.484375 352.527344 C 360.339844 356.128906 360.316406 359.949219 360.4375 363.691406 C 360.507812 365.777344 360.609375 367.859375 360.695312 369.941406 C 360.792969 372.164062 360.65625 374.519531 361.144531 376.691406 C 361.378906 377.734375 363.203125 377.492188 363.324219 376.496094 C 363.863281 372.097656 362.980469 367.328125 362.839844 362.894531 C 362.707031 358.84375 362.796875 354.617188 364.507812 350.863281 Z M 316.867188 359.054688 C 316.261719 351.792969 316.324219 344.8125 313.089844 338.113281 C 311.324219 334.453125 309.304688 331.011719 308.136719 327.085938 C 307.03125 323.375 306.535156 319.539062 306.507812 315.671875 C 306.503906 315.332031 305.84375 315.316406 305.800781 315.636719 C 304.894531 322.714844 306.421875 329.382812 309.523438 335.746094 C 311.3125 339.417969 312.976562 342.933594 313.632812 347.007812 C 314.25 350.851562 314.269531 354.769531 314.566406 358.644531 C 315.746094 374.042969 319.28125 389.796875 325.582031 403.941406 C 326.023438 404.933594 328.269531 404.238281 327.847656 403.179688 C 322.164062 388.902344 318.144531 374.425781 316.867188 359.054688 Z M 248.488281 401.902344 C 248.777344 402.621094 247.667969 402.980469 247.21875 402.523438 C 242.808594 398.011719 240.296875 389.804688 240.804688 383.597656 C 240.859375 382.921875 242.015625 382.988281 242.160156 383.578125 C 242.949219 386.753906 243.503906 389.972656 244.5625 393.082031 C 245.609375 396.164062 247.289062 398.902344 248.488281 401.902344 " fill-opacity="1" fill-rule="nonzero"/><g fill="#3e393a" fill-opacity="1"><g transform="translate(131.491401, 527.144038)"><g><path d="M 60.796875 -12.398438 C 59.515625 -14.398438 57.515625 -15.277344 55.035156 -14.960938 C 53.4375 -14.800781 51.757812 -14.238281 50.316406 -13.757812 C 43.355469 -11.519531 35.039062 -9.757812 26.316406 -14 C 19.039062 -17.597656 15.199219 -24.71875 16.640625 -32.15625 C 17.117188 -34.558594 17.839844 -37.675781 19.4375 -40.15625 C 26.796875 -51.917969 35.039062 -55.195312 46.15625 -50.71875 C 47.675781 -50.15625 49.035156 -49.757812 50.238281 -49.597656 C 51.835938 -49.4375 53.195312 -49.917969 53.996094 -51.035156 C 54.714844 -52.078125 54.796875 -53.4375 54.15625 -54.796875 C 53.4375 -56.316406 52.238281 -57.835938 50.636719 -59.195312 C 46.398438 -62.714844 41.039062 -64.476562 35.597656 -64.476562 C 30.878906 -64.476562 26.078125 -63.117188 21.839844 -60.394531 C 12.558594 -54.476562 6.71875 -46.71875 4.238281 -37.277344 C 1.039062 -24.796875 3.679688 -14.558594 12 -6.800781 C 18.238281 -0.960938 26.558594 2.398438 36.636719 3.199219 C 43.515625 2.800781 49.675781 1.359375 55.515625 -1.28125 C 57.277344 -2.078125 59.117188 -3.757812 60.796875 -5.917969 C 62.234375 -7.839844 62.234375 -10.238281 60.796875 -12.398438 Z M 60.796875 -12.398438 "/></g></g></g><g fill="#3e393a" fill-opacity="1"><g transform="translate(196.365105, 527.144038)"><g><path d="M 41.117188 -16 C 39.917969 -21.519531 39.039062 -27.199219 37.835938 -32.796875 C 37.4375 -34.558594 36.957031 -36.878906 35.679688 -37.917969 C 31.839844 -40.878906 27.597656 -43.4375 22.238281 -42.558594 C 12.878906 -40.878906 3.757812 -30.636719 2.960938 -20.640625 C 2.238281 -11.4375 9.597656 -5.039062 18.71875 -7.199219 C 21.117188 -7.839844 23.359375 -9.199219 25.597656 -10.320312 C 26.398438 -10.71875 27.039062 -11.359375 27.839844 -11.917969 C 28.238281 -11.359375 28.558594 -11.039062 28.796875 -10.640625 C 31.4375 -6.640625 34.878906 -5.121094 38.078125 -6.480469 C 41.199219 -7.839844 42.15625 -11.199219 41.117188 -16 Z M 17.917969 -18.796875 C 17.039062 -18.480469 15.757812 -18.398438 14.960938 -18.796875 C 14.480469 -19.039062 14.480469 -20.71875 14.800781 -21.519531 C 16.558594 -26.476562 19.359375 -30.476562 24.71875 -32.71875 C 25.679688 -26.558594 22.796875 -20.71875 17.917969 -18.796875 Z M 17.917969 -18.796875 "/></g></g></g><g fill="#3e393a" fill-opacity="1"><g transform="translate(240.920774, 527.144038)"><g><path d="M 33.359375 -13.839844 C 32.398438 -16.320312 30.316406 -17.117188 27.839844 -16.878906 C 26.558594 -16.800781 25.277344 -16.480469 24.078125 -16.320312 C 22.078125 -16.078125 20.480469 -16.878906 20.160156 -18.878906 C 19.597656 -22.078125 19.359375 -25.277344 18.957031 -28.558594 C 21.839844 -28.558594 24.078125 -28.398438 26.238281 -28.558594 C 29.199219 -28.796875 31.4375 -31.039062 31.679688 -33.757812 C 31.917969 -36.476562 30.078125 -39.039062 27.117188 -39.757812 C 25.277344 -40.238281 23.359375 -40.398438 21.519531 -40.398438 C 19.839844 -40.476562 19.277344 -41.117188 19.277344 -42.796875 C 19.277344 -45.039062 19.199219 -47.355469 18.878906 -49.597656 C 18.480469 -52.875 16.957031 -54.476562 14.800781 -54.554688 C 12.558594 -54.554688 11.121094 -52.957031 10.480469 -49.675781 C 10.160156 -47.835938 9.757812 -45.917969 9.679688 -44.078125 C 9.519531 -41.917969 8.558594 -41.039062 6.640625 -40.238281 C 5.121094 -39.597656 3.601562 -37.835938 3.121094 -36.316406 C 2.398438 -34.15625 4 -32.476562 6 -31.679688 C 7.597656 -31.039062 7.917969 -30.078125 7.917969 -28.558594 C 7.917969 -25.277344 8.078125 -22 8.398438 -18.71875 C 8.878906 -14.078125 11.039062 -10.320312 14.800781 -7.441406 C 19.4375 -3.917969 27.597656 -4 31.597656 -7.757812 C 33.359375 -9.4375 34.316406 -11.4375 33.359375 -13.839844 Z M 33.359375 -13.839844 "/></g></g></g><g fill="#3e393a" fill-opacity="1"><g transform="translate(277.717202, 527.144038)"><g><path d="M 60.796875 -12.398438 C 59.515625 -14.398438 57.515625 -15.277344 55.035156 -14.960938 C 53.4375 -14.800781 51.757812 -14.238281 50.316406 -13.757812 C 43.355469 -11.519531 35.039062 -9.757812 26.316406 -14 C 19.039062 -17.597656 15.199219 -24.71875 16.640625 -32.15625 C 17.117188 -34.558594 17.839844 -37.675781 19.4375 -40.15625 C 26.796875 -51.917969 35.039062 -55.195312 46.15625 -50.71875 C 47.675781 -50.15625 49.035156 -49.757812 50.238281 -49.597656 C 51.835938 -49.4375 53.195312 -49.917969 53.996094 -51.035156 C 54.714844 -52.078125 54.796875 -53.4375 54.15625 -54.796875 C 53.4375 -56.316406 52.238281 -57.835938 50.636719 -59.195312 C 46.398438 -62.714844 41.039062 -64.476562 35.597656 -64.476562 C 30.878906 -64.476562 26.078125 -63.117188 21.839844 -60.394531 C 12.558594 -54.476562 6.71875 -46.71875 4.238281 -37.277344 C 1.039062 -24.796875 3.679688 -14.558594 12 -6.800781 C 18.238281 -0.960938 26.558594 2.398438 36.636719 3.199219 C 43.515625 2.800781 49.675781 1.359375 55.515625 -1.28125 C 57.277344 -2.078125 59.117188 -3.757812 60.796875 -5.917969 C 62.234375 -7.839844 62.234375 -10.238281 60.796875 -12.398438 Z M 60.796875 -12.398438 "/></g></g></g><g fill="#3e393a" fill-opacity="1"><g transform="translate(342.590894, 527.144038)"><g><path d="M 41.355469 -20.640625 C 40.636719 -24.558594 39.757812 -28.636719 38.078125 -32.316406 C 34.316406 -40.957031 27.757812 -42.878906 19.519531 -38.398438 C 19.359375 -38.316406 19.199219 -38.316406 18.558594 -38.15625 C 18.238281 -39.757812 17.917969 -41.117188 17.597656 -42.558594 C 16.398438 -48.476562 15.277344 -54.476562 13.917969 -60.394531 C 13.199219 -63.515625 11.121094 -65.195312 8.71875 -65.195312 C 6.238281 -65.117188 4.160156 -63.195312 3.601562 -59.996094 C 3.199219 -58.078125 2.800781 -55.996094 2.960938 -54.078125 C 3.519531 -43.675781 4.078125 -33.199219 4.960938 -22.796875 C 5.28125 -18.640625 6.238281 -14.398438 7.28125 -10.320312 C 8 -7.679688 10.078125 -6.078125 12.960938 -6 C 16 -5.917969 18.078125 -7.597656 18.878906 -10.320312 C 19.839844 -13.359375 20.480469 -16.480469 20.878906 -19.597656 C 21.519531 -23.839844 23.519531 -27.199219 27.039062 -30.316406 C 27.679688 -28.636719 28.398438 -27.4375 28.558594 -26.238281 C 29.039062 -23.359375 29.199219 -20.398438 29.679688 -17.597656 C 30 -15.4375 30.238281 -13.199219 31.039062 -11.199219 C 32.316406 -7.839844 35.917969 -7.441406 38.15625 -10.238281 C 40.558594 -13.277344 41.996094 -16.800781 41.355469 -20.640625 Z M 41.355469 -20.640625 "/></g></g></g><g fill="#3e393a" fill-opacity="1"><g transform="translate(387.146563, 527.144038)"><g><path d="M 41.117188 -16 C 39.917969 -21.519531 39.039062 -27.199219 37.835938 -32.796875 C 37.4375 -34.558594 36.957031 -36.878906 35.679688 -37.917969 C 31.839844 -40.878906 27.597656 -43.4375 22.238281 -42.558594 C 12.878906 -40.878906 3.757812 -30.636719 2.960938 -20.640625 C 2.238281 -11.4375 9.597656 -5.039062 18.71875 -7.199219 C 21.117188 -7.839844 23.359375 -9.199219 25.597656 -10.320312 C 26.398438 -10.71875 27.039062 -11.359375 27.839844 -11.917969 C 28.238281 -11.359375 28.558594 -11.039062 28.796875 -10.640625 C 31.4375 -6.640625 34.878906 -5.121094 38.078125 -6.480469 C 41.199219 -7.839844 42.15625 -11.199219 41.117188 -16 Z M 17.917969 -18.796875 C 17.039062 -18.480469 15.757812 -18.398438 14.960938 -18.796875 C 14.480469 -19.039062 14.480469 -20.71875 14.800781 -21.519531 C 16.558594 -26.476562 19.359375 -30.476562 24.71875 -32.71875 C 25.679688 -26.558594 22.796875 -20.71875 17.917969 -18.796875 Z M 17.917969 -18.796875 "/></g></g></g><g fill="#3e393a" fill-opacity="1"><g transform="translate(431.702233, 527.144038)"><g><path d="M 33.359375 -13.839844 C 32.398438 -16.320312 30.316406 -17.117188 27.839844 -16.878906 C 26.558594 -16.800781 25.277344 -16.480469 24.078125 -16.320312 C 22.078125 -16.078125 20.480469 -16.878906 20.160156 -18.878906 C 19.597656 -22.078125 19.359375 -25.277344 18.957031 -28.558594 C 21.839844 -28.558594 24.078125 -28.398438 26.238281 -28.558594 C 29.199219 -28.796875 31.4375 -31.039062 31.679688 -33.757812 C 31.917969 -36.476562 30.078125 -39.039062 27.117188 -39.757812 C 25.277344 -40.238281 23.359375 -40.398438 21.519531 -40.398438 C 19.839844 -40.476562 19.277344 -41.117188 19.277344 -42.796875 C 19.277344 -45.039062 19.199219 -47.355469 18.878906 -49.597656 C 18.480469 -52.875 16.957031 -54.476562 14.800781 -54.554688 C 12.558594 -54.554688 11.121094 -52.957031 10.480469 -49.675781 C 10.160156 -47.835938 9.757812 -45.917969 9.679688 -44.078125 C 9.519531 -41.917969 8.558594 -41.039062 6.640625 -40.238281 C 5.121094 -39.597656 3.601562 -37.835938 3.121094 -36.316406 C 2.398438 -34.15625 4 -32.476562 6 -31.679688 C 7.597656 -31.039062 7.917969 -30.078125 7.917969 -28.558594 C 7.917969 -25.277344 8.078125 -22 8.398438 -18.71875 C 8.878906 -14.078125 11.039062 -10.320312 14.800781 -7.441406 C 19.4375 -3.917969 27.597656 -4 31.597656 -7.757812 C 33.359375 -9.4375 34.316406 -11.4375 33.359375 -13.839844 Z M 33.359375 -13.839844 "/></g></g></g></svg>