<svg xmlns="http://www.w3.org/2000/svg" xmlns:xlink="http://www.w3.org/1999/xlink" width="800" zoomAndPan="magnify" viewBox="0 0 600 599.999999" height="800" preserveAspectRatio="xMidYMid meet" version="1.0"><defs><g/><clipPath id="7392cec22e"><path d="M 180 158 L 420 158 L 420 375.671875 L 180 375.671875 Z M 180 158 " clip-rule="nonzero"/></clipPath></defs><path fill="#fdffff" d="M 414.738281 312.160156 C 402.585938 365.066406 348.675781 373.964844 294.761719 373.964844 C 290.265625 373.964844 285.863281 373.867188 281.558594 373.628906 C 279.835938 373.535156 278.113281 373.4375 276.441406 373.292969 C 272.707031 373.007812 269.167969 372.625 265.675781 372.195312 C 265.101562 372.148438 264.578125 372.050781 263.953125 371.957031 L 262.855469 371.765625 C 261.46875 371.574219 260.128906 371.332031 258.835938 371.09375 C 255.726562 370.566406 252.710938 369.945312 249.792969 369.230469 C 248.167969 368.847656 246.589844 368.414062 245.011719 367.984375 C 243.433594 367.554688 241.664062 367.027344 239.988281 366.5 C 238.695312 366.070312 237.40625 365.640625 236.113281 365.210938 C 235.15625 364.875 234.199219 364.539062 233.242188 364.15625 C 232.667969 363.964844 232.144531 363.726562 231.617188 363.535156 C 230.515625 363.105469 229.464844 362.675781 228.410156 362.246094 C 226.59375 361.429688 224.777344 360.617188 223.054688 359.757812 C 197.078125 346.601562 182.296875 324.835938 181.722656 295.847656 C 181.722656 294.890625 181.722656 293.886719 181.722656 292.878906 C 181.722656 292.257812 181.722656 291.589844 181.722656 290.964844 L 181.816406 288.527344 C 182.105469 282.070312 182.824219 275.660156 183.921875 269.296875 C 187.128906 251.738281 192.964844 240.882812 197.988281 234.472656 C 199.328125 232.75 200.808594 231.121094 202.4375 229.589844 C 202.675781 229.351562 202.867188 229.160156 203.105469 228.96875 C 203.871094 228.253906 204.683594 227.628906 205.496094 227.054688 C 205.929688 226.722656 206.261719 226.53125 206.359375 226.433594 L 206.742188 226.195312 L 206.882812 226.195312 C 206.882812 226.195312 215.351562 168.359375 236.589844 160.5625 C 241.855469 158.648438 257.785156 159.84375 286.292969 190.746094 C 292.273438 188.402344 298.730469 187.398438 305.140625 187.828125 C 305.957031 187.828125 306.816406 187.972656 307.679688 188.019531 C 310.691406 188.355469 313.65625 188.929688 316.574219 189.839844 C 316.574219 189.839844 350.207031 158.9375 364.460938 160.753906 C 364.9375 160.800781 365.417969 160.945312 365.847656 161.136719 C 375.082031 165.105469 391.203125 196.199219 392.972656 225.574219 C 395.125 227.679688 397.132812 229.972656 398.953125 232.367188 C 402.347656 236.816406 405.363281 241.597656 407.847656 246.621094 C 412.058594 255.039062 414.929688 264.035156 416.414062 273.316406 C 418.375 286.277344 417.800781 299.480469 414.738281 312.160156 Z M 414.738281 312.160156 " fill-opacity="1" fill-rule="nonzero"/><path fill="#494340" d="M 406.269531 243.609375 C 358.71875 259.871094 313.65625 234.710938 307.054688 227.488281 C 272.183594 254.847656 204.15625 252.984375 194.6875 240.449219 C 195.5 238.296875 196.597656 236.289062 197.9375 234.472656 C 199.277344 232.699219 200.761719 231.074219 202.386719 229.589844 C 202.628906 229.351562 202.820312 229.160156 203.058594 228.96875 C 204.015625 228.109375 204.875 227.488281 205.449219 227.054688 C 205.878906 226.722656 206.214844 226.53125 206.308594 226.433594 L 206.691406 226.195312 L 206.835938 226.195312 C 206.835938 226.195312 215.304688 168.359375 236.542969 160.5625 C 241.804688 158.648438 257.734375 159.84375 286.246094 190.746094 C 292.226562 188.402344 298.683594 187.398438 305.09375 187.828125 C 305.90625 187.828125 306.769531 187.972656 307.628906 188.019531 C 310.644531 188.355469 313.609375 188.929688 316.527344 189.839844 C 316.527344 189.839844 350.15625 158.9375 364.414062 160.753906 C 364.890625 160.800781 365.371094 160.945312 365.800781 161.136719 C 375.03125 165.105469 391.152344 196.199219 392.925781 225.574219 C 395.078125 227.679688 397.085938 229.972656 398.902344 232.367188 C 401.820312 235.808594 404.308594 239.589844 406.269531 243.609375 Z M 406.269531 243.609375 " fill-opacity="1" fill-rule="nonzero"/><path fill="#aee0ff" d="M 243.433594 277.8125 L 275.484375 275.035156 C 275.484375 275.035156 266.585938 282.835938 272.804688 295.367188 C 279.023438 307.949219 281.941406 305.941406 279.980469 312.492188 C 278.019531 319.046875 270.269531 330.527344 270.652344 336.652344 C 271.035156 342.773438 282.945312 354.207031 283.328125 359.660156 C 283.710938 365.113281 282.132812 373.726562 278.066406 373.34375 C 274 372.960938 250.703125 368.796875 250.703125 368.796875 C 250.703125 368.796875 253.667969 362.195312 250.464844 358.847656 C 247.257812 355.5 238.792969 342.105469 239.75 336.414062 C 240.707031 330.71875 250.175781 319.574219 249.125 314.070312 C 248.074219 308.570312 241.089844 296.753906 239.941406 293.121094 C 238.792969 289.484375 243.433594 277.8125 243.433594 277.8125 Z M 243.433594 277.8125 " fill-opacity="1" fill-rule="nonzero"/><path fill="#aee0ff" d="M 378.714844 279.582031 L 346.714844 276.808594 C 346.714844 276.808594 355.609375 284.605469 349.390625 297.136719 C 343.171875 309.71875 340.253906 307.757812 342.214844 314.261719 C 344.179688 320.816406 351.925781 332.296875 351.542969 338.421875 C 351.160156 344.542969 339.96875 353.441406 339.632812 358.894531 C 339.296875 364.347656 340.160156 370.664062 344.226562 370.328125 C 348.292969 369.992188 367.378906 365.878906 370.535156 362.53125 C 371.875 356.457031 383.308594 346.554688 381.875 336.222656 C 381.058594 330.527344 371.539062 319 372.59375 313.449219 C 373.644531 307.949219 381.058594 298.574219 382.257812 294.890625 C 383.40625 291.347656 378.714844 279.582031 378.714844 279.582031 Z M 378.714844 279.582031 " fill-opacity="1" fill-rule="nonzero"/><path fill="#b97365" d="M 206.308594 226.433594 L 207.410156 227.4375 C 207.746094 227.296875 208.082031 227.105469 208.367188 226.914062 C 228.078125 209.070312 257.59375 198.402344 262.566406 196.632812 C 267.015625 195.003906 266.011719 193.332031 266.011719 193.332031 C 258.929688 176.347656 242.570312 163.242188 236.496094 160.464844 C 215.351562 168.265625 206.835938 226.097656 206.835938 226.097656 L 206.789062 226.097656 C 206.644531 226.195312 206.453125 226.289062 206.308594 226.433594 Z M 206.308594 226.433594 " fill-opacity="1" fill-rule="nonzero"/><path fill="#b97365" d="M 334.847656 193.523438 C 335.613281 195.292969 351.878906 194.144531 391.34375 225.859375 C 394.214844 228.15625 396.703125 230.308594 398.953125 232.269531 C 397.132812 229.832031 395.125 227.582031 392.972656 225.476562 C 391.25 196.105469 375.128906 165.011719 365.847656 161.039062 C 352.789062 164.054688 332.265625 187.589844 334.847656 193.523438 Z M 334.847656 193.523438 " fill-opacity="1" fill-rule="nonzero"/><g clip-path="url(#7392cec22e)"><path fill="#493631" d="M 417.992188 272.933594 C 415.648438 257.816406 409.476562 243.367188 400.195312 231.21875 C 398.472656 228.921875 396.558594 226.722656 394.503906 224.664062 C 392.492188 194.382812 376.179688 163.625 366.46875 159.460938 C 365.894531 159.175781 365.273438 159.03125 364.605469 158.9375 C 350.78125 157.117188 321.121094 183.238281 316.097656 187.78125 C 313.371094 187.015625 310.597656 186.488281 307.820312 186.203125 C 306.914062 186.105469 306.050781 186.058594 305.238281 185.964844 C 299.019531 185.535156 292.609375 186.441406 286.726562 188.59375 C 255.535156 155.253906 240.035156 157.453125 236.015625 158.9375 C 215.304688 166.542969 206.550781 217.679688 205.355469 225.046875 C 202.386719 227.152344 188.277344 238.679688 182.488281 268.867188 C 181.292969 275.277344 180.476562 281.828125 180.191406 288.335938 L 180.09375 290.726562 C 180 291.636719 180 292.304688 180 292.878906 L 180 295.847656 C 180.476562 324.929688 195.070312 347.511719 222.242188 361.191406 C 224.203125 362.148438 225.972656 363.011719 227.695312 363.726562 C 228.746094 364.15625 229.796875 364.636719 230.898438 365.066406 C 231.1875 365.210938 231.519531 365.304688 231.855469 365.449219 C 232.09375 365.546875 232.335938 365.640625 232.574219 365.738281 C 233.53125 366.070312 234.488281 366.453125 235.492188 366.789062 C 236.78125 367.21875 238.074219 367.699219 239.414062 368.082031 C 241.136719 368.65625 242.859375 369.132812 244.53125 369.5625 C 246.253906 370.042969 247.738281 370.425781 249.363281 370.808594 C 252.328125 371.476562 255.441406 372.148438 258.5 372.671875 C 259.839844 372.914062 261.179688 373.152344 262.566406 373.34375 L 263.667969 373.535156 C 264.242188 373.628906 264.816406 373.726562 265.4375 373.773438 C 268.976562 374.25 272.613281 374.632812 276.25 374.875 C 277.972656 375.015625 279.691406 375.113281 281.464844 375.257812 C 285.769531 375.496094 290.21875 375.589844 294.761719 375.589844 C 310.691406 375.589844 327.578125 374.875 343.554688 372.003906 C 343.554688 372.003906 343.605469 372.003906 343.605469 372.003906 C 343.796875 372.003906 344.035156 371.957031 344.226562 371.859375 C 377.902344 365.832031 407.609375 350.285156 416.316406 312.492188 C 419.472656 299.480469 420 286.183594 417.992188 272.933594 Z M 265.820312 370.472656 C 265.246094 370.425781 264.71875 370.328125 264.195312 370.234375 L 263.046875 370.042969 C 261.707031 369.851562 260.367188 369.613281 259.074219 369.371094 C 256.683594 368.941406 254.292969 368.464844 251.949219 367.9375 C 252.664062 366.023438 252.953125 363.964844 252.808594 362.003906 C 252.710938 357.507812 249.9375 354.113281 247.257812 350.859375 C 244.148438 347.078125 241.183594 343.445312 241.472656 337.894531 C 241.757812 332.347656 244.199219 328.757812 246.492188 325.265625 C 248.742188 321.871094 250.894531 318.617188 250.800781 314.167969 C 250.703125 308.761719 248.933594 306.464844 246.925781 303.738281 C 245.539062 301.875 243.957031 299.816406 242.476562 296.132812 C 239.558594 289.003906 243.574219 282.070312 244.675781 280.300781 L 271.992188 277.621094 C 270.171875 281.0625 267.734375 287.617188 270.605469 294.648438 C 272.277344 298.714844 274.046875 301.058594 275.484375 302.972656 C 277.347656 305.507812 278.59375 307.136719 278.6875 311.488281 C 278.734375 314.933594 276.964844 317.613281 274.910156 320.722656 C 272.46875 324.40625 269.695312 328.613281 269.3125 335.023438 C 268.929688 341.867188 272.613281 346.316406 275.816406 350.285156 C 276.871094 351.578125 277.875 352.773438 278.6875 354.015625 C 278.6875 354.0625 278.734375 354.0625 278.734375 354.113281 C 280.601562 356.550781 281.605469 359.566406 281.511719 362.628906 C 281.464844 365.878906 280.507812 369.039062 278.785156 371.8125 C 277.972656 371.765625 277.207031 371.714844 276.390625 371.667969 C 272.898438 371.332031 269.3125 370.949219 265.820312 370.472656 Z M 341.882812 361.429688 C 341.832031 359.085938 342.457031 356.789062 343.746094 354.78125 C 344.609375 353.488281 345.613281 352.199219 346.714844 350.859375 C 349.964844 346.9375 353.648438 342.441406 353.265625 335.597656 C 352.933594 329.140625 350.109375 324.980469 347.667969 321.296875 C 345.613281 318.1875 343.84375 315.507812 343.890625 312.109375 C 343.988281 307.804688 345.230469 306.132812 347.097656 303.644531 C 348.53125 301.730469 350.300781 299.386719 351.976562 295.320312 C 354.796875 288.429688 352.453125 281.925781 350.636719 278.433594 L 376.851562 281.304688 C 378 283.027344 382.015625 289.960938 379.097656 297.136719 C 377.617188 300.820312 376.039062 302.878906 374.648438 304.742188 C 372.640625 307.421875 370.871094 309.765625 370.773438 315.171875 C 370.679688 319.667969 372.832031 322.875 375.082031 326.269531 C 377.425781 329.761719 379.816406 333.398438 380.105469 338.898438 C 380.390625 344.449219 377.472656 348.035156 374.316406 351.863281 C 371.921875 354.78125 369.484375 357.796875 368.910156 361.621094 C 361.589844 364.539062 353.410156 366.789062 344.179688 368.511719 C 342.742188 366.453125 341.929688 364.015625 341.882812 361.429688 Z M 413.0625 311.726562 C 407.847656 334.355469 394.644531 350.140625 372.832031 359.949219 C 373.695312 357.9375 375.222656 356.074219 376.898438 354.015625 C 380.152344 350.09375 383.785156 345.597656 383.40625 338.757812 C 383.070312 332.296875 380.246094 328.136719 377.808594 324.453125 C 375.75 321.34375 373.980469 318.710938 374.027344 315.269531 C 374.125 310.960938 375.367188 309.289062 377.234375 306.800781 C 378.667969 304.886719 380.4375 302.542969 382.113281 298.476562 C 384.886719 291.730469 382.6875 285.371094 380.917969 281.828125 L 387.613281 282.546875 C 387.660156 282.546875 387.757812 282.546875 387.804688 282.546875 C 388.667969 282.546875 389.382812 281.925781 389.480469 281.0625 C 389.574219 280.15625 388.90625 279.34375 387.996094 279.246094 L 332.746094 273.171875 C 331.835938 273.074219 331.023438 273.746094 330.925781 274.652344 C 330.832031 275.5625 331.5 276.375 332.410156 276.472656 L 346.523438 278.003906 C 347.335938 279.152344 352.023438 286.519531 348.914062 294.078125 C 347.429688 297.757812 345.851562 299.816406 344.464844 301.683594 C 342.457031 304.359375 340.6875 306.707031 340.589844 312.109375 C 340.496094 316.609375 342.648438 319.8125 344.894531 323.210938 C 347.238281 326.703125 349.632812 330.335938 349.917969 335.839844 C 350.207031 341.386719 347.289062 344.976562 344.128906 348.800781 C 343.03125 350.140625 341.882812 351.578125 340.925781 353.011719 C 339.296875 355.546875 338.484375 358.511719 338.53125 361.527344 C 338.582031 364.207031 339.296875 366.835938 340.636719 369.132812 C 327.578125 371.238281 312.460938 372.289062 294.714844 372.289062 C 290.601562 372.289062 286.484375 372.195312 282.5625 372.003906 C 284.046875 369.132812 284.859375 365.929688 284.957031 362.675781 C 285.050781 358.894531 283.808594 355.164062 281.511719 352.152344 C 280.601562 350.761719 279.5 349.472656 278.449219 348.179688 C 275.339844 344.351562 272.375 340.765625 272.660156 335.265625 C 272.949219 329.714844 275.386719 326.128906 277.683594 322.636719 C 279.933594 319.238281 282.085938 315.984375 281.988281 311.535156 C 281.894531 306.132812 280.125 303.789062 278.113281 301.109375 C 276.726562 299.242188 275.148438 297.1875 273.664062 293.503906 C 270.460938 285.703125 275.484375 278.195312 276.105469 277.332031 L 287.632812 276.234375 C 288.542969 276.136719 289.210938 275.324219 289.117188 274.414062 C 289.019531 273.507812 288.207031 272.835938 287.300781 272.933594 L 231.808594 278.335938 C 230.898438 278.433594 230.230469 279.246094 230.324219 280.15625 C 230.421875 281.015625 231.136719 281.636719 232 281.636719 C 232.046875 281.636719 232.09375 281.636719 232.144531 281.636719 L 240.5625 280.824219 C 238.746094 284.363281 236.542969 290.726562 239.316406 297.519531 C 240.992188 301.585938 242.761719 303.929688 244.199219 305.84375 C 246.0625 308.332031 247.308594 310.007812 247.402344 314.3125 C 247.449219 317.753906 245.679688 320.433594 243.625 323.496094 C 241.183594 327.179688 238.410156 331.390625 238.027344 337.800781 C 237.644531 344.6875 241.328125 349.136719 244.53125 353.058594 C 247.066406 356.121094 249.269531 358.800781 249.363281 362.246094 C 249.507812 363.964844 249.171875 365.6875 248.503906 367.265625 C 247.449219 367.027344 246.445312 366.742188 245.296875 366.40625 C 243.71875 365.976562 242.046875 365.496094 240.324219 364.921875 C 239.03125 364.539062 237.789062 364.109375 236.542969 363.632812 C 235.585938 363.296875 234.628906 362.960938 233.722656 362.628906 C 233.480469 362.53125 233.242188 362.4375 232.957031 362.339844 C 232.667969 362.246094 232.382812 362.101562 232.046875 362.003906 C 230.996094 361.574219 229.941406 361.144531 228.890625 360.714844 C 227.261719 359.996094 225.542969 359.183594 223.628906 358.273438 C 197.746094 345.117188 183.777344 323.542969 183.347656 295.796875 L 183.347656 292.832031 C 183.347656 292.164062 183.394531 291.636719 183.445312 291.015625 C 183.445312 290.964844 183.445312 290.917969 183.445312 290.871094 L 183.539062 288.429688 C 183.875 282.070312 184.59375 275.707031 185.789062 269.441406 C 191.386719 240.210938 204.730469 229.496094 207.363281 227.628906 L 207.410156 227.582031 C 207.984375 227.390625 208.464844 226.863281 208.558594 226.242188 C 208.65625 225.667969 217.121094 169.316406 237.164062 161.949219 C 238.746094 161.375 253.285156 157.308594 285.003906 191.609375 C 285.480469 192.136719 286.199219 192.277344 286.820312 192.039062 C 292.511719 189.789062 298.78125 188.785156 304.902344 189.214844 C 305.714844 189.265625 306.53125 189.359375 307.390625 189.40625 C 310.308594 189.742188 313.179688 190.316406 316 191.128906 C 316.574219 191.320312 317.199219 191.179688 317.628906 190.746094 C 326.859375 182.421875 353.125 160.800781 364.171875 162.238281 C 364.507812 162.285156 364.796875 162.378906 365.128906 162.523438 C 373.789062 166.253906 389.574219 197.207031 391.25 225.523438 C 391.25 225.957031 391.441406 226.339844 391.777344 226.625 C 393.878906 228.683594 395.84375 230.882812 397.613281 233.226562 C 406.558594 244.945312 412.488281 258.867188 414.738281 273.457031 C 416.652344 286.230469 416.125 299.148438 413.0625 311.726562 Z M 413.0625 311.726562 " fill-opacity="1" fill-rule="nonzero"/></g><path fill="#493631" d="M 313.609375 290.917969 C 316.289062 289.960938 318.203125 287.378906 318.203125 285.945312 C 318.203125 284.175781 315.234375 283.550781 311.503906 283.550781 C 307.773438 283.550781 304.808594 284.175781 304.808594 285.945312 C 304.808594 287.285156 306.53125 289.675781 308.96875 290.726562 C 307.679688 296.5625 304.617188 306.609375 298.347656 312.300781 C 297.679688 312.925781 297.632812 313.976562 298.253906 314.644531 C 298.589844 315.027344 299.019531 315.171875 299.496094 315.171875 C 299.878906 315.171875 300.3125 315.027344 300.597656 314.742188 C 306.195312 309.625 309.398438 301.730469 311.171875 295.558594 C 314.28125 306.082031 321.453125 313.738281 321.835938 314.121094 C 322.460938 314.789062 323.511719 314.789062 324.183594 314.167969 C 324.851562 313.546875 324.851562 312.492188 324.230469 311.824219 C 324.230469 311.777344 315.570312 302.542969 313.609375 290.917969 Z M 313.609375 290.917969 " fill-opacity="1" fill-rule="nonzero"/><g fill="#3e393a" fill-opacity="1"><g transform="translate(60.651556, 430.328409)"><g><path d="M 37.996094 -7.75 C 37.195312 -9 35.945312 -9.550781 34.398438 -9.347656 C 33.398438 -9.25 32.347656 -8.898438 31.445312 -8.597656 C 27.097656 -7.199219 21.898438 -6.097656 16.449219 -8.75 C 11.898438 -11 9.5 -15.449219 10.398438 -20.097656 C 10.699219 -21.597656 11.148438 -23.546875 12.148438 -25.097656 C 16.75 -32.445312 21.898438 -34.496094 28.847656 -31.695312 C 29.796875 -31.347656 30.648438 -31.097656 31.398438 -30.996094 C 32.398438 -30.898438 33.246094 -31.195312 33.746094 -31.898438 C 34.195312 -32.546875 34.246094 -33.398438 33.847656 -34.246094 C 33.398438 -35.195312 32.648438 -36.144531 31.648438 -36.996094 C 28.996094 -39.195312 25.648438 -40.296875 22.246094 -40.296875 C 19.296875 -40.296875 16.296875 -39.445312 13.648438 -37.746094 C 7.847656 -34.046875 4.199219 -29.195312 2.648438 -23.296875 C 0.648438 -15.5 2.300781 -9.097656 7.5 -4.25 C 11.398438 -0.601562 16.597656 1.5 22.898438 2 C 27.199219 1.75 31.046875 0.851562 34.695312 -0.800781 C 35.796875 -1.300781 36.945312 -2.351562 37.996094 -3.699219 C 38.894531 -4.898438 38.894531 -6.398438 37.996094 -7.75 Z M 37.996094 -7.75 "/></g></g></g><g fill="#3e393a" fill-opacity="1"><g transform="translate(101.195283, 430.328409)"><g><path d="M 25.847656 -12.898438 C 25.398438 -15.347656 24.847656 -17.898438 23.796875 -20.199219 C 21.449219 -25.597656 17.347656 -26.796875 12.199219 -23.996094 C 12.097656 -23.949219 12 -23.949219 11.597656 -23.847656 C 11.398438 -24.847656 11.199219 -25.699219 11 -26.597656 C 10.25 -30.296875 9.550781 -34.046875 8.699219 -37.746094 C 8.25 -39.695312 6.949219 -40.746094 5.449219 -40.746094 C 3.898438 -40.695312 2.601562 -39.496094 2.25 -37.496094 C 2 -36.296875 1.75 -34.996094 1.851562 -33.796875 C 2.199219 -27.296875 2.550781 -20.746094 3.101562 -14.25 C 3.300781 -11.648438 3.898438 -9 4.550781 -6.449219 C 5 -4.800781 6.300781 -3.800781 8.097656 -3.75 C 10 -3.699219 11.300781 -4.75 11.796875 -6.449219 C 12.398438 -8.347656 12.796875 -10.300781 13.046875 -12.25 C 13.449219 -14.898438 14.699219 -17 16.898438 -18.949219 C 17.296875 -17.898438 17.75 -17.148438 17.847656 -16.398438 C 18.148438 -14.597656 18.25 -12.75 18.546875 -11 C 18.75 -9.648438 18.898438 -8.25 19.398438 -7 C 20.199219 -4.898438 22.449219 -4.648438 23.847656 -6.398438 C 25.347656 -8.300781 26.246094 -10.5 25.847656 -12.898438 Z M 25.847656 -12.898438 "/></g></g></g><g fill="#3e393a" fill-opacity="1"><g transform="translate(129.040977, 430.328409)"><g><path d="M 21.546875 -24.199219 C 19.597656 -26.199219 17.199219 -27.496094 14.449219 -27.996094 C 10.449219 -28.746094 6.800781 -27.148438 4.550781 -23.796875 C 2.851562 -21.199219 2.148438 -18.296875 1.898438 -15.25 C 1.25 -7.949219 6.300781 -1.851562 15.5 -2.800781 C 16.796875 -2.898438 18.347656 -3.800781 19.296875 -4.75 C 21.046875 -6.597656 20.449219 -8.800781 18.046875 -9.550781 C 16.398438 -10.097656 14.597656 -10.148438 12.898438 -10.449219 C 12 -10.648438 11.148438 -10.949219 10.25 -11.25 C 13.347656 -11.796875 16.347656 -12 19.046875 -12.949219 C 24.199219 -14.75 25.347656 -20.246094 21.546875 -24.199219 Z M 17.097656 -19.398438 C 14.847656 -19.148438 12.546875 -18.898438 10.050781 -18.648438 C 10.449219 -20.148438 11.097656 -21.296875 12.597656 -21.746094 C 14.296875 -22.246094 16.398438 -21.398438 17.699219 -19.648438 C 17.398438 -19.5 17.25 -19.398438 17.097656 -19.398438 Z M 17.097656 -19.398438 "/></g></g></g><g fill="#3e393a" fill-opacity="1"><g transform="translate(154.737002, 430.328409)"><g><path d="M 14.796875 -9.449219 C 13.796875 -9.449219 12.847656 -9.347656 11.898438 -9.5 C 10.097656 -9.75 9 -10.949219 9.050781 -12.75 C 9.097656 -16 10.148438 -18.898438 12.796875 -20.996094 C 14.699219 -22.449219 15.597656 -21.796875 16.949219 -19.847656 C 17.296875 -19.347656 18.046875 -18.847656 18.847656 -19.25 C 19.296875 -19.5 19.796875 -19.199219 20.347656 -20.496094 C 21.296875 -22.648438 19.847656 -25.347656 17.75 -26.648438 C 15.546875 -28.046875 13.25 -27.945312 10.898438 -26.949219 C 5.347656 -24.496094 1.648438 -18.5 1.851562 -12.097656 C 1.949219 -7.449219 5 -3.699219 9.550781 -2.699219 C 14.347656 -1.648438 18.398438 -3.449219 22.046875 -6.300781 C 22.597656 -6.75 22.949219 -7.949219 22.746094 -8.648438 C 22.597656 -9.199219 21.449219 -9.699219 20.746094 -9.699219 C 18.75 -9.75 16.75 -9.550781 14.796875 -9.398438 C 14.796875 -9.449219 14.796875 -9.449219 14.796875 -9.449219 Z M 14.796875 -9.449219 "/></g></g></g><g fill="#3e393a" fill-opacity="1"><g transform="translate(179.483167, 430.328409)"><g><path d="M 25.148438 -8.550781 C 24.296875 -9.398438 23.199219 -10.097656 22.148438 -10.75 C 20.046875 -12 17.898438 -13.148438 15.597656 -14.5 C 16.199219 -15 16.546875 -15.398438 17 -15.75 C 18.449219 -16.949219 19.949219 -18.097656 21.347656 -19.296875 C 22.847656 -20.648438 23.199219 -22.046875 22.449219 -23.199219 C 21.699219 -24.398438 20.097656 -24.699219 18.296875 -23.796875 C 16.796875 -22.996094 15.398438 -22.046875 13.949219 -21.097656 C 12.75 -20.296875 11.648438 -19.398438 10.199219 -18.296875 C 10.097656 -19.648438 10.050781 -20.648438 10 -21.648438 C 9.75 -25.296875 9.550781 -28.945312 9.25 -32.546875 C 9.148438 -33.695312 8.898438 -34.996094 8.300781 -35.945312 C 7.898438 -36.695312 6.75 -37.394531 5.949219 -37.394531 C 5.300781 -37.347656 4.648438 -36.246094 4.097656 -35.546875 C 3.851562 -35.296875 3.898438 -34.796875 3.851562 -34.398438 C 3.199219 -26.949219 2.5 -19.449219 1.898438 -12 C 1.800781 -10.550781 1.800781 -9.050781 2 -7.597656 C 2.300781 -4.949219 3.75 -3.398438 5.800781 -3.25 C 7.898438 -3.101562 9.449219 -4.449219 10.25 -6.949219 C 10.648438 -8.25 11.25 -9.449219 11.796875 -10.800781 C 14.25 -8.5 16.296875 -6.449219 18.449219 -4.550781 C 19.296875 -3.800781 20.199219 -3.101562 21.246094 -2.648438 C 23.046875 -1.851562 24.996094 -2.449219 25.949219 -3.898438 C 26.847656 -5.300781 26.597656 -7.148438 25.148438 -8.550781 Z M 25.148438 -8.550781 "/></g></g></g><g fill="#3e393a" fill-opacity="1"><g transform="translate(207.878772, 430.328409)"><g/></g></g><g fill="#3e393a" fill-opacity="1"><g transform="translate(222.22655, 430.328409)"><g><path d="M 30.648438 -37.445312 C 29.097656 -38.546875 27.046875 -38.195312 25.496094 -36.546875 C 24.996094 -35.996094 24.546875 -35.347656 24.097656 -34.695312 C 23.796875 -34.296875 23.546875 -33.945312 23.246094 -33.597656 C 21.898438 -31.796875 20.496094 -29.996094 19.046875 -28.097656 L 16.648438 -24.996094 L 16.199219 -25.699219 C 15.699219 -26.597656 15.199219 -27.445312 14.699219 -28.246094 C 13.597656 -30.046875 12.597656 -31.746094 11.550781 -33.347656 L 11.398438 -33.546875 C 10.148438 -35.445312 8.898438 -37.445312 7.398438 -39.144531 C 6.648438 -39.996094 5.699219 -40.347656 4.847656 -40.347656 C 4.25 -40.347656 3.699219 -40.144531 3.25 -39.894531 C 2.050781 -39.144531 1.601562 -37.746094 1.949219 -35.894531 C 2.050781 -35.546875 2.101562 -35.148438 2.25 -34.847656 C 2.648438 -33.898438 3 -32.945312 3.351562 -31.996094 C 4.199219 -29.695312 5.097656 -27.398438 6.148438 -25.199219 C 7.898438 -21.546875 10.347656 -18.699219 13.347656 -16.75 C 13.949219 -16.347656 14.296875 -15.347656 14.25 -14.648438 C 14.199219 -13.347656 14.046875 -12.097656 13.949219 -10.800781 C 13.796875 -8.898438 13.597656 -6.898438 13.597656 -4.898438 C 13.597656 -3.199219 14.148438 -1.75 15.148438 -0.75 C 15.898438 0 16.847656 0.351562 17.847656 0.351562 C 20.296875 0.300781 21.898438 -1.851562 21.796875 -4.949219 C 21.746094 -8.347656 21.496094 -11.898438 21.046875 -15.847656 C 20.898438 -17.347656 21.148438 -18.347656 22.097656 -19.597656 C 24.949219 -23.347656 28.296875 -27.796875 31.398438 -32.496094 C 32.746094 -34.546875 31.945312 -36.496094 30.648438 -37.445312 Z M 30.648438 -37.445312 "/></g></g></g><g fill="#3e393a" fill-opacity="1"><g transform="translate(256.22128, 430.328409)"><g><path d="M 17.597656 -23.449219 C 16.449219 -23.597656 15.296875 -23.796875 14.148438 -24.097656 C 12.097656 -24.699219 10.148438 -24.449219 8.347656 -23.347656 C 4.199219 -20.847656 1.550781 -17.25 0.851562 -12.398438 C 0.25 -8.25 2.101562 -5 6.050781 -3.648438 C 8.050781 -2.949219 10.148438 -2.699219 12.199219 -2.25 C 15.296875 -2.199219 17.847656 -3.199219 19.996094 -5.300781 C 22.597656 -7.800781 23.949219 -10.949219 24.449219 -14.5 C 25.046875 -19 22.148438 -22.796875 17.597656 -23.449219 Z M 16.148438 -13.847656 C 15.199219 -11.097656 14.25 -10.199219 12.296875 -10.300781 C 8.398438 -10.5 7.800781 -11.597656 9.75 -15.046875 C 9.898438 -15.296875 10.050781 -15.546875 10.199219 -15.796875 C 12.097656 -18.597656 12.5 -18.597656 15.25 -16.699219 C 16.347656 -15.898438 16.597656 -15.097656 16.148438 -13.847656 Z M 16.148438 -13.847656 "/></g></g></g><g fill="#3e393a" fill-opacity="1"><g transform="translate(281.967282, 430.328409)"><g><path d="M 24.496094 -8.398438 C 23.449219 -12.949219 22.496094 -17.5 23.148438 -22.199219 C 23.199219 -22.546875 23.148438 -22.898438 23.148438 -23.246094 C 23.046875 -25.199219 21.847656 -26.546875 20.097656 -26.746094 C 18.296875 -26.949219 16.796875 -25.949219 16.296875 -24.046875 C 15.546875 -21.296875 15.046875 -18.5 14.296875 -15.796875 C 13.847656 -14.347656 13.25 -12.898438 12.347656 -11.699219 C 11.300781 -10.199219 10.25 -10.398438 9.699219 -12.148438 C 9.25 -13.648438 8.949219 -15.199219 8.800781 -16.796875 C 8.597656 -18.75 8.597656 -20.746094 8.5 -22.746094 C 8.398438 -24.097656 8 -25.246094 6.5 -25.496094 C 5.097656 -25.746094 4.148438 -24.949219 3.699219 -23.746094 C 1.550781 -18.449219 1.050781 -13.046875 3.300781 -7.699219 C 5.300781 -3.050781 10.097656 -1.5 14.546875 -3.851562 C 15.796875 -4.5 16.898438 -5.398438 18.148438 -6.25 C 18.296875 -6.097656 18.347656 -6.050781 18.449219 -5.949219 C 19.699219 -3.800781 21.148438 -3.101562 22.796875 -3.75 C 24.449219 -4.449219 25.046875 -6.148438 24.496094 -8.398438 Z M 24.496094 -8.398438 "/></g></g></g><g fill="#3e393a" fill-opacity="1"><g transform="translate(308.563167, 430.328409)"><g><path d="M 22.398438 -19.847656 C 21.796875 -21.996094 20.246094 -23.496094 18.25 -24.546875 C 15.046875 -26.148438 11.898438 -26.046875 8.75 -24.347656 C 8.300781 -25.398438 8.148438 -26.496094 7.5 -27.199219 C 6.800781 -27.945312 5.648438 -28.746094 4.75 -28.648438 C 3.898438 -28.597656 3 -27.496094 2.351562 -26.699219 C 2 -26.296875 2 -25.496094 2 -24.898438 C 1.898438 -18.949219 1.851562 -12.949219 1.851562 -7 C 1.800781 -6.398438 1.949219 -5.75 2.101562 -5.148438 C 2.648438 -2.75 4.550781 -1.25 6.898438 -1.398438 C 9.148438 -1.550781 10.949219 -3.300781 11.199219 -5.699219 C 11.300781 -6.847656 10.949219 -8.050781 11.199219 -9.097656 C 11.75 -11.5 12.449219 -13.898438 13.25 -16.199219 C 13.699219 -17.5 14.75 -17.75 16.046875 -17.148438 C 17 -16.648438 18 -16.046875 19.046875 -16 C 19.996094 -15.898438 21.398438 -16.097656 21.949219 -16.75 C 22.496094 -17.449219 22.699219 -18.898438 22.398438 -19.847656 Z M 22.398438 -19.847656 "/></g></g></g><g fill="#3e393a" fill-opacity="1"><g transform="translate(333.009394, 430.328409)"><g/></g></g><g fill="#3e393a" fill-opacity="1"><g transform="translate(347.357172, 430.328409)"><g><path d="M 11.847656 -29.648438 C 11.75 -31.445312 11.449219 -32.996094 11 -34.347656 C 10.449219 -36.144531 9.148438 -37.195312 7.25 -37.246094 C 5.449219 -37.347656 3.851562 -36.246094 3.25 -34.445312 C 2.800781 -33.097656 2.5 -31.597656 2.351562 -30.046875 C 2.148438 -27.546875 2.050781 -25.046875 1.949219 -22.546875 C 1.898438 -21.746094 1.851562 -20.898438 1.851562 -20.097656 L 2.050781 -20.097656 L 2.050781 -19.546875 C 2.050781 -18.449219 2.050781 -17.347656 2 -16.25 C 2 -13.699219 1.949219 -11 2.101562 -8.398438 C 2.199219 -6.5 2.75 -4.597656 3.550781 -3.101562 C 4.199219 -1.949219 5.300781 -1.25 6.449219 -1.25 C 6.5 -1.25 6.5 -1.25 6.5 -1.25 C 7.75 -1.25 8.949219 -2 9.648438 -3.300781 C 10.097656 -4.097656 10.398438 -4.847656 10.449219 -5.550781 L 10.800781 -8.5 C 11.550781 -15.398438 12.347656 -22.546875 11.847656 -29.648438 Z M 11.847656 -29.648438 "/></g></g></g><g fill="#3e393a" fill-opacity="1"><g transform="translate(361.305001, 430.328409)"><g><path d="M 23.046875 -21.597656 C 20.246094 -25.347656 15.898438 -25.949219 12.097656 -23.246094 C 11 -22.449219 10 -21.496094 8.847656 -20.496094 C 8.648438 -20.898438 8.550781 -21.148438 8.449219 -21.449219 C 8 -22.996094 7.300781 -24.449219 5.398438 -24.398438 C 3.398438 -24.296875 2.800781 -22.648438 2.648438 -21.046875 C 2.300781 -16.449219 1.949219 -11.847656 1.851562 -7.25 C 1.75 -4.699219 3.449219 -2.949219 5.648438 -2.699219 C 7.847656 -2.449219 9.75 -3.851562 10.347656 -6.398438 C 11.148438 -9.949219 13.097656 -12.898438 15.296875 -15.699219 C 15.648438 -16.148438 16.148438 -16.449219 16.847656 -17.097656 C 17.097656 -15.796875 17.25 -14.949219 17.347656 -14.046875 C 17.699219 -11.699219 17.847656 -9.25 18.449219 -6.898438 C 18.949219 -4.898438 20.648438 -3.898438 22.398438 -3.949219 C 23.996094 -4.050781 25.546875 -5.25 25.847656 -7.25 C 26.648438 -12.347656 26.199219 -17.296875 23.046875 -21.597656 Z M 23.046875 -21.597656 "/></g></g></g><g fill="#3e393a" fill-opacity="1"><g transform="translate(389.400657, 430.328409)"><g><path d="M 20.847656 -8.648438 C 20.246094 -10.199219 18.949219 -10.699219 17.398438 -10.550781 C 16.597656 -10.5 15.796875 -10.300781 15.046875 -10.199219 C 13.796875 -10.050781 12.796875 -10.550781 12.597656 -11.796875 C 12.25 -13.796875 12.097656 -15.796875 11.847656 -17.847656 C 13.648438 -17.847656 15.046875 -17.75 16.398438 -17.847656 C 18.25 -18 19.648438 -19.398438 19.796875 -21.097656 C 19.949219 -22.796875 18.796875 -24.398438 16.949219 -24.847656 C 15.796875 -25.148438 14.597656 -25.246094 13.449219 -25.246094 C 12.398438 -25.296875 12.046875 -25.699219 12.046875 -26.746094 C 12.046875 -28.148438 12 -29.597656 11.796875 -30.996094 C 11.550781 -33.046875 10.597656 -34.046875 9.25 -34.097656 C 7.847656 -34.097656 6.949219 -33.097656 6.550781 -31.046875 C 6.347656 -29.898438 6.097656 -28.695312 6.050781 -27.546875 C 5.949219 -26.199219 5.347656 -25.648438 4.148438 -25.148438 C 3.199219 -24.746094 2.25 -23.648438 1.949219 -22.699219 C 1.5 -21.347656 2.5 -20.296875 3.75 -19.796875 C 4.75 -19.398438 4.949219 -18.796875 4.949219 -17.847656 C 4.949219 -15.796875 5.050781 -13.75 5.25 -11.699219 C 5.550781 -8.800781 6.898438 -6.449219 9.25 -4.648438 C 12.148438 -2.449219 17.25 -2.5 19.746094 -4.847656 C 20.847656 -5.898438 21.449219 -7.148438 20.847656 -8.648438 Z M 20.847656 -8.648438 "/></g></g></g><g fill="#3e393a" fill-opacity="1"><g transform="translate(412.397101, 430.328409)"><g><path d="M 21.546875 -24.199219 C 19.597656 -26.199219 17.199219 -27.496094 14.449219 -27.996094 C 10.449219 -28.746094 6.800781 -27.148438 4.550781 -23.796875 C 2.851562 -21.199219 2.148438 -18.296875 1.898438 -15.25 C 1.25 -7.949219 6.300781 -1.851562 15.5 -2.800781 C 16.796875 -2.898438 18.347656 -3.800781 19.296875 -4.75 C 21.046875 -6.597656 20.449219 -8.800781 18.046875 -9.550781 C 16.398438 -10.097656 14.597656 -10.148438 12.898438 -10.449219 C 12 -10.648438 11.148438 -10.949219 10.25 -11.25 C 13.347656 -11.796875 16.347656 -12 19.046875 -12.949219 C 24.199219 -14.75 25.347656 -20.246094 21.546875 -24.199219 Z M 17.097656 -19.398438 C 14.847656 -19.148438 12.546875 -18.898438 10.050781 -18.648438 C 10.449219 -20.148438 11.097656 -21.296875 12.597656 -21.746094 C 14.296875 -22.246094 16.398438 -21.398438 17.699219 -19.648438 C 17.398438 -19.5 17.25 -19.398438 17.097656 -19.398438 Z M 17.097656 -19.398438 "/></g></g></g><g fill="#3e393a" fill-opacity="1"><g transform="translate(438.093114, 430.328409)"><g><path d="M 22.398438 -19.847656 C 21.796875 -21.996094 20.246094 -23.496094 18.25 -24.546875 C 15.046875 -26.148438 11.898438 -26.046875 8.75 -24.347656 C 8.300781 -25.398438 8.148438 -26.496094 7.5 -27.199219 C 6.800781 -27.945312 5.648438 -28.746094 4.75 -28.648438 C 3.898438 -28.597656 3 -27.496094 2.351562 -26.699219 C 2 -26.296875 2 -25.496094 2 -24.898438 C 1.898438 -18.949219 1.851562 -12.949219 1.851562 -7 C 1.800781 -6.398438 1.949219 -5.75 2.101562 -5.148438 C 2.648438 -2.75 4.550781 -1.25 6.898438 -1.398438 C 9.148438 -1.550781 10.949219 -3.300781 11.199219 -5.699219 C 11.300781 -6.847656 10.949219 -8.050781 11.199219 -9.097656 C 11.75 -11.5 12.449219 -13.898438 13.25 -16.199219 C 13.699219 -17.5 14.75 -17.75 16.046875 -17.148438 C 17 -16.648438 18 -16.046875 19.046875 -16 C 19.996094 -15.898438 21.398438 -16.097656 21.949219 -16.75 C 22.496094 -17.449219 22.699219 -18.898438 22.398438 -19.847656 Z M 22.398438 -19.847656 "/></g></g></g><g fill="#3e393a" fill-opacity="1"><g transform="translate(462.539342, 430.328409)"><g><path d="M 23.046875 -21.597656 C 20.246094 -25.347656 15.898438 -25.949219 12.097656 -23.246094 C 11 -22.449219 10 -21.496094 8.847656 -20.496094 C 8.648438 -20.898438 8.550781 -21.148438 8.449219 -21.449219 C 8 -22.996094 7.300781 -24.449219 5.398438 -24.398438 C 3.398438 -24.296875 2.800781 -22.648438 2.648438 -21.046875 C 2.300781 -16.449219 1.949219 -11.847656 1.851562 -7.25 C 1.75 -4.699219 3.449219 -2.949219 5.648438 -2.699219 C 7.847656 -2.449219 9.75 -3.851562 10.347656 -6.398438 C 11.148438 -9.949219 13.097656 -12.898438 15.296875 -15.699219 C 15.648438 -16.148438 16.148438 -16.449219 16.847656 -17.097656 C 17.097656 -15.796875 17.25 -14.949219 17.347656 -14.046875 C 17.699219 -11.699219 17.847656 -9.25 18.449219 -6.898438 C 18.949219 -4.898438 20.648438 -3.898438 22.398438 -3.949219 C 23.996094 -4.050781 25.546875 -5.25 25.847656 -7.25 C 26.648438 -12.347656 26.199219 -17.296875 23.046875 -21.597656 Z M 23.046875 -21.597656 "/></g></g></g><g fill="#3e393a" fill-opacity="1"><g transform="translate(490.634997, 430.328409)"><g><path d="M 21.546875 -24.199219 C 19.597656 -26.199219 17.199219 -27.496094 14.449219 -27.996094 C 10.449219 -28.746094 6.800781 -27.148438 4.550781 -23.796875 C 2.851562 -21.199219 2.148438 -18.296875 1.898438 -15.25 C 1.25 -7.949219 6.300781 -1.851562 15.5 -2.800781 C 16.796875 -2.898438 18.347656 -3.800781 19.296875 -4.75 C 21.046875 -6.597656 20.449219 -8.800781 18.046875 -9.550781 C 16.398438 -10.097656 14.597656 -10.148438 12.898438 -10.449219 C 12 -10.648438 11.148438 -10.949219 10.25 -11.25 C 13.347656 -11.796875 16.347656 -12 19.046875 -12.949219 C 24.199219 -14.75 25.347656 -20.246094 21.546875 -24.199219 Z M 17.097656 -19.398438 C 14.847656 -19.148438 12.546875 -18.898438 10.050781 -18.648438 C 10.449219 -20.148438 11.097656 -21.296875 12.597656 -21.746094 C 14.296875 -22.246094 16.398438 -21.398438 17.699219 -19.648438 C 17.398438 -19.5 17.25 -19.398438 17.097656 -19.398438 Z M 17.097656 -19.398438 "/></g></g></g><g fill="#3e393a" fill-opacity="1"><g transform="translate(516.331011, 430.328409)"><g><path d="M 20.847656 -8.648438 C 20.246094 -10.199219 18.949219 -10.699219 17.398438 -10.550781 C 16.597656 -10.5 15.796875 -10.300781 15.046875 -10.199219 C 13.796875 -10.050781 12.796875 -10.550781 12.597656 -11.796875 C 12.25 -13.796875 12.097656 -15.796875 11.847656 -17.847656 C 13.648438 -17.847656 15.046875 -17.75 16.398438 -17.847656 C 18.25 -18 19.648438 -19.398438 19.796875 -21.097656 C 19.949219 -22.796875 18.796875 -24.398438 16.949219 -24.847656 C 15.796875 -25.148438 14.597656 -25.246094 13.449219 -25.246094 C 12.398438 -25.296875 12.046875 -25.699219 12.046875 -26.746094 C 12.046875 -28.148438 12 -29.597656 11.796875 -30.996094 C 11.550781 -33.046875 10.597656 -34.046875 9.25 -34.097656 C 7.847656 -34.097656 6.949219 -33.097656 6.550781 -31.046875 C 6.347656 -29.898438 6.097656 -28.695312 6.050781 -27.546875 C 5.949219 -26.199219 5.347656 -25.648438 4.148438 -25.148438 C 3.199219 -24.746094 2.25 -23.648438 1.949219 -22.699219 C 1.5 -21.347656 2.5 -20.296875 3.75 -19.796875 C 4.75 -19.398438 4.949219 -18.796875 4.949219 -17.847656 C 4.949219 -15.796875 5.050781 -13.75 5.25 -11.699219 C 5.550781 -8.800781 6.898438 -6.449219 9.25 -4.648438 C 12.148438 -2.449219 17.25 -2.5 19.746094 -4.847656 C 20.847656 -5.898438 21.449219 -7.148438 20.847656 -8.648438 Z M 20.847656 -8.648438 "/></g></g></g></svg>