<svg xmlns="http://www.w3.org/2000/svg" xmlns:xlink="http://www.w3.org/1999/xlink" width="200" zoomAndPan="magnify" viewBox="0 0 150 149.999998" height="200" preserveAspectRatio="xMidYMid meet" version="1.0"><defs><g/><clipPath id="f29bbe9bc3"><path d="M 51 43 L 105 43 L 105 90.835938 L 51 90.835938 Z M 51 43 " clip-rule="nonzero"/></clipPath><clipPath id="d3e33a2e70"><path d="M 51 45 L 105 45 L 105 90.835938 L 51 90.835938 Z M 51 45 " clip-rule="nonzero"/></clipPath><clipPath id="4b26848cf0"><path d="M 51 49 L 96 49 L 96 90.835938 L 51 90.835938 Z M 51 49 " clip-rule="nonzero"/></clipPath><clipPath id="298e6fcadf"><path d="M 50 42.835938 L 105 42.835938 L 105 90.835938 L 50 90.835938 Z M 50 42.835938 " clip-rule="nonzero"/></clipPath></defs><g clip-path="url(#f29bbe9bc3)"><path fill="#ffffff" d="M 104.472656 87.066406 L 104.28125 90.804688 L 90.78125 90.804688 L 91.019531 87.066406 Z M 101.371094 70.6875 C 101.371094 70.6875 101.714844 64.582031 96.621094 58.261719 C 97.789062 52.417969 96.226562 44.59375 94.738281 43.441406 C 91.933594 43.605469 86.070312 45.675781 82.816406 50.882812 C 79.519531 49.699219 74.867188 49.386719 70.175781 50.566406 C 70.175781 50.566406 64.625 44.6875 58.113281 43.441406 C 54.953125 45.761719 55.941406 57.078125 55.910156 58.503906 C 53.707031 62.457031 45.378906 74.550781 59.070312 83.027344 C 57.25 87.742188 56.527344 90.738281 56.527344 90.738281 L 90.285156 90.804688 C 90.285156 90.804688 90.910156 84.175781 91.578125 80.894531 C 92.25 77.613281 92.875 72.109375 94.304688 71.464844 C 95.738281 70.820312 96.859375 72.351562 96.859375 72.351562 C 96.859375 72.351562 98.480469 68.34375 99.746094 71.914062 C 99.382812 70.566406 101.371094 70.6875 101.371094 70.6875 Z M 101.371094 70.6875 " fill-opacity="1" fill-rule="nonzero"/></g><path fill="#efb07d" d="M 92.457031 75.777344 C 93.507812 70.417969 95.664062 70.949219 96.859375 72.351562 C 97.050781 70.710938 98.773438 70.179688 99.78125 71.480469 C 103.65625 67.621094 104.28125 79.074219 104.28125 79.074219 L 104.28125 86.488281 C 104.28125 86.488281 103.410156 89.335938 97.457031 89.335938 C 92.265625 89.335938 90.78125 87.019531 90.78125 87.019531 C 90.78125 87.019531 91.402344 81.132812 92.457031 75.777344 Z M 70.34375 50.636719 C 69.195312 48.902344 61.796875 42.867188 58.207031 43.445312 C 54.136719 48.175781 56.101562 58.503906 56.101562 58.503906 C 56.101562 58.503906 52.742188 63.03125 52.339844 67.410156 C 52.46875 70.636719 61.179688 76.292969 71.132812 67.890625 C 80.597656 59.910156 72.976562 50.152344 72.976562 50.152344 C 72.976562 50.152344 71.683594 50.246094 70.34375 50.636719 Z M 93.925781 46.246094 L 90.78125 52.679688 C 90.78125 52.679688 93.589844 55.027344 94.332031 57.054688 C 95.074219 55.125 95.269531 50.203125 93.925781 46.246094 Z M 93.925781 46.246094 " fill-opacity="1" fill-rule="nonzero"/><g clip-path="url(#d3e33a2e70)"><path fill="#ef5454" d="M 104.28125 90.804688 C 104.28125 90.804688 104.28125 90.804688 98.464844 90.804688 C 102.988281 90.390625 103.539062 78.09375 103.539062 78.09375 Z M 61.589844 52.679688 C 61.589844 52.679688 59.101562 47.46875 58.6875 46.246094 C 57.632812 48.820312 57.460938 55.253906 58.28125 57.054688 C 59.894531 55.070312 61.589844 52.679688 61.589844 52.679688 Z M 90.3125 90.804688 C 90.84375 87.441406 91.574219 82.8125 92.164062 79.082031 C 92.160156 79.085938 92.15625 79.085938 92.15625 79.085938 L 92.757812 72.390625 C 92.71875 72.4375 92.671875 72.5 92.609375 72.585938 C 92.15625 73.253906 91.121094 75.167969 90.289062 79.714844 C 86.867188 80.742188 82.367188 81.449219 76.441406 81.488281 C 53.457031 81.328125 51.890625 71.171875 51.890625 71.171875 C 51.890625 71.171875 51.476562 72.542969 52.359375 74.78125 C 52.101562 74.558594 51.90625 74.386719 51.800781 74.28125 C 52.476562 79.410156 59.101562 83.367188 59.101562 83.367188 L 56.527344 90.804688 C 56.527344 90.804688 59.230469 90.804688 62.164062 90.804688 C 63.953125 84.921875 66.113281 85.078125 66.113281 85.078125 C 70.613281 86.070312 74.933594 86.339844 76.441406 86.339844 C 77.945312 86.339844 82.265625 86.070312 86.765625 85.078125 C 86.765625 85.078125 87.871094 85 89.152344 87.105469 C 88.6875 90.101562 88.539062 90.800781 88.539062 90.800781 Z M 82.695312 50.882812 L 85.34375 51.648438 C 85.34375 51.648438 86.332031 48.0625 90.65625 45.03125 C 87.640625 45.859375 84.386719 48.054688 82.695312 50.882812 Z M 62.011719 45.03125 C 66.335938 48.0625 67.324219 51.648438 67.324219 51.648438 L 69.976562 50.882812 C 68.285156 48.054688 65.027344 45.859375 62.011719 45.03125 Z M 78.1875 73.300781 C 78.1875 73.300781 76.019531 73.804688 74.167969 73.246094 C 74.421875 75.390625 77.550781 75.582031 78.1875 73.300781 Z M 78.1875 73.300781 " fill-opacity="0.3" fill-rule="nonzero"/></g><g clip-path="url(#4b26848cf0)"><path fill="#ffffff" d="M 56.433594 49.691406 C 56.433594 49.691406 55.949219 56.414062 58.226562 59.628906 C 55.8125 61.394531 51.679688 67.140625 51.796875 71.820312 C 50.882812 68.78125 52.191406 63.582031 55.796875 58.9375 C 55.429688 56.183594 55.796875 52.402344 56.433594 49.691406 Z M 91.671875 84.449219 C 92.964844 74.785156 95.171875 71.828125 95.171875 71.828125 C 91.539062 70.839844 91.339844 80.152344 91.671875 84.449219 Z M 54.386719 78.09375 C 54.386719 78.09375 58.832031 82.195312 61.558594 82.628906 C 60.457031 84.027344 58.226562 90.804688 58.226562 90.804688 L 56.246094 90.804688 L 58.832031 83.207031 C 58.832031 83.207031 54.488281 81.039062 54.386719 78.09375 Z M 54.386719 78.09375 " fill-opacity="1" fill-rule="nonzero"/></g><g clip-path="url(#298e6fcadf)"><path fill="#2b0806" d="M 105 90.804688 C 104.386719 90.804688 103.585938 90.804688 103.585938 90.804688 C 103.574219 88.453125 103.984375 76.308594 102.761719 72.214844 C 102.113281 70.050781 100.097656 71.085938 99.824219 72.886719 C 99.640625 71.984375 99.433594 71.007812 98.515625 71.105469 C 97.382812 71.222656 96.917969 73.242188 96.917969 73.242188 C 96.917969 73.242188 96.007812 71.773438 95.171875 71.828125 C 93.859375 71.914062 92.992188 73.863281 92.359375 78.007812 C 92.007812 80.339844 91.09375 90.804688 91.09375 90.804688 L 89.917969 90.804688 C 89.917969 90.804688 90.566406 83.59375 90.773438 82.027344 L 90.777344 81.984375 L 90.945312 80.765625 C 91.324219 78.089844 91.746094 75.660156 92.152344 74.125 C 93.207031 70.125 95.605469 69.707031 96.6875 71.625 C 97.242188 69.566406 99.648438 69.222656 99.902344 71.035156 C 99.980469 70.65625 100.355469 70.199219 100.882812 70.011719 C 100.671875 66.921875 99.332031 63.199219 96.101562 58.742188 C 96.808594 57.246094 97.5625 50.207031 94.59375 44.023438 C 93.09375 44.027344 88.066406 45.261719 83.214844 50.578125 C 84.039062 50.867188 84.816406 51.21875 85.464844 51.648438 C 85.261719 51.65625 80.832031 50.390625 76.402344 50.390625 C 71.96875 50.390625 67.539062 51.65625 67.335938 51.648438 C 67.988281 51.21875 68.761719 50.867188 69.585938 50.578125 C 64.734375 45.261719 59.707031 44.027344 58.207031 44.023438 C 55.242188 50.207031 55.996094 57.246094 56.703125 58.742188 C 44.996094 74.886719 58.089844 81.425781 59.957031 82.894531 C 58.902344 85.0625 56.964844 90.804688 56.964844 90.804688 L 55.664062 90.804688 C 55.664062 90.804688 56.921875 86.804688 58.453125 83.234375 C 46.765625 76.308594 50.546875 64.96875 55.335938 58.9375 C 53.898438 50.394531 56.867188 43.058594 58.015625 42.867188 C 65.628906 44.332031 69.519531 48.90625 70.539062 50.28125 C 71.90625 49.894531 74.152344 49.328125 76.402344 49.328125 C 78.644531 49.328125 80.890625 49.890625 82.261719 50.28125 C 83.28125 48.90625 87.171875 44.332031 94.785156 42.867188 C 95.933594 43.058594 98.902344 50.394531 97.464844 58.9375 C 99.738281 61.796875 101.78125 65.855469 102.054688 70.070312 C 102.449219 70.246094 102.863281 70.589844 103.273438 71.175781 C 104.035156 72.273438 104.148438 73.6875 104.507812 76.535156 C 104.839844 79.167969 105 89.25 105 90.804688 Z M 93.925781 46.246094 C 93.925781 46.246094 91.742188 49.359375 90.136719 52.675781 C 91.214844 53.386719 93.425781 55.703125 94.332031 57.054688 C 94.757812 56.28125 92.546875 53.007812 91.421875 52.375 C 92.59375 51.117188 93.925781 46.246094 93.925781 46.246094 Z M 58.6875 46.246094 C 58.6875 46.246094 60.871094 49.359375 62.472656 52.675781 C 61.398438 53.386719 59.183594 55.703125 58.28125 57.054688 C 57.855469 56.28125 60.066406 53.007812 61.191406 52.375 C 60.019531 51.117188 58.6875 46.246094 58.6875 46.246094 Z M 64.777344 61.839844 C 62.339844 62.417969 60.6875 64.871094 60.1875 66.902344 C 60.109375 67.210938 60.273438 67.457031 60.617188 67.542969 C 61.167969 67.683594 62.175781 67.398438 62.324219 66.800781 C 62.515625 66.019531 62.84375 65.3125 63.300781 64.695312 C 63.644531 64.230469 64.3125 63.425781 64.945312 63.269531 C 65.453125 63.140625 65.941406 63.976562 66.199219 64.425781 L 66.261719 64.53125 C 66.710938 65.292969 67.070312 66.175781 67.335938 67.152344 C 67.429688 67.496094 67.761719 67.628906 68.132812 67.628906 C 68.285156 67.628906 68.449219 67.605469 68.601562 67.566406 C 69.21875 67.394531 69.574219 66.988281 69.464844 66.574219 C 68.488281 62.980469 66.867188 61.34375 64.777344 61.839844 Z M 92.425781 66.574219 C 91.449219 62.980469 89.828125 61.34375 87.738281 61.839844 C 85.300781 62.417969 83.652344 64.871094 83.148438 66.902344 C 83.101562 67.089844 83.144531 67.261719 83.269531 67.382812 C 83.535156 67.640625 84.058594 67.605469 84.429688 67.5 C 84.890625 67.367188 85.210938 67.105469 85.285156 66.800781 C 85.480469 66.019531 85.808594 65.3125 86.261719 64.695312 C 86.605469 64.230469 87.277344 63.425781 87.90625 63.269531 C 88.417969 63.140625 88.902344 63.976562 89.164062 64.425781 L 89.222656 64.53125 C 89.671875 65.292969 90.03125 66.175781 90.296875 67.152344 C 90.355469 67.371094 90.527344 67.527344 90.78125 67.59375 C 90.878906 67.621094 90.984375 67.632812 91.09375 67.632812 C 91.507812 67.632812 91.976562 67.460938 92.234375 67.199219 C 92.417969 67.011719 92.484375 66.792969 92.425781 66.574219 Z M 79.839844 67.660156 C 79.582031 67.796875 79.457031 68.242188 79.710938 68.722656 C 79.859375 69 79.699219 69.289062 79.59375 69.433594 C 79.316406 69.816406 78.8125 70.050781 78.429688 69.980469 C 77.765625 69.851562 77.367188 69.066406 77.09375 68.398438 C 76.964844 68.082031 76.695312 67.890625 76.390625 67.890625 C 76.089844 67.890625 75.820312 68.082031 75.691406 68.398438 C 75.46875 68.945312 75.046875 69.972656 74.355469 70.101562 C 74.0625 70.15625 73.695312 70.015625 73.402344 69.730469 C 72.96875 69.289062 73.097656 68.714844 73.144531 68.5625 C 73.148438 68.546875 73.152344 68.535156 73.15625 68.519531 L 73.257812 68.25 L 73.207031 68.25 C 73.222656 67.964844 73.109375 67.722656 72.90625 67.640625 C 72.734375 67.570312 72.480469 67.625 72.289062 67.988281 C 71.929688 68.664062 71.910156 69.472656 72.234375 70.144531 C 72.535156 70.765625 73.105469 71.195312 73.792969 71.316406 C 74.777344 71.496094 75.671875 71.074219 76.390625 70.101562 C 77.003906 70.929688 77.742188 71.355469 78.558594 71.355469 C 78.703125 71.355469 78.847656 71.34375 78.992188 71.316406 C 79.679688 71.195312 80.25 70.765625 80.550781 70.144531 C 80.875 69.472656 80.855469 68.664062 80.496094 67.988281 C 80.289062 67.597656 80.011719 67.566406 79.839844 67.660156 Z M 79.839844 67.660156 " fill-opacity="1" fill-rule="nonzero"/></g><path fill="#ef5454" d="M 98.28125 77.382812 C 97.921875 76.980469 96.492188 75.878906 95.570312 77.671875 C 94.648438 79.46875 97.160156 81.261719 98.28125 81.261719 C 99.398438 81.261719 101.910156 79.46875 100.988281 77.671875 C 100.070312 75.878906 98.636719 76.980469 98.28125 77.382812 Z M 99.160156 74.359375 C 99.160156 73.8125 98.847656 73.367188 98.464844 73.367188 C 98.078125 73.367188 97.769531 73.8125 97.769531 74.359375 C 97.769531 74.90625 98.078125 75.351562 98.464844 75.351562 C 98.847656 75.351562 99.160156 74.90625 99.160156 74.359375 Z M 101.3125 73.964844 C 100.921875 73.90625 100.535156 74.269531 100.441406 74.78125 C 100.351562 75.289062 100.59375 75.753906 100.980469 75.8125 C 101.371094 75.871094 101.761719 75.507812 101.851562 74.996094 C 101.941406 74.484375 101.703125 74.023438 101.3125 73.964844 Z M 95.699219 75.863281 C 96.089844 75.746094 96.265625 75.242188 96.089844 74.730469 C 95.910156 74.222656 95.445312 73.902344 95.054688 74.015625 C 94.660156 74.132812 94.484375 74.636719 94.664062 75.148438 C 94.839844 75.65625 95.304688 75.976562 95.699219 75.863281 Z M 95.699219 75.863281 " fill-opacity="1" fill-rule="nonzero"/><g fill="#000000" fill-opacity="1"><g transform="translate(16.371094, 102.562496)"><g><path d="M 10.480469 -10.007812 C 10.371094 -10.539062 9.992188 -10.917969 9.503906 -10.972656 C 8.972656 -11.042969 8.496094 -10.75 8.300781 -10.257812 C 8.144531 -9.867188 8.046875 -9.445312 8.03125 -9.054688 C 7.976562 -7.976562 7.949219 -6.886719 7.921875 -5.820312 C 7.90625 -5.386719 7.894531 -4.953125 7.878906 -4.519531 C 7.878906 -4.410156 7.863281 -4.296875 7.863281 -4.183594 L 7.851562 -3.933594 L 7.488281 -3.792969 L 6.800781 -4.6875 C 6.339844 -5.277344 5.890625 -5.851562 5.445312 -6.4375 C 5.191406 -6.773438 4.941406 -7.125 4.675781 -7.460938 C 4.226562 -8.0625 3.765625 -8.675781 3.289062 -9.265625 C 3.09375 -9.53125 2.828125 -9.753906 2.53125 -9.921875 C 2.335938 -10.035156 2.113281 -10.105469 1.902344 -10.105469 C 1.777344 -10.105469 1.652344 -10.078125 1.527344 -10.035156 C 1.191406 -9.921875 0.921875 -9.65625 0.769531 -9.292969 C 0.6875 -9.070312 0.628906 -8.859375 0.617188 -8.664062 C 0.417969 -6.410156 0.488281 -4.003906 0.839844 -1.089844 C 0.867188 -0.882812 0.953125 -0.644531 1.089844 -0.417969 C 1.246094 -0.167969 1.484375 -0.0273438 1.707031 -0.0429688 C 1.945312 -0.0546875 2.15625 -0.222656 2.296875 -0.488281 C 2.394531 -0.699219 2.464844 -0.9375 2.464844 -1.132812 C 2.519531 -2.308594 2.5625 -3.5 2.601562 -4.644531 L 2.632812 -5.570312 C 2.644531 -5.667969 2.632812 -5.78125 2.632812 -5.878906 L 2.632812 -6.339844 L 2.882812 -6.15625 C 3.078125 -6.003906 3.203125 -5.835938 3.304688 -5.683594 L 3.371094 -5.597656 C 3.570312 -5.316406 3.765625 -5.023438 3.972656 -4.746094 C 4.449219 -4.058594 4.953125 -3.34375 5.5 -2.714844 C 5.960938 -2.167969 6.675781 -1.398438 7.515625 -0.921875 C 8.328125 -0.460938 9.027344 -0.363281 9.542969 -0.644531 C 10.0625 -0.9375 10.355469 -1.609375 10.398438 -2.5625 C 10.46875 -4.367188 10.496094 -6.199219 10.539062 -7.976562 L 10.550781 -9.125 C 10.566406 -9.433594 10.539062 -9.726562 10.480469 -10.007812 Z M 10.480469 -10.007812 "/></g></g></g><g fill="#000000" fill-opacity="1"><g transform="translate(27.466896, 102.562496)"><g><path d="M 4.925781 -6.5625 C 4.605469 -6.605469 4.28125 -6.660156 3.960938 -6.746094 C 3.386719 -6.914062 2.839844 -6.84375 2.335938 -6.535156 C 1.175781 -5.835938 0.433594 -4.828125 0.238281 -3.472656 C 0.0703125 -2.308594 0.585938 -1.398438 1.695312 -1.023438 C 2.253906 -0.824219 2.839844 -0.753906 3.414062 -0.628906 C 4.28125 -0.617188 4.996094 -0.894531 5.597656 -1.484375 C 6.324219 -2.183594 6.703125 -3.066406 6.84375 -4.058594 C 7.011719 -5.316406 6.199219 -6.382812 4.925781 -6.5625 Z M 4.519531 -3.875 C 4.253906 -3.105469 3.988281 -2.855469 3.441406 -2.882812 C 2.351562 -2.9375 2.183594 -3.246094 2.730469 -4.210938 C 2.769531 -4.28125 2.8125 -4.351562 2.855469 -4.421875 C 3.386719 -5.207031 3.5 -5.207031 4.269531 -4.675781 C 4.578125 -4.449219 4.644531 -4.226562 4.519531 -3.875 Z M 4.519531 -3.875 "/></g></g></g><g fill="#000000" fill-opacity="1"><g transform="translate(34.672874, 102.562496)"><g><path d="M 5.835938 -2.421875 C 5.667969 -2.855469 5.304688 -2.996094 4.871094 -2.953125 C 4.644531 -2.9375 4.421875 -2.882812 4.210938 -2.855469 C 3.863281 -2.8125 3.582031 -2.953125 3.527344 -3.304688 C 3.429688 -3.863281 3.386719 -4.421875 3.316406 -4.996094 C 3.820312 -4.996094 4.210938 -4.96875 4.589844 -4.996094 C 5.109375 -5.039062 5.5 -5.429688 5.542969 -5.90625 C 5.585938 -6.382812 5.261719 -6.828125 4.746094 -6.957031 C 4.421875 -7.039062 4.085938 -7.066406 3.765625 -7.066406 C 3.472656 -7.082031 3.371094 -7.195312 3.371094 -7.488281 C 3.371094 -7.878906 3.359375 -8.285156 3.304688 -8.675781 C 3.234375 -9.25 2.96875 -9.53125 2.589844 -9.542969 C 2.195312 -9.542969 1.945312 -9.265625 1.832031 -8.691406 C 1.777344 -8.367188 1.707031 -8.03125 1.695312 -7.710938 C 1.664062 -7.332031 1.496094 -7.179688 1.160156 -7.039062 C 0.894531 -6.925781 0.628906 -6.621094 0.546875 -6.355469 C 0.417969 -5.976562 0.699219 -5.683594 1.050781 -5.542969 C 1.328125 -5.429688 1.386719 -5.261719 1.386719 -4.996094 C 1.386719 -4.421875 1.414062 -3.847656 1.46875 -3.273438 C 1.554688 -2.464844 1.929688 -1.804688 2.589844 -1.300781 C 3.402344 -0.6875 4.828125 -0.699219 5.527344 -1.359375 C 5.835938 -1.652344 6.003906 -2 5.835938 -2.421875 Z M 5.835938 -2.421875 "/></g></g></g><g fill="#000000" fill-opacity="1"><g transform="translate(41.109282, 102.562496)"><g/></g></g><g fill="#000000" fill-opacity="1"><g transform="translate(45.125037, 102.562496)"><g><path d="M 2.589844 -5.976562 C 2.574219 -6.367188 2.363281 -6.675781 1.945312 -6.730469 C 1.511719 -6.789062 1.191406 -6.535156 1.121094 -6.144531 C 0.882812 -4.785156 0.644531 -3.402344 0.519531 -2.027344 C 0.449219 -1.300781 0.894531 -0.839844 1.398438 -0.796875 C 1.917969 -0.753906 2.335938 -1.191406 2.476562 -1.929688 C 2.519531 -2.210938 2.546875 -2.503906 2.5625 -2.785156 C 2.574219 -3.203125 2.617188 -5.332031 2.589844 -5.976562 Z M 1.554688 -7.933594 C 2.015625 -7.921875 2.433594 -8.339844 2.449219 -8.859375 C 2.449219 -9.335938 2.085938 -9.710938 1.609375 -9.699219 C 1.132812 -9.699219 0.742188 -9.320312 0.742188 -8.832031 C 0.742188 -8.339844 1.089844 -7.949219 1.554688 -7.933594 Z M 1.554688 -7.933594 "/></g></g></g><g fill="#000000" fill-opacity="1"><g transform="translate(48.259287, 102.562496)"><g><path d="M 6.453125 -6.046875 C 5.667969 -7.09375 4.449219 -7.261719 3.386719 -6.507812 C 3.078125 -6.285156 2.800781 -6.019531 2.476562 -5.738281 C 2.421875 -5.851562 2.394531 -5.917969 2.363281 -6.003906 C 2.238281 -6.4375 2.042969 -6.84375 1.511719 -6.828125 C 0.953125 -6.800781 0.785156 -6.339844 0.742188 -5.890625 C 0.644531 -4.605469 0.546875 -3.316406 0.519531 -2.027344 C 0.488281 -1.316406 0.964844 -0.824219 1.582031 -0.753906 C 2.195312 -0.6875 2.730469 -1.078125 2.898438 -1.792969 C 3.121094 -2.785156 3.667969 -3.609375 4.28125 -4.394531 C 4.378906 -4.519531 4.519531 -4.605469 4.714844 -4.785156 C 4.785156 -4.421875 4.828125 -4.183594 4.855469 -3.933594 C 4.953125 -3.273438 4.996094 -2.589844 5.164062 -1.929688 C 5.304688 -1.371094 5.78125 -1.089844 6.269531 -1.105469 C 6.71875 -1.132812 7.152344 -1.46875 7.234375 -2.027344 C 7.460938 -3.457031 7.332031 -4.84375 6.453125 -6.046875 Z M 6.453125 -6.046875 "/></g></g></g><g fill="#000000" fill-opacity="1"><g transform="translate(56.1229, 102.562496)"><g/></g></g><g fill="#000000" fill-opacity="1"><g transform="translate(60.138654, 102.562496)"><g><path d="M 7.195312 -2.800781 C 6.984375 -3.765625 6.828125 -4.757812 6.621094 -5.738281 C 6.550781 -6.046875 6.464844 -6.453125 6.242188 -6.632812 C 5.570312 -7.152344 4.828125 -7.597656 3.890625 -7.445312 C 2.253906 -7.152344 0.65625 -5.359375 0.519531 -3.609375 C 0.390625 -2 1.679688 -0.882812 3.273438 -1.257812 C 3.695312 -1.371094 4.085938 -1.609375 4.476562 -1.804688 C 4.617188 -1.875 4.730469 -1.988281 4.871094 -2.085938 C 4.941406 -1.988281 4.996094 -1.929688 5.039062 -1.863281 C 5.5 -1.160156 6.101562 -0.894531 6.660156 -1.132812 C 7.207031 -1.371094 7.375 -1.960938 7.195312 -2.800781 Z M 3.136719 -3.289062 C 2.980469 -3.234375 2.757812 -3.21875 2.617188 -3.289062 C 2.53125 -3.332031 2.53125 -3.625 2.589844 -3.765625 C 2.898438 -4.632812 3.386719 -5.332031 4.324219 -5.722656 C 4.492188 -4.644531 3.988281 -3.625 3.136719 -3.289062 Z M 3.136719 -3.289062 "/></g></g></g><g fill="#000000" fill-opacity="1"><g transform="translate(67.932309, 102.562496)"><g/></g></g><g fill="#000000" fill-opacity="1"><g transform="translate(71.948064, 102.562496)"><g><path d="M 4.140625 -2.644531 C 3.863281 -2.644531 3.597656 -2.617188 3.332031 -2.660156 C 2.828125 -2.730469 2.519531 -3.066406 2.53125 -3.570312 C 2.546875 -4.476562 2.839844 -5.289062 3.582031 -5.878906 C 4.113281 -6.285156 4.367188 -6.101562 4.746094 -5.554688 C 4.84375 -5.417969 5.050781 -5.277344 5.277344 -5.386719 C 5.402344 -5.457031 5.542969 -5.375 5.695312 -5.738281 C 5.960938 -6.339844 5.554688 -7.09375 4.96875 -7.460938 C 4.351562 -7.851562 3.707031 -7.824219 3.050781 -7.542969 C 1.496094 -6.859375 0.460938 -5.179688 0.519531 -3.386719 C 0.546875 -2.085938 1.398438 -1.035156 2.671875 -0.753906 C 4.015625 -0.460938 5.148438 -0.964844 6.171875 -1.761719 C 6.324219 -1.890625 6.421875 -2.226562 6.367188 -2.421875 C 6.324219 -2.574219 6.003906 -2.714844 5.808594 -2.714844 C 5.25 -2.730469 4.6875 -2.671875 4.140625 -2.632812 C 4.140625 -2.644531 4.140625 -2.644531 4.140625 -2.644531 Z M 4.140625 -2.644531 "/></g></g></g><g fill="#000000" fill-opacity="1"><g transform="translate(78.874199, 102.562496)"><g><path d="M 7.234375 -3.609375 C 7.109375 -4.296875 6.957031 -5.011719 6.660156 -5.652344 C 6.003906 -7.164062 4.855469 -7.5 3.414062 -6.71875 C 3.386719 -6.703125 3.359375 -6.703125 3.246094 -6.675781 C 3.191406 -6.957031 3.136719 -7.195312 3.078125 -7.445312 C 2.867188 -8.480469 2.671875 -9.53125 2.433594 -10.566406 C 2.308594 -11.113281 1.945312 -11.40625 1.527344 -11.40625 C 1.089844 -11.390625 0.726562 -11.054688 0.628906 -10.496094 C 0.558594 -10.160156 0.488281 -9.796875 0.519531 -9.460938 C 0.617188 -7.640625 0.714844 -5.808594 0.867188 -3.988281 C 0.921875 -3.261719 1.089844 -2.519531 1.273438 -1.804688 C 1.398438 -1.34375 1.761719 -1.0625 2.265625 -1.050781 C 2.800781 -1.035156 3.164062 -1.328125 3.304688 -1.804688 C 3.472656 -2.335938 3.582031 -2.882812 3.652344 -3.429688 C 3.765625 -4.171875 4.113281 -4.757812 4.730469 -5.304688 C 4.84375 -5.011719 4.96875 -4.800781 4.996094 -4.589844 C 5.082031 -4.085938 5.109375 -3.570312 5.191406 -3.078125 C 5.25 -2.699219 5.289062 -2.308594 5.429688 -1.960938 C 5.652344 -1.371094 6.285156 -1.300781 6.675781 -1.792969 C 7.09375 -2.324219 7.347656 -2.9375 7.234375 -3.609375 Z M 7.234375 -3.609375 "/></g></g></g><g fill="#000000" fill-opacity="1"><g transform="translate(86.667854, 102.562496)"><g><path d="M 7.195312 -2.800781 C 6.984375 -3.765625 6.828125 -4.757812 6.621094 -5.738281 C 6.550781 -6.046875 6.464844 -6.453125 6.242188 -6.632812 C 5.570312 -7.152344 4.828125 -7.597656 3.890625 -7.445312 C 2.253906 -7.152344 0.65625 -5.359375 0.519531 -3.609375 C 0.390625 -2 1.679688 -0.882812 3.273438 -1.257812 C 3.695312 -1.371094 4.085938 -1.609375 4.476562 -1.804688 C 4.617188 -1.875 4.730469 -1.988281 4.871094 -2.085938 C 4.941406 -1.988281 4.996094 -1.929688 5.039062 -1.863281 C 5.5 -1.160156 6.101562 -0.894531 6.660156 -1.132812 C 7.207031 -1.371094 7.375 -1.960938 7.195312 -2.800781 Z M 3.136719 -3.289062 C 2.980469 -3.234375 2.757812 -3.21875 2.617188 -3.289062 C 2.53125 -3.332031 2.53125 -3.625 2.589844 -3.765625 C 2.898438 -4.632812 3.386719 -5.332031 4.324219 -5.722656 C 4.492188 -4.644531 3.988281 -3.625 3.136719 -3.289062 Z M 3.136719 -3.289062 "/></g></g></g><g fill="#000000" fill-opacity="1"><g transform="translate(94.461509, 102.562496)"><g><path d="M 5.835938 -2.421875 C 5.667969 -2.855469 5.304688 -2.996094 4.871094 -2.953125 C 4.644531 -2.9375 4.421875 -2.882812 4.210938 -2.855469 C 3.863281 -2.8125 3.582031 -2.953125 3.527344 -3.304688 C 3.429688 -3.863281 3.386719 -4.421875 3.316406 -4.996094 C 3.820312 -4.996094 4.210938 -4.96875 4.589844 -4.996094 C 5.109375 -5.039062 5.5 -5.429688 5.542969 -5.90625 C 5.585938 -6.382812 5.261719 -6.828125 4.746094 -6.957031 C 4.421875 -7.039062 4.085938 -7.066406 3.765625 -7.066406 C 3.472656 -7.082031 3.371094 -7.195312 3.371094 -7.488281 C 3.371094 -7.878906 3.359375 -8.285156 3.304688 -8.675781 C 3.234375 -9.25 2.96875 -9.53125 2.589844 -9.542969 C 2.195312 -9.542969 1.945312 -9.265625 1.832031 -8.691406 C 1.777344 -8.367188 1.707031 -8.03125 1.695312 -7.710938 C 1.664062 -7.332031 1.496094 -7.179688 1.160156 -7.039062 C 0.894531 -6.925781 0.628906 -6.621094 0.546875 -6.355469 C 0.417969 -5.976562 0.699219 -5.683594 1.050781 -5.542969 C 1.328125 -5.429688 1.386719 -5.261719 1.386719 -4.996094 C 1.386719 -4.421875 1.414062 -3.847656 1.46875 -3.273438 C 1.554688 -2.464844 1.929688 -1.804688 2.589844 -1.300781 C 3.402344 -0.6875 4.828125 -0.699219 5.527344 -1.359375 C 5.835938 -1.652344 6.003906 -2 5.835938 -2.421875 Z M 5.835938 -2.421875 "/></g></g></g><g fill="#000000" fill-opacity="1"><g transform="translate(100.897918, 102.562496)"><g><path d="M 6.269531 -5.554688 C 6.101562 -6.15625 5.667969 -6.578125 5.109375 -6.871094 C 4.210938 -7.320312 3.332031 -7.292969 2.449219 -6.816406 C 2.324219 -7.109375 2.28125 -7.417969 2.097656 -7.613281 C 1.902344 -7.824219 1.582031 -8.046875 1.328125 -8.019531 C 1.089844 -8.003906 0.839844 -7.695312 0.65625 -7.472656 C 0.558594 -7.363281 0.558594 -7.136719 0.558594 -6.96875 C 0.53125 -5.304688 0.519531 -3.625 0.519531 -1.960938 C 0.503906 -1.792969 0.546875 -1.609375 0.585938 -1.441406 C 0.742188 -0.769531 1.273438 -0.351562 1.929688 -0.390625 C 2.5625 -0.433594 3.066406 -0.921875 3.136719 -1.59375 C 3.164062 -1.917969 3.066406 -2.253906 3.136719 -2.546875 C 3.289062 -3.21875 3.484375 -3.890625 3.707031 -4.535156 C 3.835938 -4.898438 4.128906 -4.96875 4.492188 -4.800781 C 4.757812 -4.660156 5.039062 -4.492188 5.332031 -4.476562 C 5.597656 -4.449219 5.988281 -4.507812 6.144531 -4.6875 C 6.296875 -4.882812 6.355469 -5.289062 6.269531 -5.554688 Z M 6.269531 -5.554688 "/></g></g></g><g fill="#000000" fill-opacity="1"><g transform="translate(107.7401, 102.562496)"><g><path d="M 4.925781 -6.5625 C 4.605469 -6.605469 4.28125 -6.660156 3.960938 -6.746094 C 3.386719 -6.914062 2.839844 -6.84375 2.335938 -6.535156 C 1.175781 -5.835938 0.433594 -4.828125 0.238281 -3.472656 C 0.0703125 -2.308594 0.585938 -1.398438 1.695312 -1.023438 C 2.253906 -0.824219 2.839844 -0.753906 3.414062 -0.628906 C 4.28125 -0.617188 4.996094 -0.894531 5.597656 -1.484375 C 6.324219 -2.183594 6.703125 -3.066406 6.84375 -4.058594 C 7.011719 -5.316406 6.199219 -6.382812 4.925781 -6.5625 Z M 4.519531 -3.875 C 4.253906 -3.105469 3.988281 -2.855469 3.441406 -2.882812 C 2.351562 -2.9375 2.183594 -3.246094 2.730469 -4.210938 C 2.769531 -4.28125 2.8125 -4.351562 2.855469 -4.421875 C 3.386719 -5.207031 3.5 -5.207031 4.269531 -4.675781 C 4.578125 -4.449219 4.644531 -4.226562 4.519531 -3.875 Z M 4.519531 -3.875 "/></g></g></g><g fill="#000000" fill-opacity="1"><g transform="translate(114.946078, 102.562496)"><g><path d="M 4.925781 -6.5625 C 4.605469 -6.605469 4.28125 -6.660156 3.960938 -6.746094 C 3.386719 -6.914062 2.839844 -6.84375 2.335938 -6.535156 C 1.175781 -5.835938 0.433594 -4.828125 0.238281 -3.472656 C 0.0703125 -2.308594 0.585938 -1.398438 1.695312 -1.023438 C 2.253906 -0.824219 2.839844 -0.753906 3.414062 -0.628906 C 4.28125 -0.617188 4.996094 -0.894531 5.597656 -1.484375 C 6.324219 -2.183594 6.703125 -3.066406 6.84375 -4.058594 C 7.011719 -5.316406 6.199219 -6.382812 4.925781 -6.5625 Z M 4.519531 -3.875 C 4.253906 -3.105469 3.988281 -2.855469 3.441406 -2.882812 C 2.351562 -2.9375 2.183594 -3.246094 2.730469 -4.210938 C 2.769531 -4.28125 2.8125 -4.351562 2.855469 -4.421875 C 3.386719 -5.207031 3.5 -5.207031 4.269531 -4.675781 C 4.578125 -4.449219 4.644531 -4.226562 4.519531 -3.875 Z M 4.519531 -3.875 "/></g></g></g><g fill="#000000" fill-opacity="1"><g transform="translate(122.152056, 102.562496)"><g><path d="M 10.886719 -3.105469 C 10.777344 -4.101562 10.679688 -5.109375 10.089844 -5.976562 C 9.277344 -7.195312 7.933594 -7.347656 6.886719 -6.324219 C 6.746094 -6.199219 6.648438 -6.019531 6.523438 -5.851562 C 5.21875 -7.347656 4.855469 -7.347656 2.882812 -5.949219 C 2.828125 -6.1875 2.828125 -6.453125 2.714844 -6.632812 C 2.5625 -6.871094 2.324219 -7.152344 2.085938 -7.179688 C 1.847656 -7.222656 1.527344 -7.027344 1.316406 -6.84375 C 1.160156 -6.71875 1.0625 -6.464844 1.035156 -6.253906 C 0.855469 -4.941406 0.671875 -3.609375 0.519531 -2.296875 C 0.488281 -2.085938 0.558594 -1.847656 0.628906 -1.636719 C 0.8125 -1.105469 1.246094 -0.769531 1.75 -0.742188 C 2.28125 -0.714844 2.730469 -1.007812 2.96875 -1.566406 C 3.050781 -1.777344 3.09375 -2 3.175781 -2.210938 C 3.429688 -2.925781 3.679688 -3.652344 3.988281 -4.339844 C 4.128906 -4.660156 4.421875 -4.914062 4.644531 -5.207031 C 4.714844 -5.179688 4.785156 -5.148438 4.855469 -5.136719 C 4.882812 -4.589844 4.941406 -4.042969 4.941406 -3.5 C 4.941406 -2.96875 4.871094 -2.449219 4.882812 -1.929688 C 4.898438 -1.203125 5.375 -0.699219 6.003906 -0.6875 C 6.621094 -0.65625 7.109375 -1.105469 7.195312 -1.804688 C 7.234375 -2.070312 7.222656 -2.351562 7.25 -2.617188 C 7.292969 -3.316406 7.628906 -3.890625 8.03125 -4.4375 C 8.089844 -4.421875 8.132812 -4.410156 8.171875 -4.410156 C 8.199219 -4.101562 8.199219 -3.777344 8.257812 -3.472656 C 8.398438 -2.8125 8.496094 -2.128906 8.746094 -1.511719 C 8.941406 -1.007812 9.433594 -0.753906 10.007812 -0.855469 C 10.480469 -0.9375 10.847656 -1.359375 10.902344 -1.960938 C 10.945312 -2.335938 10.929688 -2.730469 10.886719 -3.105469 Z M 10.886719 -3.105469 "/></g></g></g></svg>