<svg xmlns="http://www.w3.org/2000/svg" xmlns:xlink="http://www.w3.org/1999/xlink" width="800" zoomAndPan="magnify" viewBox="0 0 600 599.999999" height="800" preserveAspectRatio="xMidYMid meet" version="1.0"><defs><g/><clipPath id="c377d7e7ac"><path d="M 182 120 L 417.996094 120 L 417.996094 360 L 182 360 Z M 182 120 " clip-rule="nonzero"/></clipPath></defs><g clip-path="url(#c377d7e7ac)"><path fill="#180303" d="M 417.507812 307.222656 C 416.679688 313.609375 412.929688 319.21875 408.203125 323.460938 C 403.429688 327.363281 398.074219 330.675781 392.179688 332.53125 C 386.578125 334.628906 380.585938 335.210938 374.738281 335.945312 C 371.136719 336.140625 367.480469 336.53125 363.925781 335.796875 C 358.566406 343.601562 349.945312 348.378906 341.226562 351.546875 C 336.988281 352.914062 332.847656 354.476562 328.609375 355.742188 C 322.328125 358.277344 315.507812 358.621094 308.832031 358.570312 C 304.691406 358.523438 300.359375 357.691406 296.898438 355.402344 C 294.851562 357.449219 291.636719 357.839844 288.910156 358.71875 C 284.671875 359.984375 280.191406 359.398438 276 358.425781 C 270.15625 357.449219 264.410156 355.984375 258.613281 354.71875 C 251.402344 353.546875 244.144531 351.9375 237.667969 348.523438 C 232.601562 345.695312 229.09375 340.871094 226.21875 335.945312 C 222.175781 328.972656 222.175781 320.632812 223.199219 312.925781 C 224.855469 298.347656 229.386719 284.15625 235.570312 270.890625 C 229.140625 269.136719 223.101562 265.871094 218.132812 261.382812 C 217.644531 260.847656 217.0625 260.261719 216.332031 259.675781 C 214.429688 257.773438 212.726562 255.679688 211.265625 253.433594 C 210.679688 252.410156 210.191406 251.335938 209.707031 250.214844 C 206.832031 252.847656 204.105469 256.3125 202.789062 260.75 C 202.449219 261.871094 201.425781 262.554688 200.351562 262.554688 C 200.109375 262.554688 199.867188 262.503906 199.621094 262.457031 C 198.257812 262.066406 197.527344 260.652344 197.917969 259.285156 C 199.816406 252.945312 203.859375 248.265625 207.902344 245 C 207.074219 241.925781 206.539062 238.757812 206.199219 235.734375 C 199.914062 237.390625 191.878906 240.851562 186.714844 248.167969 C 186.226562 248.898438 185.449219 249.242188 184.621094 249.242188 C 184.132812 249.242188 183.597656 249.09375 183.15625 248.800781 C 181.988281 247.972656 181.746094 246.414062 182.523438 245.242188 C 188.808594 236.222656 198.550781 232.269531 205.761719 230.515625 C 205.613281 227.929688 205.613281 225.589844 205.664062 223.589844 C 199.671875 223.738281 192.558594 225.101562 186.566406 229.734375 C 186.082031 230.078125 185.546875 230.269531 185.007812 230.269531 C 184.230469 230.269531 183.5 229.929688 183.011719 229.296875 C 182.136719 228.175781 182.378906 226.566406 183.449219 225.738281 C 190.660156 220.175781 199.039062 218.617188 205.953125 218.519531 C 206.003906 218.179688 206.003906 218.03125 206.003906 218.03125 C 207.171875 211.449219 208.828125 204.914062 211.167969 198.625 C 209.804688 195.40625 209.753906 191.894531 209.414062 188.480469 C 209.074219 183.605469 208.683594 178.777344 208.292969 173.898438 C 207.953125 164.632812 206.296875 155.125 208.925781 146.054688 C 210.484375 139.863281 216.183594 135.328125 222.46875 134.691406 C 231.480469 133.71875 240.246094 137.132812 248.285156 140.835938 C 252.375 142.835938 256.078125 145.617188 259.539062 148.492188 C 259.925781 149.078125 260.609375 148.542969 261.046875 148.347656 C 269.914062 143.714844 297.824219 131.816406 302.597656 131.621094 C 304.496094 131.570312 306.347656 132.984375 306.398438 134.9375 C 306.789062 138.105469 304.15625 140.449219 302.304688 142.691406 C 304.9375 143.375 307.761719 143.859375 310.441406 143.46875 C 322.035156 136.105469 333.285156 128.011719 346 122.550781 C 350.140625 121.136719 354.671875 120.015625 359.054688 120.992188 C 363.730469 122.0625 365.875 126.890625 367.285156 130.9375 C 369.429688 139.128906 370.890625 147.519531 371.039062 156.003906 C 371.816406 164.632812 370.988281 173.265625 371.574219 181.898438 C 371.574219 186.578125 373.375 191.015625 374.058594 195.648438 C 374.738281 199.648438 376.394531 203.402344 376.933594 207.449219 C 377.125 208.570312 377.613281 211.691406 378.101562 215.738281 C 384.578125 215.398438 392.226562 216.324219 399.289062 220.617188 C 400.507812 221.347656 400.847656 222.90625 400.117188 224.128906 C 399.632812 224.90625 398.804688 225.347656 397.925781 225.347656 C 397.488281 225.347656 397 225.25 396.609375 224.957031 C 390.765625 221.394531 384.238281 220.566406 378.636719 220.8125 C 378.878906 223.152344 379.074219 225.589844 379.171875 228.027344 C 386.332031 229.199219 395.539062 232.222656 402.261719 239.925781 C 403.1875 241 403.089844 242.609375 402.019531 243.535156 C 401.53125 243.972656 400.945312 244.167969 400.363281 244.167969 C 399.632812 244.167969 398.949219 243.875 398.460938 243.292969 C 393.054688 237.097656 385.503906 234.417969 379.320312 233.292969 C 379.320312 237.097656 379.074219 240.609375 378.441406 243.339844 C 382.386719 246.121094 386.234375 250.070312 388.574219 255.53125 C 389.109375 256.847656 388.523438 258.3125 387.210938 258.894531 C 386.867188 259.042969 386.527344 259.089844 386.234375 259.089844 C 385.261719 259.089844 384.289062 258.507812 383.898438 257.53125 C 382.191406 253.433594 379.269531 250.3125 376.25 248.070312 C 374.886719 249.921875 373.375 251.679688 371.816406 253.386719 C 365.726562 259.089844 358.179688 262.945312 350.628906 266.164062 C 351.652344 267.136719 352.285156 268.355469 352.867188 269.625 C 357.59375 280.058594 360.710938 291.179688 363.632812 302.246094 C 364.414062 305.320312 365.535156 308.390625 365.824219 311.5625 C 369.234375 309.757812 372.984375 308.539062 376.445312 306.832031 C 374.449219 303.613281 374.449219 299.613281 375.226562 296.054688 C 376.738281 289.421875 381.265625 283.71875 387.0625 280.304688 C 392.128906 277.671875 398.167969 277.71875 403.480469 279.574219 C 412.296875 282.15625 417.703125 291.472656 417.65625 300.394531 C 417.65625 302.539062 417.996094 304.929688 417.507812 307.222656 Z M 417.507812 307.222656 " fill-opacity="1" fill-rule="nonzero"/></g><path fill="#e08989" d="M 338.839844 145.761719 C 337.132812 147.664062 335.285156 149.421875 333.773438 151.515625 C 347.363281 156.539062 359.394531 166.242188 366.214844 179.167969 C 365.875 177.507812 366.652344 175.800781 366.652344 174.144531 C 367.382812 170.144531 366.800781 166.097656 366.898438 162.097656 C 366.410156 152.882812 365.875 143.617188 363.78125 134.59375 C 354.816406 132.058594 343.078125 141.714844 338.839844 145.761719 Z M 213.652344 159.171875 C 214.527344 169.949219 215.113281 180.726562 215.890625 191.453125 C 217.9375 186.96875 221.054688 182.824219 224.125 178.875 C 228.605469 173.703125 232.84375 168.292969 237.859375 163.609375 C 230.601562 157.367188 222.90625 151.320312 213.992188 147.617188 C 213.40625 151.417969 213.457031 155.320312 213.652344 159.171875 Z M 213.652344 159.171875 " fill-opacity="1" fill-rule="nonzero"/><path fill="#f6e5cb" d="M 389.644531 327.410156 C 389.597656 319.949219 385.117188 313.316406 379.417969 308.832031 C 378.003906 310.292969 376.105469 310.878906 374.15625 311.316406 C 376.640625 314.632812 379.074219 318.097656 380.097656 322.144531 C 380.878906 324.4375 381.265625 327.117188 380.148438 329.410156 C 383.460938 329.410156 386.527344 328.09375 389.644531 327.410156 Z M 406.257812 287.324219 C 403.722656 284.839844 399.921875 285.035156 396.609375 284.644531 C 390.132812 284.011719 383.996094 287.960938 380.585938 293.273438 C 378.636719 296.054688 377.710938 299.957031 379.222656 303.125 C 383.167969 301.90625 387.0625 298.980469 391.449219 300.003906 C 399.386719 301.46875 406.351562 307.855469 408.058594 315.851562 C 409.664062 312 412.003906 308.195312 412.050781 303.855469 C 412.492188 297.957031 411.273438 291.128906 406.257812 287.324219 Z M 368.601562 232.464844 C 367.191406 232.613281 365.972656 231.539062 365.824219 230.175781 C 365.679688 228.761719 366.703125 227.539062 368.113281 227.394531 C 368.359375 227.34375 370.40625 227.199219 373.472656 227.34375 C 373.328125 225.445312 373.132812 223.445312 372.890625 221.394531 C 368.164062 222.226562 364.949219 223.542969 364.898438 223.589844 C 363.585938 224.128906 362.125 223.492188 361.585938 222.226562 C 361.050781 220.910156 361.636719 219.445312 362.953125 218.910156 C 363.292969 218.761719 366.898438 217.300781 372.207031 216.375 C 371.28125 210.425781 370.0625 204.523438 369.089844 200.136719 C 368.601562 197.695312 368.066406 195.257812 367.382812 192.820312 C 367.382812 192.773438 367.382812 192.722656 367.382812 192.722656 C 366.214844 188.675781 364.707031 184.773438 362.757812 181.066406 C 358.957031 174.046875 354.328125 167.269531 347.851562 162.390625 C 342.882812 159.125 337.769531 155.660156 331.875 154.492188 C 330.851562 154.34375 329.535156 154.101562 329.242188 152.882812 C 328.511719 151.222656 330.21875 150.054688 331.339844 149.175781 C 340.300781 139.570312 347.265625 135.035156 351.113281 132.984375 C 353.0625 131.960938 355.207031 131.328125 357.398438 131.085938 C 359.054688 130.9375 361.148438 130.792969 362.855469 130.988281 C 362.171875 128.792969 360.273438 127.132812 358.03125 126.792969 C 357.542969 126.746094 357.058594 126.648438 356.570312 126.597656 C 349.070312 126.890625 342.589844 131.132812 336.402344 134.984375 C 330.753906 138.203125 325.542969 142.054688 320.230469 145.761719 C 321.304688 146.25 322.863281 146.980469 324.175781 147.859375 C 325.445312 148.6875 324.617188 150.640625 323.15625 150.347656 C 307.421875 147.128906 309.953125 148.589844 301.964844 147.519531 C 299.96875 147.421875 297.921875 147.566406 296.023438 146.835938 C 293.976562 146.007812 293.488281 142.835938 295.144531 141.421875 C 296.21875 140.058594 298.457031 139.960938 299.335938 138.546875 C 291.199219 140.15625 284.183594 144.980469 276.292969 147.273438 C 266.113281 151.320312 254.765625 153.859375 246.628906 161.707031 C 244.875 161.269531 245.460938 158.78125 246.484375 157.855469 C 249.113281 155.273438 252.960938 153.808594 255.007812 150.835938 C 245.019531 145.957031 234.5 141.8125 223.34375 140.886719 C 221.105469 140.738281 218.667969 140.449219 216.574219 141.421875 C 215.601562 142.496094 215.601562 144.105469 214.578125 145.226562 C 219.105469 145.910156 223.101562 148.199219 227.046875 150.347656 C 230.992188 152.882812 235.230469 155.125 238.542969 158.539062 C 240.246094 160.585938 243.414062 162.246094 242.925781 165.316406 C 242.097656 166 241.269531 165.316406 240.492188 164.976562 C 236.058594 168.585938 232.792969 173.363281 229.09375 177.65625 C 223.441406 183.800781 218.914062 190.96875 215.890625 198.722656 C 213.503906 203.304688 211.996094 208.328125 211.410156 213.496094 C 211.410156 213.496094 210.921875 215.445312 210.484375 218.617188 C 215.695312 219.007812 219.351562 220.03125 219.691406 220.128906 C 221.054688 220.519531 221.835938 221.933594 221.394531 223.296875 C 221.007812 224.664062 219.59375 225.445312 218.230469 225.003906 C 218.132812 224.957031 214.773438 224.03125 209.996094 223.6875 C 209.902344 225.542969 209.902344 227.539062 209.996094 229.6875 C 213.066406 229.199219 215.160156 229.148438 215.453125 229.148438 C 215.453125 229.148438 215.503906 229.148438 215.503906 229.148438 C 216.914062 229.148438 218.035156 230.273438 218.035156 231.6875 C 218.035156 233.101562 216.914062 234.269531 215.550781 234.269531 C 215.453125 234.269531 213.503906 234.320312 210.535156 234.804688 C 210.875 237.195312 211.410156 239.632812 212.191406 242.023438 C 215.792969 239.78125 218.667969 238.757812 218.960938 238.660156 C 220.277344 238.171875 221.738281 238.902344 222.222656 240.21875 C 222.710938 241.535156 221.980469 243 220.664062 243.488281 C 220.617188 243.488281 217.644531 244.558594 214.136719 246.898438 C 217.839844 254.652344 224.660156 261.628906 236.644531 265.136719 C 236.644531 265.136719 236.691406 265.136719 236.691406 265.136719 C 237.375 265.332031 238.054688 265.527344 238.785156 265.722656 C 243.753906 267.480469 248.773438 269.136719 253.839844 270.503906 C 255.835938 271.039062 257.929688 271.625 260.023438 271.378906 C 261.292969 271.136719 264.992188 271.136719 264.3125 272.0625 C 263.238281 274.355469 260.511719 274.890625 258.269531 274.890625 C 252.035156 275.328125 246.140625 272.941406 240.199219 271.574219 C 238.300781 277.328125 235.621094 282.886719 234.0625 288.789062 C 232.308594 293.226562 231.722656 298.003906 230.359375 302.539062 C 228.996094 307.90625 228.363281 313.367188 228.3125 318.875 C 228.214844 323.605469 228.460938 328.582031 230.796875 332.773438 C 232.648438 337.554688 235.765625 341.941406 240.054688 344.722656 C 246.140625 348.039062 252.863281 350.964844 259.976562 350.476562 C 258.125 349.304688 257.246094 347.207031 256.128906 345.453125 C 253.351562 341.160156 251.792969 336.285156 249.941406 331.554688 C 249.894531 330.433594 250.625 328.238281 252.132812 328.875 C 253.449219 329.214844 254.082031 330.53125 254.570312 331.652344 C 257.101562 337.503906 260.023438 343.355469 264.359375 348.085938 C 266.941406 350.867188 270.351562 352.230469 273.957031 353.207031 C 273.957031 353.207031 286.183594 358.179688 290.078125 352.183594 C 290.46875 351.597656 290.664062 350.914062 290.761719 350.085938 C 293.148438 341.84375 293.148438 333.019531 293.683594 324.484375 C 294.269531 322.679688 297.191406 322.535156 297.335938 324.679688 C 298.214844 331.066406 297.679688 337.945312 299.382812 344.527344 C 300.550781 348.964844 304.402344 352.230469 308.980469 352.476562 C 308.980469 352.476562 309.027344 352.476562 309.027344 352.476562 C 309.027344 352.476562 310.292969 352.71875 313.507812 351.988281 C 317.992188 352.476562 322.863281 351.742188 326.515625 348.867188 C 334.113281 344.039062 337.183594 334.824219 338.253906 326.335938 C 338.402344 324.582031 341.175781 323.800781 341.714844 325.703125 C 341.910156 332.578125 340.203125 339.359375 337.914062 345.792969 C 337.574219 346.769531 336.746094 347.453125 336.113281 348.28125 C 338.304688 347.0625 340.789062 346.671875 343.078125 345.746094 C 347.949219 343.796875 352.722656 341.113281 356.179688 337.066406 C 359.640625 333.945312 360.710938 329.117188 360.710938 324.628906 C 360.710938 313.171875 357.789062 301.90625 354.425781 291.03125 C 352.285156 283.277344 349.507812 275.71875 346.535156 268.210938 C 340.738281 270.40625 335.089844 272.941406 329.144531 274.746094 C 325.347656 275.816406 320.914062 276.695312 317.359375 274.402344 C 316.1875 273.28125 314.824219 270.355469 319.304688 270.695312 C 321.011719 272.015625 323.25 271.574219 325.152344 271.085938 C 334.40625 268.453125 343.027344 264.015625 351.746094 260.117188 C 355.449219 258.164062 359.007812 256.019531 362.414062 253.628906 C 365.046875 251.726562 367.042969 249.09375 369.332031 246.800781 C 369.769531 246.070312 370.160156 245.289062 370.550781 244.511719 C 367.140625 242.902344 364.511719 242.21875 364.414062 242.21875 C 363.050781 241.878906 362.171875 240.511719 362.511719 239.148438 C 362.855469 237.78125 364.21875 236.902344 365.582031 237.246094 C 365.875 237.292969 368.75 237.976562 372.449219 239.730469 C 372.5 239.632812 372.5 239.535156 372.546875 239.488281 C 373.230469 237.78125 373.523438 235.34375 373.570312 232.464844 C 370.648438 232.320312 368.699219 232.464844 368.601562 232.464844 Z M 265.285156 227.441406 C 264.066406 227.832031 263.289062 229.441406 261.875 229.6875 C 258.613281 230.660156 255.882812 227.832031 254.910156 224.957031 C 253.546875 220.273438 253.9375 214.8125 256.859375 210.765625 C 256.957031 210.8125 257.199219 210.960938 257.34375 211.007812 C 257.296875 210.863281 257.246094 210.621094 257.246094 210.523438 C 260.074219 208.328125 264.75 209.9375 265.722656 213.398438 C 267.183594 217.738281 267.574219 222.90625 265.238281 227.003906 C 265.238281 227.101562 265.285156 227.296875 265.285156 227.441406 Z M 314.335938 236.757812 C 313.949219 242.851562 308.394531 248.996094 301.964844 248.121094 C 298.945312 247.679688 296.851562 245.289062 295.097656 243.144531 C 294.902344 246.070312 291.441406 247.730469 288.863281 248.167969 C 284.28125 248.410156 280.289062 244.902344 278.535156 240.902344 C 278 239.535156 277.414062 237.828125 278.4375 236.5625 C 279.949219 235.878906 281.605469 236.757812 282.480469 238.074219 C 284.28125 240.367188 286.570312 243.339844 289.933594 242.609375 C 292.320312 241.292969 292.515625 238.121094 292.90625 235.734375 C 290.128906 232.90625 288.375 228.417969 290.128906 224.613281 C 291.980469 222.421875 295.632812 223.640625 296.949219 225.832031 C 298.457031 228.90625 298.261719 232.5625 297.046875 235.683594 C 298.359375 237.78125 299.480469 240.121094 301.527344 241.632812 C 303.085938 242.949219 305.617188 242.949219 307.03125 241.4375 C 308.980469 239.828125 309.5625 237.195312 311.121094 235.292969 C 312.046875 234.074219 314.628906 234.660156 314.335938 236.757812 Z M 331.289062 224.566406 C 329.292969 227.636719 323.691406 227.882812 322.179688 224.226562 C 319.84375 220.128906 320.574219 215.105469 322.035156 210.863281 C 322.617188 209.058594 323.691406 207.253906 325.492188 206.425781 C 328.464844 205.402344 331.484375 207.695312 332.359375 210.472656 C 333.773438 214.960938 334.113281 220.46875 331.289062 224.566406 Z M 331.289062 224.566406 " fill-opacity="1" fill-rule="nonzero"/><path fill="#ddc7ab" d="M 346.632812 268.210938 C 346.632812 268.210938 341.082031 285.179688 298.3125 288.886719 C 255.542969 292.59375 240.148438 271.476562 240.148438 271.476562 C 313.316406 288.738281 346.632812 268.210938 346.632812 268.210938 Z M 346.632812 268.210938 " fill-opacity="1" fill-rule="nonzero"/><path fill="#dba76d" d="M 375.566406 320.582031 C 374.300781 317.902344 372.9375 314.925781 370.355469 313.269531 C 368.894531 313.855469 367.382812 314.242188 366.019531 315.074219 C 366.847656 319.949219 366.605469 325.019531 365.4375 329.800781 C 368.84375 330.042969 372.304688 330.042969 375.664062 329.554688 C 376.6875 326.679688 376.980469 323.410156 375.566406 320.582031 Z M 401.628906 309.804688 C 398.902344 306.78125 395.441406 304.050781 391.351562 303.222656 C 388.523438 302.882812 385.601562 304.003906 383.460938 305.710938 C 386.675781 310.097656 390.621094 314.195312 392.179688 319.558594 C 392.714844 321.851562 393.6875 324.191406 393.25 326.582031 C 397.246094 324.921875 400.945312 322.632812 404.257812 319.902344 C 404.988281 316.292969 403.964844 312.488281 401.628906 309.804688 Z M 291.785156 191.453125 C 295.097656 169.65625 274.101562 154.050781 268.304688 150.199219 C 260.464844 152.980469 252.621094 155.90625 246.582031 161.707031 C 244.828125 161.269531 245.410156 158.78125 246.433594 157.855469 C 249.066406 155.273438 252.914062 153.808594 254.957031 150.835938 C 244.972656 145.957031 234.449219 141.8125 223.296875 140.886719 C 221.054688 140.738281 218.621094 140.449219 216.523438 141.421875 C 215.550781 142.496094 215.550781 144.105469 214.527344 145.226562 C 219.058594 145.910156 223.050781 148.199219 227 150.347656 C 230.945312 152.882812 235.183594 155.125 238.496094 158.539062 C 240.199219 160.585938 243.367188 162.246094 242.878906 165.316406 C 242.050781 166 241.222656 165.316406 240.441406 164.976562 C 236.011719 168.585938 232.746094 173.363281 229.042969 177.65625 C 223.394531 183.800781 218.863281 190.96875 215.84375 198.722656 C 213.457031 203.304688 211.945312 208.328125 211.363281 213.496094 C 211.363281 213.496094 210.875 215.445312 210.4375 218.617188 C 215.648438 219.007812 219.300781 220.03125 219.644531 220.128906 C 221.007812 220.519531 221.785156 221.933594 221.347656 223.296875 C 220.957031 224.664062 219.546875 225.445312 218.179688 225.003906 C 218.085938 224.957031 214.722656 224.03125 209.949219 223.6875 C 209.851562 225.542969 209.851562 227.539062 209.949219 229.6875 C 213.019531 229.199219 215.113281 229.148438 215.40625 229.148438 C 215.40625 229.148438 215.453125 229.148438 215.453125 229.148438 C 216.867188 229.148438 217.988281 230.273438 217.988281 231.6875 C 217.988281 233.101562 216.867188 234.269531 215.503906 234.269531 C 215.40625 234.269531 213.457031 234.320312 210.484375 234.804688 C 210.824219 237.148438 211.363281 239.535156 212.09375 241.925781 C 212.140625 241.976562 212.140625 241.976562 212.191406 242.023438 C 215.746094 239.828125 218.621094 238.804688 218.863281 238.707031 C 220.179688 238.21875 221.640625 238.953125 222.128906 240.269531 C 222.613281 241.585938 221.882812 243.046875 220.570312 243.535156 C 220.519531 243.535156 219.15625 244.070312 217.160156 245.097656 C 223.441406 248.363281 231.042969 250.265625 239.90625 248.851562 C 268.550781 244.265625 287.9375 216.667969 291.785156 191.453125 Z M 265.285156 227.441406 C 264.066406 227.832031 263.289062 229.441406 261.875 229.6875 C 258.613281 230.660156 255.882812 227.832031 254.910156 224.957031 C 253.546875 220.273438 253.9375 214.8125 256.859375 210.765625 C 256.957031 210.8125 257.199219 210.960938 257.34375 211.007812 C 257.296875 210.863281 257.246094 210.621094 257.246094 210.523438 C 260.074219 208.328125 264.75 209.9375 265.722656 213.398438 C 267.183594 217.738281 267.574219 222.90625 265.238281 227.003906 C 265.238281 227.101562 265.285156 227.296875 265.285156 227.441406 Z M 230.652344 314.828125 C 231.382812 325.753906 232.503906 337.015625 240.054688 344.671875 C 235.765625 341.84375 232.601562 337.457031 230.796875 332.726562 C 228.460938 328.484375 228.265625 323.558594 228.3125 318.828125 C 228.363281 313.316406 228.996094 307.808594 230.359375 302.492188 C 231.722656 297.957031 232.308594 293.175781 234.0625 288.738281 C 234.597656 286.691406 235.277344 284.691406 236.011719 282.691406 C 236.15625 285.714844 237.03125 290.105469 240.199219 294.882812 C 245.898438 303.417969 229.921875 303.953125 230.652344 314.828125 Z M 293.050781 335.113281 C 292.710938 340.136719 292.125 345.160156 290.761719 349.988281 C 290.664062 350.816406 290.46875 351.546875 290.078125 352.085938 C 286.183594 358.082031 273.957031 353.109375 273.957031 353.109375 C 270.398438 352.183594 266.941406 350.769531 264.359375 347.988281 C 261.046875 344.378906 258.5625 340.089844 256.421875 335.652344 C 256.421875 335.652344 265.917969 351.355469 277.851562 347.648438 C 287.691406 344.625 291.882812 337.503906 293.050781 335.113281 Z M 257.003906 346.917969 C 257.785156 348.234375 258.613281 349.597656 259.976562 350.425781 C 259.636719 350.425781 259.34375 350.476562 259 350.476562 C 258.027344 349.355469 257.34375 348.183594 257.003906 346.917969 Z M 326.5625 348.914062 C 322.910156 351.792969 318.039062 352.523438 313.558594 352.035156 C 310.292969 352.71875 309.078125 352.523438 309.078125 352.523438 C 309.078125 352.523438 309.027344 352.523438 309.027344 352.523438 C 304.449219 352.230469 300.601562 349.011719 299.433594 344.574219 C 298.605469 341.453125 298.3125 338.332031 298.117188 335.164062 C 298.117188 335.164062 303.183594 348.429688 316.578125 344.722656 C 329.972656 341.0625 335.722656 337.164062 335.722656 337.164062 C 333.820312 341.84375 330.949219 346.136719 326.5625 348.914062 Z M 336.648438 347.746094 C 336.597656 347.84375 336.597656 347.988281 336.550781 348.085938 C 336.453125 348.136719 336.304688 348.183594 336.210938 348.28125 C 336.355469 348.085938 336.5 347.941406 336.648438 347.746094 Z M 360.273438 315.851562 C 360.175781 315.367188 357.984375 303.710938 353.355469 296.738281 C 348.628906 289.617188 333.628906 297.859375 342.199219 289.375 C 350.773438 280.890625 346.632812 268.257812 346.632812 268.257812 C 349.605469 275.71875 352.382812 283.277344 354.523438 291.082031 C 357.007812 299.125 359.296875 307.417969 360.273438 315.851562 Z M 360.273438 315.851562 " fill-opacity="1" fill-rule="nonzero"/><g fill="#3e393a" fill-opacity="1"><g transform="translate(104.092961, 457.250009)"><g><path d="M 59.917969 -57.195312 C 59.277344 -60.234375 57.117188 -62.394531 54.316406 -62.714844 C 51.277344 -63.117188 48.558594 -61.4375 47.4375 -58.636719 C 46.558594 -56.394531 45.996094 -53.996094 45.917969 -51.757812 C 45.597656 -45.597656 45.4375 -39.359375 45.277344 -33.277344 C 45.195312 -30.796875 45.117188 -28.316406 45.039062 -25.839844 C 45.039062 -25.199219 44.957031 -24.558594 44.957031 -23.917969 L 44.878906 -22.480469 L 42.796875 -21.679688 L 38.878906 -26.796875 C 36.238281 -30.15625 33.679688 -33.4375 31.117188 -36.796875 C 29.679688 -38.71875 28.238281 -40.71875 26.71875 -42.636719 C 24.160156 -46.078125 21.519531 -49.597656 18.796875 -52.957031 C 17.679688 -54.476562 16.160156 -55.757812 14.480469 -56.714844 C 13.359375 -57.355469 12.078125 -57.757812 10.878906 -57.757812 C 10.160156 -57.757812 9.4375 -57.597656 8.71875 -57.355469 C 6.800781 -56.714844 5.28125 -55.195312 4.398438 -53.117188 C 3.917969 -51.835938 3.601562 -50.636719 3.519531 -49.515625 C 2.398438 -36.636719 2.800781 -22.878906 4.800781 -6.238281 C 4.960938 -5.039062 5.441406 -3.679688 6.238281 -2.398438 C 7.121094 -0.960938 8.480469 -0.160156 9.757812 -0.238281 C 11.121094 -0.320312 12.320312 -1.28125 13.121094 -2.800781 C 13.679688 -4 14.078125 -5.359375 14.078125 -6.480469 C 14.398438 -13.199219 14.640625 -20 14.878906 -26.558594 L 15.039062 -31.839844 C 15.117188 -32.398438 15.039062 -33.039062 15.039062 -33.597656 L 15.039062 -36.238281 L 16.480469 -35.199219 C 17.597656 -34.316406 18.320312 -33.359375 18.878906 -32.476562 L 19.277344 -31.996094 C 20.398438 -30.398438 21.519531 -28.71875 22.71875 -27.117188 C 25.4375 -23.199219 28.316406 -19.117188 31.4375 -15.519531 C 34.078125 -12.398438 38.15625 -8 42.957031 -5.28125 C 47.597656 -2.640625 51.597656 -2.078125 54.554688 -3.679688 C 57.515625 -5.359375 59.195312 -9.199219 59.4375 -14.640625 C 59.835938 -24.957031 59.996094 -35.4375 60.234375 -45.597656 L 60.316406 -52.15625 C 60.394531 -53.917969 60.234375 -55.597656 59.917969 -57.195312 Z M 59.917969 -57.195312 "/></g></g></g><g fill="#3e393a" fill-opacity="1"><g transform="translate(167.526804, 457.250009)"><g><path d="M 28.160156 -37.519531 C 26.316406 -37.757812 24.476562 -38.078125 22.636719 -38.558594 C 19.359375 -39.515625 16.238281 -39.117188 13.359375 -37.359375 C 6.71875 -33.359375 2.480469 -27.597656 1.359375 -19.839844 C 0.398438 -13.199219 3.359375 -8 9.679688 -5.839844 C 12.878906 -4.71875 16.238281 -4.320312 19.519531 -3.601562 C 24.476562 -3.519531 28.558594 -5.121094 31.996094 -8.480469 C 36.15625 -12.480469 38.316406 -17.519531 39.117188 -23.199219 C 40.078125 -30.398438 35.4375 -36.476562 28.160156 -37.519531 Z M 25.839844 -22.160156 C 24.320312 -17.757812 22.796875 -16.320312 19.679688 -16.480469 C 13.4375 -16.800781 12.480469 -18.558594 15.597656 -24.078125 C 15.839844 -24.476562 16.078125 -24.878906 16.320312 -25.277344 C 19.359375 -29.757812 20 -29.757812 24.398438 -26.71875 C 26.160156 -25.4375 26.558594 -24.160156 25.839844 -22.160156 Z M 25.839844 -22.160156 "/></g></g></g><g fill="#3e393a" fill-opacity="1"><g transform="translate(208.722798, 457.250009)"><g/></g></g><g fill="#3e393a" fill-opacity="1"><g transform="translate(231.680572, 457.250009)"><g><path d="M 20.398438 -58.476562 C 14.238281 -55.996094 10 -51.515625 8.320312 -44.71875 C 7.441406 -41.355469 7.199219 -37.917969 6.878906 -34.476562 C 6.71875 -32.796875 6.480469 -31.679688 5.039062 -30.71875 C 2.160156 -28.878906 2.160156 -24.71875 5.199219 -23.199219 C 7.757812 -21.917969 8.320312 -20 8.558594 -17.4375 C 8.640625 -15.679688 8.71875 -13.757812 9.359375 -12.078125 C 10.640625 -8.480469 12.160156 -4.960938 13.917969 -1.601562 C 14.398438 -0.640625 16.320312 0.238281 17.277344 0 C 18.398438 -0.320312 19.4375 -1.839844 20.078125 -3.039062 C 20.558594 -4 20.480469 -5.359375 20.480469 -6.558594 C 20.398438 -10.640625 20.398438 -14.71875 20.160156 -18.796875 C 20.078125 -20.640625 20.558594 -21.199219 22.238281 -21.277344 C 24.398438 -21.4375 26.558594 -21.597656 28.558594 -22.160156 C 31.757812 -22.957031 33.597656 -25.679688 33.199219 -28.71875 C 32.878906 -31.597656 30.558594 -33.597656 27.359375 -33.757812 C 26.636719 -33.835938 25.839844 -33.757812 25.117188 -33.679688 C 19.4375 -33.199219 19.597656 -31.917969 20 -39.4375 C 20.078125 -39.835938 20.160156 -40.15625 20.238281 -40.476562 C 21.199219 -44.796875 23.519531 -46.796875 27.679688 -46.796875 C 29.039062 -46.878906 30.398438 -46.878906 31.757812 -46.957031 C 33.679688 -47.035156 35.4375 -47.515625 36.078125 -49.597656 C 36.878906 -51.835938 35.996094 -53.757812 34.398438 -55.195312 C 31.597656 -57.917969 28.078125 -58.957031 24 -59.4375 C 22.957031 -59.195312 21.597656 -58.957031 20.398438 -58.476562 Z M 20.398438 -58.476562 "/></g></g></g><g fill="#3e393a" fill-opacity="1"><g transform="translate(271.196733, 457.250009)"><g><path d="M 35.835938 -31.757812 C 34.878906 -35.199219 32.398438 -37.597656 29.199219 -39.277344 C 24.078125 -41.835938 19.039062 -41.675781 14 -38.957031 C 13.277344 -40.636719 13.039062 -42.398438 12 -43.515625 C 10.878906 -44.71875 9.039062 -45.996094 7.597656 -45.835938 C 6.238281 -45.757812 4.800781 -43.996094 3.757812 -42.71875 C 3.199219 -42.078125 3.199219 -40.796875 3.199219 -39.835938 C 3.039062 -30.316406 2.960938 -20.71875 2.960938 -11.199219 C 2.878906 -10.238281 3.121094 -9.199219 3.359375 -8.238281 C 4.238281 -4.398438 7.28125 -2 11.039062 -2.238281 C 14.640625 -2.480469 17.519531 -5.28125 17.917969 -9.121094 C 18.078125 -10.960938 17.519531 -12.878906 17.917969 -14.558594 C 18.796875 -18.398438 19.917969 -22.238281 21.199219 -25.917969 C 21.917969 -28 23.597656 -28.398438 25.679688 -27.4375 C 27.199219 -26.636719 28.796875 -25.679688 30.476562 -25.597656 C 31.996094 -25.4375 34.238281 -25.757812 35.117188 -26.796875 C 35.996094 -27.917969 36.316406 -30.238281 35.835938 -31.757812 Z M 35.835938 -31.757812 "/></g></g></g><g fill="#3e393a" fill-opacity="1"><g transform="translate(310.312923, 457.250009)"><g><path d="M 14.800781 -34.15625 C 14.71875 -36.398438 13.519531 -38.15625 11.121094 -38.476562 C 8.640625 -38.796875 6.800781 -37.359375 6.398438 -35.117188 C 5.039062 -27.359375 3.679688 -19.4375 2.960938 -11.597656 C 2.558594 -7.441406 5.121094 -4.800781 8 -4.558594 C 10.960938 -4.320312 13.359375 -6.800781 14.160156 -11.039062 C 14.398438 -12.640625 14.558594 -14.320312 14.640625 -15.917969 C 14.71875 -18.320312 14.960938 -30.476562 14.800781 -34.15625 Z M 8.878906 -45.355469 C 11.519531 -45.277344 13.917969 -47.675781 14 -50.636719 C 14 -53.355469 11.917969 -55.515625 9.199219 -55.4375 C 6.480469 -55.4375 4.238281 -53.277344 4.238281 -50.476562 C 4.238281 -47.675781 6.238281 -45.4375 8.878906 -45.355469 Z M 8.878906 -45.355469 "/></g></g></g><g fill="#3e393a" fill-opacity="1"><g transform="translate(328.231189, 457.250009)"><g><path d="M 34.476562 -38.71875 C 31.359375 -41.917969 27.519531 -43.996094 23.117188 -44.796875 C 16.71875 -45.996094 10.878906 -43.4375 7.28125 -38.078125 C 4.558594 -33.917969 3.441406 -29.277344 3.039062 -24.398438 C 2 -12.71875 10.078125 -2.960938 24.796875 -4.480469 C 26.878906 -4.640625 29.359375 -6.078125 30.878906 -7.597656 C 33.679688 -10.558594 32.71875 -14.078125 28.878906 -15.277344 C 26.238281 -16.160156 23.359375 -16.238281 20.640625 -16.71875 C 19.199219 -17.039062 17.839844 -17.519531 16.398438 -18 C 21.359375 -18.878906 26.160156 -19.199219 30.476562 -20.71875 C 38.71875 -23.597656 40.558594 -32.398438 34.476562 -38.71875 Z M 27.359375 -31.039062 C 23.757812 -30.636719 20.078125 -30.238281 16.078125 -29.839844 C 16.71875 -32.238281 17.757812 -34.078125 20.160156 -34.796875 C 22.878906 -35.597656 26.238281 -34.238281 28.316406 -31.4375 C 27.839844 -31.199219 27.597656 -31.039062 27.359375 -31.039062 Z M 27.359375 -31.039062 "/></g></g></g><g fill="#3e393a" fill-opacity="1"><g transform="translate(369.347199, 457.250009)"><g><path d="M 36.878906 -34.558594 C 32.398438 -40.558594 25.4375 -41.515625 19.359375 -37.199219 C 17.597656 -35.917969 16 -34.398438 14.160156 -32.796875 C 13.839844 -33.4375 13.679688 -33.835938 13.519531 -34.316406 C 12.800781 -36.796875 11.679688 -39.117188 8.640625 -39.039062 C 5.441406 -38.878906 4.480469 -36.238281 4.238281 -33.679688 C 3.679688 -26.316406 3.121094 -18.957031 2.960938 -11.597656 C 2.800781 -7.519531 5.519531 -4.71875 9.039062 -4.320312 C 12.558594 -3.917969 15.597656 -6.160156 16.558594 -10.238281 C 17.839844 -15.917969 20.957031 -20.640625 24.476562 -25.117188 C 25.039062 -25.839844 25.839844 -26.316406 26.957031 -27.359375 C 27.359375 -25.277344 27.597656 -23.917969 27.757812 -22.480469 C 28.316406 -18.71875 28.558594 -14.800781 29.519531 -11.039062 C 30.316406 -7.839844 33.039062 -6.238281 35.835938 -6.320312 C 38.398438 -6.480469 40.878906 -8.398438 41.355469 -11.597656 C 42.636719 -19.757812 41.917969 -27.679688 36.878906 -34.558594 Z M 36.878906 -34.558594 "/></g></g></g><g fill="#3e393a" fill-opacity="1"><g transform="translate(414.302817, 457.250009)"><g><path d="M 40.476562 -58.316406 C 40.398438 -59.835938 40.238281 -61.675781 39.359375 -62.714844 C 38.316406 -63.914062 36.476562 -65.117188 34.957031 -65.035156 C 33.679688 -64.957031 32.316406 -63.277344 31.4375 -61.996094 C 30.796875 -61.117188 30.957031 -59.757812 30.878906 -58.554688 C 30.398438 -52.238281 30 -45.917969 29.519531 -39.359375 C 28.71875 -39.597656 28.078125 -39.757812 27.519531 -39.917969 C 16.078125 -43.917969 8.078125 -40.078125 4.320312 -28.558594 C 3.839844 -27.039062 3.441406 -25.519531 3.199219 -24 C 1.601562 -14 6.878906 -5.519531 15.917969 -3.519531 C 20.160156 -2.558594 24.238281 -3.28125 28.160156 -4.960938 C 29.117188 -5.359375 30.316406 -5.679688 31.199219 -5.359375 C 36.71875 -3.441406 40.476562 -5.757812 40.558594 -11.679688 C 40.636719 -27.199219 40.558594 -42.796875 40.476562 -58.316406 Z M 27.679688 -18.71875 C 25.117188 -17.917969 22.480469 -17.199219 19.839844 -16.480469 C 17.679688 -16.558594 16.160156 -17.679688 16.320312 -19.597656 C 16.640625 -22.160156 17.597656 -24.71875 18.558594 -27.199219 C 18.71875 -27.757812 19.917969 -28.160156 20.640625 -28.160156 C 24.238281 -28.316406 28.71875 -23.839844 28.476562 -20.238281 C 28.476562 -19.679688 28.078125 -18.878906 27.679688 -18.71875 Z M 27.679688 -18.71875 "/></g></g></g><g fill="#3e393a" fill-opacity="1"><g transform="translate(457.89858, 457.250009)"><g><path d="M 30.476562 -23.117188 C 27.4375 -25.917969 23.359375 -27.679688 19.679688 -29.917969 C 18.640625 -30.558594 17.519531 -30.957031 16.160156 -31.679688 C 19.039062 -35.039062 21.839844 -35.519531 25.679688 -33.4375 C 27.4375 -32.558594 29.359375 -31.757812 30.71875 -33.359375 C 31.757812 -34.558594 32.398438 -36.636719 32.238281 -38.15625 C 31.757812 -42.15625 29.117188 -44.636719 25.359375 -45.835938 C 17.757812 -48.238281 8.160156 -44.238281 4.480469 -37.199219 C 2 -32.398438 2.398438 -27.277344 6.480469 -23.757812 C 9.121094 -21.519531 12.480469 -20.238281 15.597656 -18.71875 C 17.4375 -17.757812 19.4375 -17.277344 21.359375 -16.558594 C 21.277344 -16.238281 21.199219 -15.917969 21.117188 -15.519531 C 18.558594 -15.757812 16.078125 -16 13.597656 -16.320312 C 9.917969 -16.71875 7.039062 -15.519531 5.917969 -12.960938 C 4.71875 -10.238281 5.441406 -6.640625 8.398438 -4.800781 C 10.960938 -3.199219 14 -1.917969 16.878906 -1.679688 C 20.078125 -1.519531 23.4375 -2.320312 26.476562 -3.441406 C 35.835938 -6.960938 37.835938 -16.320312 30.476562 -23.117188 Z M 30.476562 -23.117188 "/></g></g></g></svg>