<svg xmlns="http://www.w3.org/2000/svg" xmlns:xlink="http://www.w3.org/1999/xlink" width="200" zoomAndPan="magnify" viewBox="0 0 150 149.999998" height="200" preserveAspectRatio="xMidYMid meet" version="1.0"><defs><g/><clipPath id="62d15fc81d"><path d="M 45.28125 15 L 104 15 L 104 103.5 L 45.28125 103.5 Z M 45.28125 15 " clip-rule="nonzero"/></clipPath></defs><g clip-path="url(#62d15fc81d)"><path fill="#380414" d="M 89.949219 101.878906 C 92.738281 101.925781 95.558594 101.890625 98.335938 102.457031 C 97.496094 102.960938 96.570312 102.953125 95.675781 103 C 86.542969 103.492188 77.402344 103.4375 68.257812 103.445312 C 62.390625 103.445312 56.53125 103.402344 50.675781 103.003906 C 49.894531 102.953125 49.089844 102.949219 48.355469 102.480469 C 49.628906 102.070312 50.957031 102.085938 52.335938 102.019531 C 51.339844 100.804688 51.121094 99.519531 51.628906 98.109375 C 51.71875 97.859375 51.691406 97.734375 51.457031 97.554688 C 47.785156 94.625 46.070312 90.699219 45.71875 86.085938 C 45.28125 80.226562 47.175781 74.992188 50.066406 70.046875 C 50.699219 68.957031 51.425781 67.921875 52.117188 66.863281 C 52.296875 66.59375 52.40625 66.332031 52.378906 65.972656 C 51.933594 61.078125 52.859375 56.441406 55.066406 52.078125 C 55.800781 50.621094 56.101562 49.101562 56.15625 47.5 C 56.164062 47.199219 56.082031 46.976562 55.890625 46.753906 C 54.910156 45.648438 54.09375 44.433594 53.546875 43.050781 C 53.429688 42.746094 53.316406 42.648438 52.957031 42.78125 C 51.957031 43.15625 50.921875 43.445312 49.910156 43.789062 C 49.546875 43.914062 49.210938 43.96875 49.050781 43.546875 C 48.890625 43.125 49.09375 42.839844 49.496094 42.6875 C 50.496094 42.300781 51.5 41.933594 52.542969 41.671875 C 52.820312 41.601562 53.082031 41.582031 52.957031 41.097656 C 52.113281 37.914062 52.488281 34.804688 53.65625 31.769531 C 53.953125 31.011719 54.023438 30.273438 53.957031 29.480469 C 53.609375 25.511719 53.78125 21.5625 54.523438 17.644531 C 54.585938 17.332031 54.65625 17.015625 54.765625 16.714844 C 55.207031 15.519531 56.191406 15.007812 57.453125 15.347656 C 59.277344 15.839844 60.925781 16.710938 62.523438 17.699219 C 63.925781 18.570312 65.257812 19.542969 66.511719 20.621094 C 66.746094 20.828125 66.941406 20.925781 67.296875 20.847656 C 70.328125 20.183594 73.382812 20.164062 76.421875 20.8125 C 77.027344 20.941406 77.363281 20.632812 77.746094 20.316406 C 79.960938 18.519531 82.292969 16.917969 84.917969 15.78125 C 85.25 15.636719 85.59375 15.503906 85.945312 15.410156 C 87.394531 15.019531 88.511719 15.703125 88.757812 17.191406 C 89.148438 19.566406 89.191406 21.960938 89.101562 24.363281 C 89.027344 26.339844 88.90625 28.320312 88.628906 30.28125 C 88.566406 30.730469 88.640625 31.144531 88.792969 31.5625 C 89.929688 34.621094 90.359375 37.75 89.652344 40.976562 C 89.574219 41.316406 89.703125 41.367188 89.964844 41.417969 C 91.171875 41.667969 92.335938 42.070312 93.484375 42.519531 C 93.65625 42.585938 93.832031 42.644531 93.988281 42.734375 C 94.28125 42.910156 94.519531 43.136719 94.316406 43.515625 C 94.144531 43.839844 93.894531 43.945312 93.515625 43.816406 C 92.285156 43.398438 91.039062 43.027344 89.816406 42.597656 C 89.367188 42.4375 89.191406 42.558594 89.027344 42.988281 C 88.347656 44.71875 87.351562 46.25 86.03125 47.5625 C 85.890625 47.703125 85.738281 47.832031 85.722656 48.070312 C 85.648438 49.179688 85.613281 50.269531 86.125 51.316406 C 87.539062 54.203125 88.453125 57.246094 88.828125 60.445312 C 89.058594 62.441406 89.082031 64.445312 88.789062 66.441406 C 88.707031 66.988281 88.769531 67.464844 89.050781 67.957031 C 90.535156 70.570312 91.878906 73.257812 92.9375 76.074219 C 93.027344 76.3125 93.039062 76.542969 93.472656 76.488281 C 98.625 75.859375 102.152344 79.105469 103.257812 83.097656 C 104.53125 87.707031 103.835938 92.058594 100.683594 95.796875 C 98.730469 98.117188 96.097656 99.28125 93.167969 99.824219 C 92.808594 99.890625 92.4375 100.003906 92.089844 99.964844 C 90.722656 99.824219 90.21875 100.683594 89.949219 101.878906 Z M 89.949219 101.878906 " fill-opacity="1" fill-rule="nonzero"/></g><path fill="#fefefe" d="M 79.851562 95.398438 C 79.8125 95.804688 79.824219 96.203125 79.71875 96.613281 C 79.589844 97.113281 79.671875 97.601562 80.140625 98.027344 C 80.960938 98.769531 81.484375 99.703125 81.472656 100.863281 C 81.46875 101.308594 81.328125 101.679688 80.8125 101.832031 C 80.835938 101.292969 81.011719 100.773438 80.808594 100.261719 C 80.734375 100.070312 80.667969 99.871094 80.550781 99.710938 C 80.417969 99.519531 80.234375 99.367188 79.972656 99.507812 C 79.71875 99.640625 79.824219 99.863281 79.871094 100.050781 C 79.933594 100.320312 80.050781 100.582031 80.074219 100.847656 C 80.105469 101.222656 80.070312 101.652344 79.722656 101.832031 C 79.339844 102.035156 78.867188 101.9375 78.4375 101.914062 C 78.25 101.902344 78.394531 101.699219 78.414062 101.578125 C 78.511719 101.027344 78.515625 100.476562 78.257812 99.960938 C 78.136719 99.710938 77.964844 99.453125 77.625 99.582031 C 77.277344 99.710938 77.320312 99.992188 77.421875 100.273438 C 77.480469 100.445312 77.550781 100.617188 77.585938 100.796875 C 77.710938 101.472656 77.253906 102.027344 76.585938 102.027344 C 76.125 102.027344 75.671875 102.027344 75.210938 102.007812 C 74.359375 101.976562 73.898438 101.601562 73.761719 100.75 C 73.394531 98.441406 73.386719 96.109375 73.445312 93.78125 C 73.570312 88.242188 74.261719 82.765625 75.40625 77.347656 C 75.5 76.894531 75.578125 76.417969 75.027344 76.160156 C 74.769531 75.703125 74.964844 75.210938 74.9375 74.738281 C 74.878906 73.8125 74.589844 73.460938 73.667969 73.519531 C 72.5 73.589844 71.339844 73.636719 70.171875 73.644531 C 69.347656 73.648438 68.527344 73.550781 67.710938 73.507812 C 66.425781 73.445312 66.058594 73.808594 66.046875 75.09375 C 66.011719 77.46875 66.265625 79.828125 66.523438 82.179688 C 67.101562 87.441406 67.699219 92.703125 67.5625 98.011719 C 67.535156 99.136719 67.316406 100.257812 67.453125 101.386719 C 67.472656 101.527344 67.402344 101.65625 67.332031 101.773438 C 66.425781 102.285156 65.445312 102.085938 64.539062 101.917969 C 64 101.820312 64.054688 101.105469 64.179688 100.601562 C 64.269531 100.238281 64.605469 99.769531 64.058594 99.617188 C 63.570312 99.484375 63.425781 100 63.296875 100.402344 C 63.203125 100.695312 63.234375 100.992188 63.210938 101.289062 C 63.191406 101.507812 63.621094 101.902344 63.144531 101.917969 C 62.703125 101.933594 62.03125 102.230469 61.835938 101.441406 C 61.722656 100.964844 61.691406 100.488281 61.960938 100.042969 C 62.109375 99.804688 62.183594 99.566406 61.867188 99.410156 C 61.570312 99.261719 61.398438 99.441406 61.253906 99.675781 C 60.832031 100.371094 60.984375 101.125 61.070312 101.878906 C 60.324219 101.589844 60.011719 100.945312 60.230469 100.089844 C 60.421875 99.347656 60.769531 98.664062 61.347656 98.148438 C 61.746094 97.796875 61.800781 97.417969 61.761719 96.921875 C 61.140625 88.851562 59.003906 81.175781 55.855469 73.753906 C 54.292969 70.070312 53.472656 66.234375 53.710938 62.203125 C 53.914062 58.761719 54.878906 55.53125 56.414062 52.460938 C 56.785156 51.722656 57.136719 50.976562 57.320312 50.167969 C 57.613281 50.074219 57.859375 50.226562 58.109375 50.332031 C 61.898438 51.988281 65.890625 52.6875 69.984375 53.003906 C 73.082031 53.242188 76.15625 52.96875 79.234375 52.730469 C 80.003906 52.675781 80.746094 52.769531 81.472656 53.003906 C 82.335938 53.285156 82.878906 53.910156 83.222656 54.746094 C 83.988281 56.621094 84.335938 58.589844 84.589844 60.582031 C 85.226562 65.539062 84.515625 70.367188 83.234375 75.140625 C 81.957031 79.90625 80.695312 84.675781 80.140625 89.59375 C 79.949219 91.261719 79.792969 92.9375 79.773438 94.621094 C 79.769531 94.96875 79.722656 95.296875 79.59375 95.640625 C 79.5625 95.703125 79.757812 95.664062 79.675781 95.625 C 79.648438 95.613281 79.644531 95.59375 79.644531 95.570312 C 79.636719 95.410156 79.710938 95.355469 79.851562 95.398438 Z M 79.851562 95.398438 " fill-opacity="1" fill-rule="nonzero"/><path fill="#fefefe" d="M 86.433594 41.035156 C 86.1875 41.390625 86.257812 41.699219 86.5625 41.980469 C 86.636719 42.070312 86.671875 42.175781 86.667969 42.296875 C 85.839844 43.898438 84.523438 45.027344 83.046875 45.976562 C 80.207031 47.804688 77.054688 48.664062 73.726562 48.984375 C 69.625 49.378906 65.648438 48.855469 61.8125 47.332031 C 59.890625 46.570312 58.054688 45.628906 56.570312 44.128906 C 56.335938 43.890625 55.910156 43.875 55.824219 43.46875 C 56.324219 42.824219 56.96875 42.351562 57.691406 41.984375 C 58.226562 41.886719 58.710938 41.738281 58.476562 41.007812 C 58.457031 40.546875 58.835938 40.339844 59.09375 40.070312 C 60.054688 39.0625 61.199219 38.484375 62.628906 38.585938 C 63.171875 38.625 63.726562 38.636719 64.269531 38.574219 C 65.179688 38.46875 66.023438 38.21875 66.421875 37.253906 C 66.621094 37.007812 66.925781 36.972656 67.199219 36.871094 C 68.699219 36.308594 69.347656 35.367188 69.28125 33.828125 C 69.1875 33.261719 69.050781 32.703125 68.824219 32.179688 C 68.632812 31.742188 68.746094 31.488281 69.226562 31.382812 C 69.871094 31.238281 70.511719 31.085938 71.113281 30.785156 C 72.316406 30.175781 73.140625 29.253906 73.539062 27.957031 C 73.570312 27.847656 73.59375 27.734375 73.648438 27.632812 C 73.71875 27.492188 73.777344 27.3125 73.964844 27.3125 C 74.160156 27.3125 74.214844 27.5 74.269531 27.644531 C 74.492188 28.269531 74.703125 28.902344 75.140625 29.421875 C 75.878906 30.355469 76.867188 30.882812 78 31.183594 C 78.742188 31.378906 78.777344 31.453125 78.453125 32.175781 C 78.238281 32.652344 78.210938 33.148438 78.226562 33.652344 C 78.046875 35.28125 78.824219 36.304688 80.25 36.929688 C 80.433594 37.011719 80.632812 37.078125 80.78125 37.226562 C 80.980469 38.207031 81.789062 38.375 82.570312 38.5625 C 82.925781 38.648438 83.296875 38.65625 83.660156 38.679688 C 85.011719 38.769531 85.78125 39.632812 86.40625 40.707031 C 86.472656 40.816406 86.5 40.925781 86.433594 41.035156 Z M 86.433594 41.035156 " fill-opacity="1" fill-rule="nonzero"/><path fill="#febc6c" d="M 66.511719 37.296875 C 66.726562 37.558594 66.515625 37.710938 66.359375 37.871094 C 65.785156 38.445312 65.089844 38.753906 64.28125 38.789062 C 63.761719 38.8125 63.230469 38.832031 62.710938 38.785156 C 61.296875 38.652344 60.183594 39.21875 59.242188 40.222656 C 58.988281 40.488281 58.738281 40.746094 58.480469 41.011719 C 57.476562 40.710938 56.480469 40.96875 55.496094 41.113281 C 54.332031 41.285156 54.347656 41.3125 54.097656 40.136719 C 53.519531 37.382812 53.890625 34.722656 54.953125 32.167969 C 55.34375 31.230469 55.386719 30.324219 55.300781 29.351562 C 54.945312 25.453125 55.125 21.578125 55.894531 17.738281 C 55.933594 17.558594 56.007812 17.386719 56.066406 17.21875 C 56.488281 17.550781 57.097656 17.632812 57.378906 18.171875 C 56.785156 21.277344 57.207031 24.355469 57.621094 27.449219 C 57.808594 27.089844 57.675781 26.671875 57.847656 26.316406 C 58.296875 26.066406 58.203125 26.484375 58.269531 26.679688 C 58.355469 26.921875 58.125 27.304688 58.578125 27.390625 C 58.71875 27.578125 58.875 27.496094 59.054688 27.4375 C 60.191406 27.082031 61.117188 26.351562 62.027344 25.628906 C 63.613281 24.371094 65.269531 23.253906 67.203125 22.597656 C 67.386719 22.535156 67.503906 22.402344 67.59375 22.234375 C 70.65625 21.503906 73.71875 21.644531 76.777344 22.253906 C 77.257812 22.347656 77.601562 22.238281 77.964844 21.949219 C 78.875 21.222656 79.734375 20.421875 80.742188 19.832031 C 81.386719 19.734375 82.011719 19.917969 82.636719 20.003906 C 83.183594 20.078125 83.28125 20.351562 83.011719 20.835938 C 82.742188 21.324219 82.347656 21.714844 82.023438 22.152344 C 81.105469 23.378906 80.535156 24.707031 80.5625 26.289062 C 80.609375 28.785156 78.761719 30.273438 76.277344 29.8125 C 75.851562 29.738281 75.429688 29.621094 75.007812 29.535156 C 74.457031 28.949219 74.273438 28.183594 73.992188 27.398438 C 73.921875 27.503906 73.855469 27.566406 73.835938 27.636719 C 73.367188 29.804688 71.921875 30.945312 69.882812 31.464844 C 69.660156 31.519531 69.445312 31.59375 69.214844 31.605469 C 68.804688 31.636719 68.847656 31.816406 68.992188 32.097656 C 69.273438 32.632812 69.40625 33.214844 69.460938 33.8125 C 69.15625 33.867188 68.949219 33.644531 68.71875 33.511719 C 67.332031 32.707031 65.855469 32.585938 64.335938 32.996094 C 62.710938 33.433594 62.355469 34.679688 63.472656 35.957031 C 64.074219 36.644531 64.832031 37.03125 65.753906 37.082031 C 66.015625 37.09375 66.3125 37.035156 66.511719 37.296875 Z M 66.511719 37.296875 " fill-opacity="1" fill-rule="nonzero"/><path fill="#e2ddd5" d="M 79.851562 95.398438 C 79.585938 95.550781 79.757812 95.863281 79.585938 96.199219 C 79.496094 94.367188 79.636719 92.6875 79.78125 91 C 79.925781 89.214844 80.191406 87.449219 80.5 85.691406 C 80.96875 83.019531 81.613281 80.398438 82.296875 77.777344 C 83.003906 75.074219 83.804688 72.382812 84.191406 69.609375 C 84.460938 67.699219 84.703125 65.773438 84.613281 63.84375 C 84.480469 60.886719 84.121094 57.964844 83.15625 55.125 C 82.472656 53.128906 80.867188 52.851562 79.144531 52.941406 C 78.394531 52.980469 77.652344 53.167969 76.902344 53.167969 C 75.027344 53.160156 73.160156 53.429688 71.28125 53.320312 C 66.589844 53.046875 61.988281 52.328125 57.652344 50.378906 C 57.53125 50.324219 57.425781 50.226562 57.3125 50.152344 C 57.367188 49.558594 57.425781 48.972656 57.476562 48.414062 C 66.273438 53.839844 75.171875 54.285156 84.277344 49.175781 C 84.203125 51.363281 85.625 53.160156 86.285156 55.222656 C 88.238281 61.292969 88.03125 67.273438 85.648438 73.171875 C 83.804688 77.726562 82.140625 82.332031 81.128906 87.160156 C 80.59375 89.726562 80.15625 92.3125 79.957031 94.929688 C 79.9375 95.09375 79.882812 95.246094 79.851562 95.398438 Z M 79.851562 95.398438 " fill-opacity="1" fill-rule="nonzero"/><path fill="#fefefe" d="M 47.933594 89.996094 C 47.691406 89.511719 47.558594 88.988281 47.488281 88.453125 C 46.769531 84.359375 49.832031 79.882812 53.554688 78.375 C 53.789062 78.277344 54.023438 78.183594 54.28125 78.265625 C 54.6875 78.472656 54.808594 78.890625 54.96875 79.261719 C 56.253906 82.152344 57.265625 85.128906 57.5625 88.304688 C 57.691406 89.65625 57.652344 90.988281 56.742188 92.109375 C 55.5 93.636719 53.886719 93.941406 52.101562 93.375 C 50.296875 92.796875 48.878906 91.671875 47.933594 89.996094 Z M 47.933594 89.996094 " fill-opacity="1" fill-rule="nonzero"/><path fill="#fe9b51" d="M 75.007812 29.527344 C 75.4375 29.1875 75.835938 29.535156 76.238281 29.597656 C 77.535156 29.800781 78.683594 29.546875 79.671875 28.644531 C 80.160156 28.195312 80.429688 27.636719 80.367188 26.988281 C 80.144531 24.6875 81.039062 22.832031 82.535156 21.175781 C 82.746094 20.9375 83.128906 20.640625 82.964844 20.320312 C 82.839844 20.078125 82.394531 20.101562 82.070312 20.117188 C 81.605469 20.136719 81.167969 19.996094 80.742188 19.820312 C 82.410156 18.609375 84.15625 17.523438 86.082031 16.769531 C 86.890625 16.453125 87.238281 16.648438 87.386719 17.511719 C 87.519531 18.28125 87.617188 19.0625 87.652344 19.839844 C 87.824219 23.371094 87.640625 26.890625 87.230469 30.394531 C 87.167969 30.921875 87.285156 31.386719 87.46875 31.871094 C 88.492188 34.582031 88.914062 37.367188 88.414062 40.269531 C 88.300781 40.917969 88.054688 41.132812 87.4375 41.019531 C 87.191406 40.976562 86.9375 40.988281 86.683594 40.976562 C 86.246094 40.730469 86.378906 40.300781 86.351562 39.929688 C 86.25 38.042969 85.867188 36.242188 84.699219 34.699219 C 84.46875 33.664062 83.722656 33.222656 82.78125 32.964844 C 81.382812 32.585938 80.066406 32.765625 78.792969 33.425781 C 78.558594 33.546875 78.347656 33.761719 78.046875 33.710938 C 77.90625 32.929688 78.160156 32.226562 78.59375 31.53125 C 77.160156 31.210938 75.878906 30.734375 75.007812 29.527344 Z M 75.007812 29.527344 " fill-opacity="1" fill-rule="nonzero"/><path fill="#e3ded5" d="M 67.316406 101.761719 C 67.089844 100.757812 67.25 99.757812 67.289062 98.75 C 67.363281 96.933594 67.402344 95.105469 67.289062 93.292969 C 67.136719 90.828125 66.960938 88.363281 66.667969 85.902344 C 66.425781 83.859375 66.183594 81.808594 66.046875 79.753906 C 65.941406 78.148438 65.769531 76.550781 65.789062 74.945312 C 65.804688 73.636719 66.1875 73.179688 67.449219 73.269531 C 68.882812 73.375 70.320312 73.402344 71.761719 73.386719 C 72.492188 73.375 73.214844 73.269531 73.945312 73.261719 C 74.726562 73.25 75.136719 73.660156 75.148438 74.4375 C 75.160156 75.011719 75.214844 75.59375 75.015625 76.148438 C 74.371094 76.085938 74.222656 76.546875 74.105469 77.035156 C 73.636719 79.109375 73.25 81.191406 72.949219 83.300781 C 72.902344 83.640625 72.835938 83.980469 72.78125 84.316406 C 71.832031 85.324219 70.113281 85.390625 69.125 84.457031 C 68.789062 82.046875 68.480469 79.628906 68 77.242188 C 67.902344 76.773438 67.910156 76.152344 67.179688 76.203125 C 66.679688 76.238281 66.558594 76.671875 66.699219 77.492188 C 67.878906 84.210938 68.570312 90.972656 68.257812 97.804688 C 68.214844 98.722656 68.105469 99.636719 67.980469 100.546875 C 67.914062 101.019531 67.804688 101.507812 67.316406 101.761719 Z M 67.316406 101.761719 " fill-opacity="1" fill-rule="nonzero"/><path fill="#e3ded5" d="M 93.171875 84.875 C 93.253906 89.152344 91.855469 92.855469 88.898438 95.941406 C 88.761719 96.085938 88.660156 96.242188 88.390625 96.089844 C 86.394531 94.964844 84.238281 94.976562 82.054688 95.214844 C 81.292969 95.300781 81.261719 95.300781 81.34375 94.484375 C 81.898438 88.996094 83.171875 83.671875 85.050781 78.488281 C 85.074219 78.425781 85.121094 78.375 85.15625 78.316406 C 85.671875 78.375 85.765625 78.882812 86.058594 79.179688 C 86.367188 79.492188 86.601562 79.867188 86.824219 80.242188 C 86.890625 80.371094 86.925781 80.511719 86.890625 80.660156 C 86.023438 82.765625 85.3125 84.929688 84.917969 87.183594 C 84.8125 87.78125 84.816406 88.375 84.859375 88.972656 C 84.917969 89.800781 85.460938 90.476562 86.167969 90.652344 C 86.769531 90.804688 87.449219 90.492188 87.90625 89.808594 C 88.875 88.347656 89.21875 86.6875 89.390625 84.980469 C 89.417969 84.707031 89.367188 84.421875 89.550781 84.183594 C 89.75 84.070312 89.90625 84.1875 90.054688 84.289062 C 90.914062 84.867188 91.828125 85.113281 92.851562 84.816406 C 92.957031 84.792969 93.070312 84.8125 93.171875 84.875 Z M 93.171875 84.875 " fill-opacity="1" fill-rule="nonzero"/><path fill="#fefefe" d="M 98.675781 79.007812 C 100.738281 80.347656 101.742188 82.367188 102.230469 84.699219 C 102.453125 85.757812 102.429688 86.839844 102.359375 87.914062 C 101.894531 88.753906 101.625 89.691406 100.964844 90.433594 C 99.664062 91.882812 98.039062 92.6875 96.148438 93.003906 C 95.816406 93.058594 95.472656 93 95.496094 92.605469 C 95.558594 91.449219 95.160156 90.402344 94.828125 89.335938 C 95.8125 88.472656 96.5625 87.476562 96.773438 86.125 C 97.039062 84.445312 96.359375 82.875 94.894531 82.039062 C 94.519531 81.824219 94.359375 81.578125 94.386719 81.175781 C 94.371094 80.671875 94.253906 80.1875 94.246094 79.6875 C 94.230469 78.980469 94.546875 78.632812 95.253906 78.578125 C 96.214844 78.507812 97.164062 78.632812 98.085938 78.902344 C 98.277344 78.960938 98.460938 79.042969 98.675781 79.007812 Z M 98.675781 79.007812 " fill-opacity="1" fill-rule="nonzero"/><path fill="#e2ded5" d="M 55.910156 43.402344 C 59.097656 46.332031 62.910156 47.9375 67.117188 48.597656 C 71.757812 49.320312 76.3125 48.925781 80.65625 47.0625 C 83.058594 46.027344 85.128906 44.5 86.582031 42.238281 C 87.007812 42.316406 87.320312 42.542969 87.535156 42.925781 C 86.253906 45.867188 84.078125 47.960938 81.203125 49.226562 C 73.613281 52.558594 66.226562 52.09375 59.144531 47.730469 C 57.488281 46.707031 56.191406 45.265625 55.28125 43.511719 C 55.46875 43.300781 55.65625 43.171875 55.910156 43.402344 Z M 55.910156 43.402344 " fill-opacity="1" fill-rule="nonzero"/><path fill="#fe9a50" d="M 93.171875 84.875 C 91.816406 85.492188 90.660156 85.046875 89.585938 84.183594 C 89.28125 84.125 89.144531 83.902344 89.035156 83.644531 C 88.722656 82.605469 88.207031 81.664062 87.714844 80.710938 C 87.476562 80.253906 87.179688 80.089844 86.703125 80.304688 C 86.1875 79.648438 85.671875 78.984375 85.15625 78.328125 C 85.683594 76.519531 86.542969 74.839844 87.15625 73.0625 C 87.550781 71.898438 87.917969 70.722656 88.277344 69.394531 C 88.78125 70.367188 89.234375 71.207031 89.660156 72.0625 C 91.167969 75.09375 92.40625 78.214844 92.949219 81.585938 C 93.128906 82.671875 93.238281 83.769531 93.171875 84.875 Z M 93.171875 84.875 " fill-opacity="1" fill-rule="nonzero"/><path fill="#e2dfd6" d="M 47.933594 89.996094 C 48.691406 90.691406 49.257812 91.570312 50.125 92.152344 C 51.386719 93 52.695312 93.640625 54.273438 93.335938 C 56.234375 92.957031 57.410156 91.554688 57.402344 89.507812 C 57.386719 86.949219 56.78125 84.507812 55.898438 82.132812 C 55.421875 80.84375 55.007812 79.523438 54.242188 78.363281 C 54.203125 78.292969 54.210938 78.226562 54.273438 78.164062 C 54.789062 77.929688 55.296875 77.621094 55.902344 77.832031 C 57.097656 80.621094 57.917969 83.53125 58.648438 86.46875 C 59.296875 89.078125 59.746094 91.726562 60.125 94.386719 C 60.253906 95.265625 60.257812 95.226562 59.390625 95.164062 C 57.101562 94.996094 54.855469 95.128906 52.875 96.488281 C 52.625 96.660156 52.488281 96.59375 52.289062 96.4375 C 50.136719 94.769531 48.710938 92.601562 47.933594 89.996094 Z M 47.933594 89.996094 " fill-opacity="1" fill-rule="nonzero"/><path fill="#c7bab2" d="M 69.125 84.457031 C 70.367188 85.054688 71.589844 85.03125 72.78125 84.316406 C 72.4375 87.152344 72.125 89.988281 72.058594 92.84375 C 71.992188 95.65625 71.972656 98.46875 72.472656 101.25 C 72.519531 101.527344 72.492188 101.617188 72.199219 101.613281 C 71.234375 101.601562 70.277344 101.609375 69.257812 101.609375 C 69.679688 99.140625 69.757812 96.695312 69.738281 94.238281 C 69.714844 91.105469 69.5 87.980469 69.136719 84.867188 C 69.121094 84.730469 69.132812 84.59375 69.125 84.457031 Z M 69.125 84.457031 " fill-opacity="1" fill-rule="nonzero"/><path fill="#febb6b" d="M 54.257812 78.25 C 54.257812 78.289062 54.253906 78.328125 54.246094 78.359375 C 52.378906 78.902344 50.921875 80.046875 49.730469 81.542969 C 48.121094 83.550781 47.40625 85.871094 47.488281 88.449219 C 46.945312 86.320312 46.945312 84.15625 47.160156 82.007812 C 47.523438 78.386719 48.894531 75.082031 50.582031 71.902344 C 50.613281 71.84375 50.671875 71.796875 50.71875 71.75 C 50.824219 71.746094 50.890625 71.796875 50.9375 71.882812 C 51.980469 73.832031 53.15625 75.703125 54.164062 77.667969 C 54.253906 77.84375 54.371094 78.03125 54.257812 78.25 Z M 54.257812 78.25 " fill-opacity="1" fill-rule="nonzero"/><path fill="#fe9a50" d="M 57.347656 18.066406 C 56.898438 17.816406 56.242188 17.882812 56.070312 17.210938 C 56.308594 16.519531 56.824219 16.59375 57.359375 16.746094 C 59.515625 17.371094 61.402344 18.523438 63.230469 19.789062 C 64.210938 20.464844 65.148438 21.199219 66.03125 21.996094 C 66.515625 22.429688 67.023438 22.515625 67.601562 22.226562 C 67.933594 22.492188 67.601562 22.535156 67.457031 22.601562 C 66.503906 23.039062 65.554688 23.46875 64.636719 23.984375 C 63.425781 24.671875 62.40625 25.628906 61.269531 26.421875 C 60.539062 26.933594 59.808594 27.433594 58.933594 27.664062 C 58.757812 27.710938 58.535156 27.828125 58.667969 27.460938 C 58.710938 27.148438 58.980469 27.027344 59.1875 26.871094 C 59.875 26.351562 60.554688 25.820312 61.214844 25.269531 C 61.496094 25.046875 61.402344 24.777344 61.316406 24.507812 C 60.699219 22.570312 59.917969 20.707031 58.765625 19.015625 C 58.40625 18.5 58.015625 18.082031 57.347656 18.066406 Z M 57.347656 18.066406 " fill-opacity="1" fill-rule="nonzero"/><path fill="#e3ded6" d="M 94.824219 89.335938 C 95.425781 90.164062 95.722656 91.085938 95.636719 92.117188 C 95.589844 92.675781 95.640625 92.945312 96.359375 92.785156 C 99.058594 92.179688 101.09375 90.808594 102.03125 88.074219 C 102.074219 87.953125 102.050781 87.554688 102.359375 87.914062 C 102.125 91.847656 100.503906 94.953125 97.015625 96.9375 C 95.835938 96.832031 95.046875 96.015625 95.027344 94.839844 C 95.015625 94.277344 94.9375 93.699219 95.257812 93.132812 C 94.691406 93.09375 94.179688 93.003906 93.695312 92.800781 C 93.429688 92.691406 93.113281 92.601562 93.152344 92.207031 C 93.402344 91.527344 93.652344 90.855469 93.894531 90.179688 C 94.058594 89.726562 94.457031 89.554688 94.824219 89.335938 Z M 94.824219 89.335938 " fill-opacity="1" fill-rule="nonzero"/><path fill="#c9bbb5" d="M 93.152344 92.203125 C 93.5625 92.769531 94.230469 92.792969 94.808594 92.871094 C 95.324219 92.9375 95.390625 92.984375 95.300781 93.53125 C 95.136719 94.558594 94.980469 95.636719 96.007812 96.417969 C 96.324219 96.660156 96.757812 96.625 97.015625 96.9375 C 95.550781 97.910156 93.894531 98.3125 92.195312 98.570312 C 90.484375 98.828125 90.484375 98.792969 89.871094 97.214844 C 89.800781 97.039062 89.808594 96.941406 89.949219 96.804688 C 91.339844 95.496094 92.300781 93.886719 93.152344 92.203125 Z M 93.152344 92.203125 " fill-opacity="1" fill-rule="nonzero"/><path fill="#fe9c51" d="M 54.257812 78.25 C 53.1875 76.328125 52.125 74.402344 51.03125 72.492188 C 50.894531 72.25 50.855469 71.976562 50.714844 71.75 C 51.265625 70.613281 51.988281 69.582031 52.632812 68.460938 C 52.914062 68.730469 52.875 69.070312 52.941406 69.351562 C 53.542969 72.027344 54.628906 74.523438 55.644531 77.054688 C 55.742188 77.304688 55.820312 77.566406 55.902344 77.832031 C 55.359375 77.96875 54.808594 78.113281 54.257812 78.25 Z M 54.257812 78.25 " fill-opacity="1" fill-rule="nonzero"/><path fill="#fcfdfc" d="M 86.445312 99.679688 C 86.414062 99.144531 86.273438 98.644531 86.023438 98.179688 C 85.859375 97.878906 85.648438 97.609375 85.273438 97.796875 C 84.898438 97.984375 85.054688 98.289062 85.183594 98.5625 C 85.414062 99.050781 85.527344 99.554688 85.4375 100.09375 C 85.125 100.390625 84.71875 100.503906 84.320312 100.558594 C 83.847656 100.625 83.4375 100.90625 82.960938 100.925781 C 82.917969 99.527344 82.335938 98.359375 81.476562 97.300781 C 81.363281 97.164062 81.15625 97.042969 81.222656 96.84375 C 81.304688 96.59375 81.570312 96.671875 81.757812 96.65625 C 83.3125 96.53125 84.859375 96.4375 86.402344 96.777344 C 87.171875 96.949219 87.867188 97.300781 88.449219 97.820312 C 89.03125 98.339844 89.269531 99.023438 89.148438 99.8125 C 88.296875 100.007812 88.296875 100.007812 88.277344 99.113281 C 88.277344 99.023438 88.277344 98.933594 88.234375 98.851562 C 88.21875 98.761719 88.226562 98.660156 88.183594 98.582031 C 88.015625 98.273438 88.03125 97.707031 87.460938 97.890625 C 86.914062 98.074219 87.296875 98.488281 87.339844 98.804688 C 87.394531 99.1875 87.429688 99.574219 87.359375 99.960938 C 86.914062 100.347656 86.695312 99.964844 86.445312 99.679688 Z M 86.445312 99.679688 " fill-opacity="1" fill-rule="nonzero"/><path fill="#febd6e" d="M 84.804688 34.644531 C 85.433594 35.042969 85.613281 35.734375 85.855469 36.351562 C 86.351562 37.617188 86.609375 38.941406 86.5625 40.3125 C 86.550781 40.546875 86.550781 40.773438 86.691406 40.976562 C 86.605469 40.992188 86.519531 41.011719 86.433594 41.035156 C 86.324219 40.890625 86.1875 40.753906 86.105469 40.597656 C 85.445312 39.300781 84.339844 38.824219 82.949219 38.804688 C 82.09375 38.796875 81.339844 38.5 80.757812 37.835938 C 80.59375 37.65625 80.453125 37.46875 80.765625 37.296875 C 80.941406 37.050781 81.207031 37.082031 81.453125 37.082031 C 82.859375 37.070312 83.832031 36.390625 84.445312 35.140625 C 84.539062 34.957031 84.59375 34.746094 84.804688 34.644531 Z M 84.804688 34.644531 " fill-opacity="1" fill-rule="nonzero"/><path fill="#fcfcfc" d="M 54.644531 98.949219 C 54.679688 98.796875 54.699219 98.636719 54.757812 98.492188 C 54.890625 98.160156 54.828125 97.953125 54.464844 97.804688 C 54.046875 97.632812 54.027344 97.964844 53.910156 98.183594 C 53.867188 98.257812 53.847656 98.351562 53.820312 98.429688 C 53.566406 98.636719 53.308594 98.777344 52.988281 98.5625 C 53.433594 97.769531 54.121094 97.265625 54.960938 96.980469 C 56.558594 96.4375 58.199219 96.480469 59.84375 96.675781 C 60.355469 96.738281 60.390625 96.949219 60.089844 97.332031 C 59.4375 98.148438 58.976562 99.066406 58.757812 100.089844 C 58.703125 100.371094 58.546875 100.542969 58.25 100.535156 C 57.792969 100.515625 57.34375 100.460938 56.925781 100.273438 C 56.382812 100.023438 56.476562 99.5625 56.566406 99.101562 C 56.539062 98.832031 56.703125 98.625 56.824219 98.410156 C 56.941406 98.1875 57 97.988281 56.742188 97.824219 C 56.492188 97.65625 56.265625 97.707031 56.089844 97.941406 C 55.824219 98.292969 55.679688 98.703125 55.585938 99.128906 C 55.453125 99.300781 55.714844 99.738281 55.316406 99.675781 C 54.988281 99.625 54.542969 99.5 54.644531 98.949219 Z M 54.644531 98.949219 " fill-opacity="1" fill-rule="nonzero"/><path fill="#dddbd7" d="M 98.675781 79.007812 C 98.496094 79.320312 98.253906 79.160156 98.011719 79.097656 C 97.148438 78.875 96.277344 78.742188 95.382812 78.78125 C 94.59375 78.8125 94.46875 78.9375 94.390625 79.746094 C 94.347656 80.226562 94.605469 80.695312 94.382812 81.167969 C 94.121094 80.152344 93.863281 79.136719 93.605469 78.121094 C 93.550781 77.917969 93.609375 77.835938 93.828125 77.816406 C 95.570312 77.6875 97.234375 77.886719 98.675781 79.007812 Z M 98.675781 79.007812 " fill-opacity="1" fill-rule="nonzero"/><path fill="#e5dfdd" d="M 56.582031 99.109375 C 56.632812 99.484375 56.449219 100.003906 57.027344 100.09375 C 57.601562 100.179688 58.1875 100.675781 58.765625 100.09375 C 58.742188 100.695312 58.738281 101.292969 59.164062 101.804688 C 57.304688 102.148438 56.058594 100.800781 56.582031 99.109375 Z M 56.582031 99.109375 " fill-opacity="1" fill-rule="nonzero"/><path fill="#e4ddd5" d="M 82.960938 100.925781 C 83.183594 100.652344 83.445312 100.519531 83.8125 100.472656 C 84.363281 100.402344 84.898438 100.222656 85.445312 100.09375 C 85.25 101.601562 84.675781 101.976562 82.660156 101.871094 C 82.761719 101.546875 82.859375 101.234375 82.960938 100.925781 Z M 82.960938 100.925781 " fill-opacity="1" fill-rule="nonzero"/><path fill="#ede4e5" d="M 52.992188 98.570312 C 53.269531 98.527344 53.542969 98.480469 53.824219 98.4375 C 53.519531 99.566406 53.734375 100.605469 54.398438 101.578125 C 53.132812 101.511719 52.398438 99.886719 52.992188 98.570312 Z M 52.992188 98.570312 " fill-opacity="1" fill-rule="nonzero"/><path fill="#fabe79" d="M 55.910156 43.402344 C 55.699219 43.4375 55.496094 43.46875 55.289062 43.503906 C 54.613281 42.257812 54.613281 42.257812 56 42.113281 C 56.5625 42.054688 57.121094 41.910156 57.695312 41.992188 C 57.148438 42.523438 56.605469 43.0625 55.910156 43.402344 Z M 55.910156 43.402344 " fill-opacity="1" fill-rule="nonzero"/><path fill="#e8e3e4" d="M 94.5625 83.605469 C 95.722656 84.476562 95.613281 86.65625 94.425781 87.621094 C 94.609375 86.3125 94.605469 85 94.5625 83.605469 Z M 94.5625 83.605469 " fill-opacity="1" fill-rule="nonzero"/><path fill="#e8dddc" d="M 54.644531 98.949219 C 54.703125 99.375 55.214844 99.257812 55.335938 99.675781 C 55.453125 99.429688 55.523438 99.28125 55.597656 99.128906 C 55.488281 100.042969 55.6875 100.890625 56.183594 101.679688 C 55.199219 101.820312 54.308594 100.207031 54.644531 98.949219 Z M 54.644531 98.949219 " fill-opacity="1" fill-rule="nonzero"/><path fill="#e5dee0" d="M 86.445312 99.679688 C 86.761719 99.742188 86.988281 100.089844 87.363281 99.957031 C 87.140625 100.820312 86.875 101.652344 85.675781 101.890625 C 86.1875 101.160156 86.460938 100.460938 86.445312 99.679688 Z M 86.445312 99.679688 " fill-opacity="1" fill-rule="nonzero"/><path fill="#e3dadc" d="M 88.238281 98.851562 C 88.484375 99.136719 88.300781 99.503906 88.417969 99.847656 C 88.660156 99.828125 88.902344 99.429688 89.15625 99.8125 C 89.03125 100.78125 88.515625 101.445312 87.640625 101.632812 C 88.195312 100.734375 88.347656 99.820312 88.238281 98.851562 Z M 88.238281 98.851562 " fill-opacity="1" fill-rule="nonzero"/><path fill="#f49f5d" d="M 87.539062 42.921875 C 87.148438 42.792969 86.851562 42.535156 86.585938 42.234375 C 86.578125 42.148438 86.570312 42.066406 86.5625 41.980469 C 86.984375 42.039062 87.410156 42.089844 87.847656 42.148438 C 87.816406 42.457031 87.703125 42.703125 87.539062 42.921875 Z M 87.539062 42.921875 " fill-opacity="1" fill-rule="nonzero"/><path fill="#3b0515" d="M 66.511719 37.296875 C 65.332031 37.324219 64.234375 37.125 63.402344 36.171875 C 63.125 35.855469 62.894531 35.523438 62.738281 35.132812 C 62.398438 34.265625 62.621094 33.605469 63.421875 33.148438 C 65.179688 32.140625 67.816406 32.425781 69.46875 33.796875 C 69.867188 35.117188 68.691406 36.691406 67.089844 37.128906 C 66.894531 37.1875 66.703125 37.246094 66.511719 37.296875 Z M 66.511719 37.296875 " fill-opacity="1" fill-rule="nonzero"/><path fill="#3c0416" d="M 84.804688 34.644531 C 84.414062 36.242188 83.195312 37.246094 81.589844 37.28125 C 81.320312 37.289062 81.046875 37.292969 80.773438 37.296875 C 79.074219 36.847656 77.703125 35.550781 78.050781 33.707031 C 79.851562 32.347656 81.773438 32.210938 83.792969 33.136719 C 84.429688 33.433594 84.808594 33.914062 84.804688 34.644531 Z M 84.804688 34.644531 " fill-opacity="1" fill-rule="nonzero"/><path fill="#390917" d="M 74.125 35.871094 C 74.523438 35.90625 75.03125 35.8125 75.519531 36.015625 C 76.394531 36.375 76.609375 37.257812 75.980469 37.957031 C 75.855469 38.089844 75.722656 38.25 75.5625 38.308594 C 74.601562 38.667969 74.628906 39.46875 74.636719 40.28125 C 74.648438 41.0625 75.148438 41.472656 75.722656 41.84375 C 76.289062 42.210938 76.914062 42.414062 77.566406 42.515625 C 77.855469 42.5625 78.066406 42.664062 78.035156 42.976562 C 78.007812 43.292969 77.757812 43.378906 77.480469 43.363281 C 76.316406 43.316406 75.296875 42.90625 74.488281 42.0625 C 74.222656 41.785156 74.125 41.777344 73.84375 42.070312 C 73.070312 42.875 72.097656 43.300781 70.976562 43.363281 C 70.65625 43.382812 70.328125 43.359375 70.257812 42.996094 C 70.183594 42.585938 70.523438 42.542969 70.832031 42.488281 C 71.121094 42.433594 71.410156 42.363281 71.691406 42.261719 C 73.316406 41.703125 73.902344 40.597656 73.515625 38.921875 C 73.46875 38.722656 73.347656 38.671875 73.214844 38.59375 C 73.160156 38.5625 73.09375 38.539062 73.035156 38.503906 C 72.101562 37.992188 71.699219 37.394531 71.875 36.769531 C 72.039062 36.164062 72.605469 35.878906 73.683594 35.871094 C 73.800781 35.871094 73.914062 35.871094 74.125 35.871094 Z M 74.125 35.871094 " fill-opacity="1" fill-rule="nonzero"/><path fill="#430315" d="M 57.347656 18.066406 C 57.820312 17.730469 58.148438 17.957031 58.457031 18.328125 C 59.230469 19.277344 59.824219 20.335938 60.335938 21.449219 C 60.828125 22.511719 61.230469 23.601562 61.566406 24.730469 C 61.671875 25.074219 61.671875 25.316406 61.265625 25.40625 C 60.859375 25.367188 60.789062 25.003906 60.65625 24.734375 C 59.859375 23.101562 58.960938 21.523438 58.007812 19.851562 C 58.058594 21.75 58.246094 23.53125 58.167969 25.320312 C 58.15625 25.636719 58.230469 25.96875 58.011719 26.253906 C 58.007812 26.671875 58.011719 27.082031 58 27.496094 C 57.988281 27.691406 58.046875 27.945312 57.757812 27.996094 C 57.429688 28.054688 57.371094 27.773438 57.34375 27.558594 C 57.222656 26.605469 57.089844 25.644531 57.023438 24.6875 C 56.902344 22.898438 56.769531 21.109375 56.988281 19.316406 C 57.046875 18.867188 57.125 18.449219 57.347656 18.066406 Z M 57.347656 18.066406 " fill-opacity="1" fill-rule="nonzero"/><path fill="#febeab" d="M 58.011719 26.25 C 58.011719 23.984375 58.011719 21.714844 58.011719 19.488281 C 59.175781 21.335938 60.183594 23.390625 61.265625 25.402344 C 60.480469 26.199219 59.542969 26.792969 58.65625 27.460938 C 58.199219 27.675781 58.015625 27.5625 58.082031 27.03125 C 58.113281 26.773438 58.167969 26.492188 58.011719 26.25 Z M 58.011719 26.25 " fill-opacity="1" fill-rule="nonzero"/><path fill="#3f0214" d="M 82.296875 25.507812 C 81.832031 25.539062 81.726562 25.316406 81.871094 24.910156 C 82.722656 22.511719 83.855469 20.265625 85.519531 18.324219 C 85.703125 18.105469 85.898438 17.804688 86.25 17.914062 C 86.609375 18.023438 86.667969 18.355469 86.71875 18.6875 C 86.960938 20.25 86.800781 21.816406 86.652344 23.371094 C 86.523438 24.695312 86.316406 26.011719 86.136719 27.332031 C 86.039062 28.015625 85.941406 28.066406 85.433594 27.714844 C 85.171875 27.265625 85.226562 26.769531 85.277344 26.296875 C 85.480469 24.285156 85.46875 22.261719 85.65625 20.1875 C 84.628906 21.730469 83.738281 23.289062 82.855469 24.847656 C 82.707031 25.101562 82.628906 25.410156 82.296875 25.507812 Z M 82.296875 25.507812 " fill-opacity="1" fill-rule="nonzero"/><path fill="#fdc0ac" d="M 82.296875 25.507812 C 83.324219 23.488281 84.519531 21.578125 85.867188 19.703125 C 85.722656 22.371094 85.578125 25.039062 85.433594 27.710938 C 84.351562 27.027344 83.304688 26.292969 82.296875 25.507812 Z M 82.296875 25.507812 " fill-opacity="1" fill-rule="nonzero"/><path fill="#fefefe" d="M 89.183594 83.613281 C 89.320312 83.800781 89.453125 83.992188 89.589844 84.183594 C 89.601562 86.246094 89.183594 88.195312 88.054688 89.945312 C 87.546875 90.734375 86.789062 91.074219 86.105469 90.871094 C 85.226562 90.605469 84.683594 89.871094 84.632812 88.933594 C 84.527344 86.988281 85.121094 85.171875 85.679688 83.355469 C 85.933594 82.542969 86.261719 81.761719 86.546875 80.964844 C 86.605469 80.800781 86.667969 80.667969 86.816406 80.585938 C 87.050781 80.597656 87.195312 80.75 87.316406 80.910156 C 87.972656 81.789062 88.738281 82.589844 89.183594 83.613281 Z M 89.183594 83.613281 " fill-opacity="1" fill-rule="nonzero"/><path fill="#fdc070" d="M 89.183594 83.613281 C 88.394531 82.605469 87.609375 81.59375 86.824219 80.585938 C 86.785156 80.496094 86.746094 80.402344 86.707031 80.3125 C 87.222656 79.671875 87.246094 79.660156 87.691406 80.378906 C 88.320312 81.386719 88.882812 82.4375 89.183594 83.613281 Z M 89.183594 83.613281 " fill-opacity="1" fill-rule="nonzero"/><path fill="#f9f7f7" d="M 64.636719 34.238281 C 64.609375 34.992188 64.601562 35.71875 65.125 36.367188 C 64.070312 36.035156 63.714844 35.652344 63.4375 34.746094 C 63.324219 34.375 63.367188 34.226562 63.761719 34.238281 C 64.035156 34.246094 64.304688 34.238281 64.636719 34.238281 Z M 64.636719 34.238281 " fill-opacity="1" fill-rule="nonzero"/><path fill="#f8f6f7" d="M 82.164062 36.457031 C 82.613281 35.890625 82.703125 35.359375 82.71875 34.804688 C 82.722656 34.65625 82.566406 34.394531 82.878906 34.375 C 83.222656 34.355469 83.589844 34.292969 83.882812 34.492188 C 84.089844 34.632812 83.949219 34.871094 83.871094 35.050781 C 83.558594 35.742188 83.039062 36.191406 82.164062 36.457031 Z M 82.164062 36.457031 " fill-opacity="1" fill-rule="nonzero"/><path fill="#f8b6b4" d="M 74.050781 36.726562 C 74.382812 36.753906 74.722656 36.773438 75.066406 36.8125 C 75.234375 36.828125 75.449219 36.828125 75.449219 37.101562 C 75.449219 37.300781 75.402344 37.488281 75.203125 37.550781 C 74.761719 37.683594 74.472656 37.90625 74.328125 38.398438 C 74.238281 38.722656 73.917969 38.585938 73.871094 38.324219 C 73.769531 37.816406 73.449219 37.605469 73.011719 37.46875 C 72.835938 37.410156 72.660156 37.3125 72.679688 37.085938 C 72.699219 36.855469 72.921875 36.8125 73.089844 36.785156 C 73.394531 36.738281 73.71875 36.742188 74.050781 36.726562 Z M 74.050781 36.726562 " fill-opacity="1" fill-rule="nonzero"/><path fill="#380414" d="M 47.121094 39.078125 C 47.058594 38.777344 47.257812 38.480469 47.558594 38.421875 C 52.214844 37.558594 56.28125 38.144531 57.734375 38.417969 C 58.042969 38.476562 58.234375 38.78125 58.164062 39.085938 L 58.164062 39.089844 C 58.097656 39.375 57.824219 39.558594 57.539062 39.503906 C 56.167969 39.253906 52.203125 38.683594 47.753906 39.511719 C 47.457031 39.558594 47.179688 39.367188 47.121094 39.078125 Z M 47.121094 39.078125 " fill-opacity="1" fill-rule="nonzero"/><path fill="#380414" d="M 58.066406 36.929688 C 58.058594 36.929688 58.058594 36.929688 58.066406 36.929688 L 58.34375 36.457031 Z M 57.609375 36.675781 C 56.464844 36.066406 53.3125 34.535156 50.175781 34.378906 C 49.886719 34.363281 49.652344 34.125 49.652344 33.828125 C 49.652344 33.515625 49.914062 33.265625 50.226562 33.28125 C 53.609375 33.449219 56.894531 35.046875 58.117188 35.703125 C 58.390625 35.851562 58.488281 36.199219 58.324219 36.46875 C 58.183594 36.726562 57.867188 36.816406 57.609375 36.675781 Z M 57.609375 36.675781 " fill-opacity="1" fill-rule="nonzero"/><path fill="#380414" d="M 96.589844 39.703125 C 92.863281 38.292969 88.378906 38.949219 86.890625 39.230469 C 86.605469 39.28125 86.324219 39.101562 86.257812 38.820312 C 86.1875 38.511719 86.382812 38.207031 86.683594 38.152344 C 87.335938 38.027344 88.503906 37.839844 89.941406 37.765625 C 91.832031 37.664062 94.527344 37.753906 96.972656 38.675781 C 97.269531 38.785156 97.410156 39.121094 97.28125 39.410156 C 97.167969 39.675781 96.863281 39.800781 96.589844 39.703125 Z M 96.589844 39.703125 " fill-opacity="1" fill-rule="nonzero"/><path fill="#380414" d="M 85.867188 36.375 C 85.742188 36.085938 85.882812 35.753906 86.179688 35.640625 C 87.433594 35.179688 90.722656 34.128906 94.324219 34.339844 C 94.632812 34.359375 94.863281 34.632812 94.835938 34.941406 C 94.808594 35.238281 94.558594 35.457031 94.261719 35.4375 C 90.882812 35.246094 87.722656 36.246094 86.550781 36.675781 C 86.277344 36.773438 85.980469 36.644531 85.867188 36.375 Z M 85.867188 36.375 " fill-opacity="1" fill-rule="nonzero"/><g fill="#000000" fill-opacity="1"><g transform="translate(21.667969, 114.449988)"><g><path d="M 8.988281 -8.578125 C 8.890625 -9.035156 8.566406 -9.359375 8.148438 -9.40625 C 7.691406 -9.46875 7.285156 -9.214844 7.117188 -8.796875 C 6.984375 -8.460938 6.898438 -8.101562 6.886719 -7.765625 C 6.839844 -6.839844 6.816406 -5.902344 6.792969 -4.992188 C 6.78125 -4.621094 6.769531 -4.246094 6.757812 -3.875 C 6.757812 -3.78125 6.742188 -3.683594 6.742188 -3.589844 L 6.730469 -3.371094 L 6.421875 -3.253906 L 5.832031 -4.019531 C 5.4375 -4.523438 5.050781 -5.015625 4.667969 -5.519531 C 4.453125 -5.808594 4.234375 -6.109375 4.007812 -6.394531 C 3.625 -6.910156 3.226562 -7.441406 2.820312 -7.945312 C 2.652344 -8.171875 2.425781 -8.363281 2.171875 -8.507812 C 2.003906 -8.605469 1.8125 -8.664062 1.632812 -8.664062 C 1.523438 -8.664062 1.414062 -8.640625 1.308594 -8.605469 C 1.019531 -8.507812 0.792969 -8.28125 0.660156 -7.96875 C 0.589844 -7.777344 0.539062 -7.597656 0.527344 -7.429688 C 0.359375 -5.496094 0.421875 -3.433594 0.71875 -0.9375 C 0.742188 -0.757812 0.816406 -0.550781 0.9375 -0.359375 C 1.066406 -0.144531 1.273438 -0.0234375 1.464844 -0.0351562 C 1.667969 -0.046875 1.847656 -0.191406 1.96875 -0.421875 C 2.050781 -0.601562 2.113281 -0.804688 2.113281 -0.972656 C 2.160156 -1.980469 2.195312 -3 2.230469 -3.984375 L 2.257812 -4.777344 C 2.269531 -4.859375 2.257812 -4.957031 2.257812 -5.039062 L 2.257812 -5.4375 L 2.472656 -5.28125 C 2.640625 -5.148438 2.746094 -5.003906 2.832031 -4.871094 L 2.890625 -4.800781 C 3.058594 -4.558594 3.226562 -4.308594 3.40625 -4.066406 C 3.816406 -3.480469 4.246094 -2.867188 4.714844 -2.328125 C 5.113281 -1.859375 5.722656 -1.199219 6.445312 -0.792969 C 7.140625 -0.394531 7.738281 -0.3125 8.183594 -0.550781 C 8.628906 -0.804688 8.878906 -1.378906 8.914062 -2.195312 C 8.976562 -3.742188 9 -5.316406 9.035156 -6.839844 L 9.046875 -7.824219 C 9.058594 -8.089844 9.035156 -8.339844 8.988281 -8.578125 Z M 8.988281 -8.578125 "/></g></g></g><g fill="#000000" fill-opacity="1"><g transform="translate(31.183982, 114.449988)"><g><path d="M 4.222656 -5.628906 C 3.949219 -5.664062 3.671875 -5.710938 3.394531 -5.785156 C 2.902344 -5.929688 2.4375 -5.867188 2.003906 -5.605469 C 1.007812 -5.003906 0.371094 -4.140625 0.203125 -2.976562 C 0.0585938 -1.980469 0.503906 -1.199219 1.453125 -0.875 C 1.933594 -0.707031 2.4375 -0.648438 2.929688 -0.539062 C 3.671875 -0.527344 4.285156 -0.769531 4.800781 -1.273438 C 5.425781 -1.871094 5.746094 -2.628906 5.867188 -3.480469 C 6.011719 -4.558594 5.316406 -5.472656 4.222656 -5.628906 Z M 3.875 -3.324219 C 3.648438 -2.664062 3.421875 -2.449219 2.953125 -2.472656 C 2.015625 -2.519531 1.871094 -2.785156 2.339844 -3.613281 C 2.375 -3.671875 2.410156 -3.730469 2.449219 -3.792969 C 2.902344 -4.464844 3 -4.464844 3.660156 -4.007812 C 3.925781 -3.816406 3.984375 -3.625 3.875 -3.324219 Z M 3.875 -3.324219 "/></g></g></g><g fill="#000000" fill-opacity="1"><g transform="translate(37.363997, 114.449988)"><g/></g></g><g fill="#000000" fill-opacity="1"><g transform="translate(40.808005, 114.449988)"><g><path d="M 3.058594 -8.773438 C 2.136719 -8.398438 1.5 -7.726562 1.246094 -6.707031 C 1.117188 -6.203125 1.078125 -5.6875 1.03125 -5.171875 C 1.007812 -4.921875 0.972656 -4.753906 0.757812 -4.609375 C 0.324219 -4.332031 0.324219 -3.707031 0.78125 -3.480469 C 1.164062 -3.289062 1.246094 -3 1.285156 -2.617188 C 1.296875 -2.351562 1.308594 -2.0625 1.402344 -1.8125 C 1.597656 -1.273438 1.824219 -0.742188 2.089844 -0.238281 C 2.160156 -0.0976562 2.449219 0.0351562 2.59375 0 C 2.761719 -0.046875 2.914062 -0.277344 3.011719 -0.457031 C 3.085938 -0.601562 3.070312 -0.804688 3.070312 -0.984375 C 3.058594 -1.597656 3.058594 -2.207031 3.023438 -2.820312 C 3.011719 -3.097656 3.085938 -3.179688 3.335938 -3.191406 C 3.660156 -3.214844 3.984375 -3.238281 4.285156 -3.324219 C 4.765625 -3.445312 5.039062 -3.851562 4.980469 -4.308594 C 4.933594 -4.738281 4.585938 -5.039062 4.105469 -5.0625 C 3.996094 -5.074219 3.875 -5.0625 3.769531 -5.050781 C 2.914062 -4.980469 2.941406 -4.789062 3 -5.914062 C 3.011719 -5.976562 3.023438 -6.023438 3.035156 -6.070312 C 3.179688 -6.71875 3.527344 -7.019531 4.152344 -7.019531 C 4.355469 -7.03125 4.558594 -7.03125 4.765625 -7.042969 C 5.050781 -7.054688 5.316406 -7.128906 5.410156 -7.441406 C 5.53125 -7.777344 5.398438 -8.0625 5.160156 -8.28125 C 4.738281 -8.6875 4.210938 -8.84375 3.601562 -8.914062 C 3.445312 -8.878906 3.238281 -8.84375 3.058594 -8.773438 Z M 3.058594 -8.773438 "/></g></g></g><g fill="#000000" fill-opacity="1"><g transform="translate(46.736021, 114.449988)"><g><path d="M 5.375 -4.765625 C 5.230469 -5.28125 4.859375 -5.640625 4.378906 -5.890625 C 3.613281 -6.277344 2.855469 -6.253906 2.101562 -5.84375 C 1.992188 -6.097656 1.957031 -6.359375 1.800781 -6.527344 C 1.632812 -6.707031 1.355469 -6.898438 1.140625 -6.875 C 0.9375 -6.863281 0.71875 -6.601562 0.5625 -6.40625 C 0.480469 -6.3125 0.480469 -6.121094 0.480469 -5.976562 C 0.457031 -4.546875 0.445312 -3.109375 0.445312 -1.679688 C 0.433594 -1.535156 0.46875 -1.378906 0.503906 -1.234375 C 0.636719 -0.660156 1.09375 -0.300781 1.65625 -0.335938 C 2.195312 -0.371094 2.628906 -0.792969 2.6875 -1.367188 C 2.710938 -1.644531 2.628906 -1.933594 2.6875 -2.183594 C 2.820312 -2.761719 2.988281 -3.335938 3.179688 -3.886719 C 3.289062 -4.199219 3.539062 -4.261719 3.851562 -4.117188 C 4.078125 -3.996094 4.320312 -3.851562 4.570312 -3.839844 C 4.800781 -3.816406 5.136719 -3.863281 5.269531 -4.019531 C 5.398438 -4.1875 5.449219 -4.535156 5.375 -4.765625 Z M 5.375 -4.765625 "/></g></g></g><g fill="#000000" fill-opacity="1"><g transform="translate(52.604036, 114.449988)"><g><path d="M 2.21875 -5.125 C 2.207031 -5.460938 2.027344 -5.722656 1.667969 -5.773438 C 1.296875 -5.820312 1.019531 -5.605469 0.960938 -5.269531 C 0.757812 -4.105469 0.550781 -2.914062 0.445312 -1.738281 C 0.382812 -1.117188 0.769531 -0.71875 1.199219 -0.683594 C 1.644531 -0.648438 2.003906 -1.019531 2.125 -1.65625 C 2.160156 -1.894531 2.183594 -2.148438 2.195312 -2.386719 C 2.207031 -2.746094 2.242188 -4.570312 2.21875 -5.125 Z M 1.332031 -6.804688 C 1.726562 -6.792969 2.089844 -7.152344 2.101562 -7.597656 C 2.101562 -8.003906 1.789062 -8.328125 1.378906 -8.316406 C 0.972656 -8.316406 0.636719 -7.992188 0.636719 -7.570312 C 0.636719 -7.152344 0.9375 -6.816406 1.332031 -6.804688 Z M 1.332031 -6.804688 "/></g></g></g><g fill="#000000" fill-opacity="1"><g transform="translate(55.292047, 114.449988)"><g><path d="M 5.171875 -5.808594 C 4.703125 -6.289062 4.128906 -6.601562 3.46875 -6.71875 C 2.507812 -6.898438 1.632812 -6.515625 1.09375 -5.710938 C 0.683594 -5.089844 0.515625 -4.390625 0.457031 -3.660156 C 0.300781 -1.90625 1.511719 -0.445312 3.71875 -0.671875 C 4.03125 -0.695312 4.402344 -0.910156 4.632812 -1.140625 C 5.050781 -1.585938 4.90625 -2.113281 4.332031 -2.292969 C 3.9375 -2.425781 3.503906 -2.4375 3.097656 -2.507812 C 2.878906 -2.554688 2.675781 -2.628906 2.460938 -2.699219 C 3.203125 -2.832031 3.925781 -2.878906 4.570312 -3.109375 C 5.808594 -3.539062 6.085938 -4.859375 5.171875 -5.808594 Z M 4.105469 -4.65625 C 3.5625 -4.597656 3.011719 -4.535156 2.410156 -4.476562 C 2.507812 -4.835938 2.664062 -5.113281 3.023438 -5.21875 C 3.433594 -5.339844 3.9375 -5.136719 4.246094 -4.714844 C 4.175781 -4.679688 4.140625 -4.65625 4.105469 -4.65625 Z M 4.105469 -4.65625 "/></g></g></g><g fill="#000000" fill-opacity="1"><g transform="translate(61.460058, 114.449988)"><g><path d="M 5.53125 -5.183594 C 4.859375 -6.085938 3.816406 -6.226562 2.902344 -5.578125 C 2.640625 -5.386719 2.398438 -5.160156 2.125 -4.921875 C 2.074219 -5.015625 2.050781 -5.074219 2.027344 -5.148438 C 1.921875 -5.519531 1.753906 -5.867188 1.296875 -5.855469 C 0.816406 -5.832031 0.671875 -5.4375 0.636719 -5.050781 C 0.550781 -3.949219 0.46875 -2.84375 0.445312 -1.738281 C 0.421875 -1.128906 0.828125 -0.707031 1.355469 -0.648438 C 1.882812 -0.589844 2.339844 -0.925781 2.484375 -1.535156 C 2.675781 -2.386719 3.144531 -3.097656 3.671875 -3.769531 C 3.757812 -3.875 3.875 -3.949219 4.042969 -4.105469 C 4.105469 -3.792969 4.140625 -3.589844 4.164062 -3.371094 C 4.246094 -2.808594 4.285156 -2.21875 4.429688 -1.65625 C 4.546875 -1.175781 4.957031 -0.9375 5.375 -0.949219 C 5.761719 -0.972656 6.132812 -1.261719 6.203125 -1.738281 C 6.394531 -2.964844 6.289062 -4.152344 5.53125 -5.183594 Z M 5.53125 -5.183594 "/></g></g></g><g fill="#000000" fill-opacity="1"><g transform="translate(68.204072, 114.449988)"><g><path d="M 6.070312 -8.746094 C 6.058594 -8.976562 6.035156 -9.253906 5.902344 -9.40625 C 5.746094 -9.589844 5.472656 -9.769531 5.242188 -9.757812 C 5.050781 -9.742188 4.847656 -9.492188 4.714844 -9.300781 C 4.621094 -9.167969 4.644531 -8.964844 4.632812 -8.785156 C 4.558594 -7.835938 4.5 -6.886719 4.429688 -5.902344 C 4.308594 -5.941406 4.210938 -5.964844 4.128906 -5.988281 C 2.410156 -6.589844 1.210938 -6.011719 0.648438 -4.285156 C 0.574219 -4.054688 0.515625 -3.828125 0.480469 -3.601562 C 0.238281 -2.101562 1.03125 -0.828125 2.386719 -0.527344 C 3.023438 -0.382812 3.636719 -0.492188 4.222656 -0.742188 C 4.367188 -0.804688 4.546875 -0.851562 4.679688 -0.804688 C 5.507812 -0.515625 6.070312 -0.863281 6.085938 -1.753906 C 6.097656 -4.078125 6.085938 -6.421875 6.070312 -8.746094 Z M 4.152344 -2.808594 C 3.769531 -2.6875 3.371094 -2.578125 2.976562 -2.472656 C 2.652344 -2.484375 2.425781 -2.652344 2.449219 -2.941406 C 2.496094 -3.324219 2.640625 -3.707031 2.785156 -4.078125 C 2.808594 -4.164062 2.988281 -4.222656 3.097656 -4.222656 C 3.636719 -4.246094 4.308594 -3.574219 4.273438 -3.035156 C 4.273438 -2.953125 4.210938 -2.832031 4.152344 -2.808594 Z M 4.152344 -2.808594 "/></g></g></g><g fill="#000000" fill-opacity="1"><g transform="translate(74.744084, 114.449988)"><g><path d="M 4.570312 -3.46875 C 4.117188 -3.886719 3.503906 -4.152344 2.953125 -4.488281 C 2.796875 -4.585938 2.628906 -4.644531 2.425781 -4.753906 C 2.855469 -5.257812 3.277344 -5.328125 3.851562 -5.015625 C 4.117188 -4.882812 4.402344 -4.765625 4.609375 -5.003906 C 4.765625 -5.183594 4.859375 -5.496094 4.835938 -5.722656 C 4.765625 -6.324219 4.367188 -6.695312 3.804688 -6.875 C 2.664062 -7.234375 1.222656 -6.636719 0.671875 -5.578125 C 0.300781 -4.859375 0.359375 -4.09375 0.972656 -3.5625 C 1.367188 -3.226562 1.871094 -3.035156 2.339844 -2.808594 C 2.617188 -2.664062 2.914062 -2.59375 3.203125 -2.484375 C 3.191406 -2.4375 3.179688 -2.386719 3.167969 -2.328125 C 2.785156 -2.363281 2.410156 -2.398438 2.039062 -2.449219 C 1.488281 -2.507812 1.054688 -2.328125 0.886719 -1.945312 C 0.707031 -1.535156 0.816406 -0.996094 1.261719 -0.71875 C 1.644531 -0.480469 2.101562 -0.289062 2.53125 -0.253906 C 3.011719 -0.226562 3.515625 -0.347656 3.972656 -0.515625 C 5.375 -1.042969 5.675781 -2.449219 4.570312 -3.46875 Z M 4.570312 -3.46875 "/></g></g></g><g fill="#000000" fill-opacity="1"><g transform="translate(80.4441, 114.449988)"><g/></g></g><g fill="#000000" fill-opacity="1"><g transform="translate(83.888108, 114.449988)"><g><path d="M 3.550781 -2.269531 C 3.3125 -2.269531 3.085938 -2.242188 2.855469 -2.28125 C 2.425781 -2.339844 2.160156 -2.628906 2.171875 -3.058594 C 2.183594 -3.839844 2.4375 -4.535156 3.070312 -5.039062 C 3.527344 -5.386719 3.742188 -5.230469 4.066406 -4.765625 C 4.152344 -4.644531 4.332031 -4.523438 4.523438 -4.621094 C 4.632812 -4.679688 4.753906 -4.609375 4.882812 -4.921875 C 5.113281 -5.4375 4.765625 -6.085938 4.261719 -6.394531 C 3.730469 -6.730469 3.179688 -6.707031 2.617188 -6.46875 C 1.285156 -5.878906 0.394531 -4.441406 0.445312 -2.902344 C 0.46875 -1.789062 1.199219 -0.886719 2.292969 -0.648438 C 3.445312 -0.394531 4.414062 -0.828125 5.292969 -1.511719 C 5.425781 -1.621094 5.507812 -1.90625 5.460938 -2.074219 C 5.425781 -2.207031 5.148438 -2.328125 4.980469 -2.328125 C 4.5 -2.339844 4.019531 -2.292969 3.550781 -2.257812 C 3.550781 -2.269531 3.550781 -2.269531 3.550781 -2.269531 Z M 3.550781 -2.269531 "/></g></g></g><g fill="#000000" fill-opacity="1"><g transform="translate(89.828117, 114.449988)"><g><path d="M 4.222656 -5.628906 C 3.949219 -5.664062 3.671875 -5.710938 3.394531 -5.785156 C 2.902344 -5.929688 2.4375 -5.867188 2.003906 -5.605469 C 1.007812 -5.003906 0.371094 -4.140625 0.203125 -2.976562 C 0.0585938 -1.980469 0.503906 -1.199219 1.453125 -0.875 C 1.933594 -0.707031 2.4375 -0.648438 2.929688 -0.539062 C 3.671875 -0.527344 4.285156 -0.769531 4.800781 -1.273438 C 5.425781 -1.871094 5.746094 -2.628906 5.867188 -3.480469 C 6.011719 -4.558594 5.316406 -5.472656 4.222656 -5.628906 Z M 3.875 -3.324219 C 3.648438 -2.664062 3.421875 -2.449219 2.953125 -2.472656 C 2.015625 -2.519531 1.871094 -2.785156 2.339844 -3.613281 C 2.375 -3.671875 2.410156 -3.730469 2.449219 -3.792969 C 2.902344 -4.464844 3 -4.464844 3.660156 -4.007812 C 3.925781 -3.816406 3.984375 -3.625 3.875 -3.324219 Z M 3.875 -3.324219 "/></g></g></g><g fill="#000000" fill-opacity="1"><g transform="translate(96.008132, 114.449988)"><g><path d="M 5.878906 -2.015625 C 5.628906 -3.109375 5.398438 -4.199219 5.554688 -5.328125 C 5.566406 -5.410156 5.554688 -5.496094 5.554688 -5.578125 C 5.53125 -6.046875 5.242188 -6.371094 4.824219 -6.421875 C 4.390625 -6.46875 4.03125 -6.226562 3.910156 -5.773438 C 3.730469 -5.113281 3.613281 -4.441406 3.433594 -3.792969 C 3.324219 -3.445312 3.179688 -3.097656 2.964844 -2.808594 C 2.710938 -2.449219 2.460938 -2.496094 2.328125 -2.914062 C 2.21875 -3.277344 2.148438 -3.648438 2.113281 -4.03125 C 2.0625 -4.5 2.0625 -4.980469 2.039062 -5.460938 C 2.015625 -5.785156 1.921875 -6.058594 1.558594 -6.121094 C 1.222656 -6.179688 0.996094 -5.988281 0.886719 -5.699219 C 0.371094 -4.429688 0.253906 -3.132812 0.792969 -1.847656 C 1.273438 -0.730469 2.425781 -0.359375 3.492188 -0.925781 C 3.792969 -1.078125 4.054688 -1.296875 4.355469 -1.5 C 4.390625 -1.464844 4.402344 -1.453125 4.429688 -1.429688 C 4.726562 -0.910156 5.074219 -0.742188 5.472656 -0.898438 C 5.867188 -1.066406 6.011719 -1.476562 5.878906 -2.015625 Z M 5.878906 -2.015625 "/></g></g></g><g fill="#000000" fill-opacity="1"><g transform="translate(102.39215, 114.449988)"><g><path d="M 2.160156 -7.65625 C 2.136719 -7.96875 2.113281 -8.304688 1.96875 -8.566406 C 1.871094 -8.761719 1.597656 -8.976562 1.390625 -8.976562 C 1.1875 -8.976562 0.949219 -8.761719 0.792969 -8.578125 C 0.683594 -8.4375 0.648438 -8.207031 0.625 -8.003906 C 0.515625 -6.816406 0.421875 -3.023438 0.445312 -2.328125 C 0.445312 -2.027344 0.492188 -1.726562 0.5625 -1.441406 C 0.695312 -0.984375 1.019531 -0.71875 1.390625 -0.707031 C 1.765625 -0.695312 2.136719 -0.9375 2.257812 -1.390625 C 2.375 -1.90625 2.472656 -2.4375 2.449219 -2.964844 C 2.386719 -4.523438 2.269531 -6.097656 2.160156 -7.65625 Z M 2.160156 -7.65625 "/></g></g></g><g fill="#000000" fill-opacity="1"><g transform="translate(105.296157, 114.449988)"><g><path d="M 6.070312 -8.746094 C 6.058594 -8.976562 6.035156 -9.253906 5.902344 -9.40625 C 5.746094 -9.589844 5.472656 -9.769531 5.242188 -9.757812 C 5.050781 -9.742188 4.847656 -9.492188 4.714844 -9.300781 C 4.621094 -9.167969 4.644531 -8.964844 4.632812 -8.785156 C 4.558594 -7.835938 4.5 -6.886719 4.429688 -5.902344 C 4.308594 -5.941406 4.210938 -5.964844 4.128906 -5.988281 C 2.410156 -6.589844 1.210938 -6.011719 0.648438 -4.285156 C 0.574219 -4.054688 0.515625 -3.828125 0.480469 -3.601562 C 0.238281 -2.101562 1.03125 -0.828125 2.386719 -0.527344 C 3.023438 -0.382812 3.636719 -0.492188 4.222656 -0.742188 C 4.367188 -0.804688 4.546875 -0.851562 4.679688 -0.804688 C 5.507812 -0.515625 6.070312 -0.863281 6.085938 -1.753906 C 6.097656 -4.078125 6.085938 -6.421875 6.070312 -8.746094 Z M 4.152344 -2.808594 C 3.769531 -2.6875 3.371094 -2.578125 2.976562 -2.472656 C 2.652344 -2.484375 2.425781 -2.652344 2.449219 -2.941406 C 2.496094 -3.324219 2.640625 -3.707031 2.785156 -4.078125 C 2.808594 -4.164062 2.988281 -4.222656 3.097656 -4.222656 C 3.636719 -4.246094 4.308594 -3.574219 4.273438 -3.035156 C 4.273438 -2.953125 4.210938 -2.832031 4.152344 -2.808594 Z M 4.152344 -2.808594 "/></g></g></g><g fill="#000000" fill-opacity="1"><g transform="translate(111.836169, 114.449988)"><g/></g></g><g fill="#000000" fill-opacity="1"><g transform="translate(115.280177, 114.449988)"><g><path d="M 2.207031 -6.167969 C 2.339844 -7.164062 2.664062 -7.523438 2.734375 -8.53125 C 2.929688 -9.492188 2.4375 -9.78125 2.039062 -9.757812 C 1.546875 -9.71875 1.488281 -9.601562 1.414062 -9.445312 C 1.273438 -9.132812 1.152344 -8.785156 1.105469 -8.4375 C 0.886719 -6.886719 0.683594 -5.339844 0.527344 -3.78125 C 0.445312 -3.011719 0.433594 -2.230469 0.445312 -1.453125 C 0.457031 -0.742188 0.972656 -0.445312 1.632812 -0.683594 C 1.765625 -0.742188 1.933594 -0.707031 2.089844 -0.683594 C 2.566406 -0.625 3.058594 -0.445312 3.527344 -0.503906 C 5.964844 -0.792969 7.128906 -3.15625 5.953125 -5.363281 C 5.398438 -6.394531 4.390625 -6.769531 3.3125 -6.300781 C 2.953125 -6.144531 2.605469 -5.902344 2.195312 -5.675781 C 2.195312 -5.878906 2.183594 -6.023438 2.207031 -6.167969 Z M 2.375 -2.386719 C 2.269531 -2.425781 2.148438 -2.617188 2.160156 -2.722656 C 2.195312 -3.445312 3.347656 -4.8125 4.03125 -4.957031 C 4.164062 -4.992188 4.402344 -4.859375 4.464844 -4.738281 C 4.570312 -4.535156 4.585938 -4.273438 4.644531 -4.03125 C 4.621094 -2.964844 3.394531 -2.074219 2.375 -2.386719 Z M 2.375 -2.386719 "/></g></g></g><g fill="#000000" fill-opacity="1"><g transform="translate(122.156187, 114.449988)"><g><path d="M 5.171875 -5.808594 C 4.703125 -6.289062 4.128906 -6.601562 3.46875 -6.71875 C 2.507812 -6.898438 1.632812 -6.515625 1.09375 -5.710938 C 0.683594 -5.089844 0.515625 -4.390625 0.457031 -3.660156 C 0.300781 -1.90625 1.511719 -0.445312 3.71875 -0.671875 C 4.03125 -0.695312 4.402344 -0.910156 4.632812 -1.140625 C 5.050781 -1.585938 4.90625 -2.113281 4.332031 -2.292969 C 3.9375 -2.425781 3.503906 -2.4375 3.097656 -2.507812 C 2.878906 -2.554688 2.675781 -2.628906 2.460938 -2.699219 C 3.203125 -2.832031 3.925781 -2.878906 4.570312 -3.109375 C 5.808594 -3.539062 6.085938 -4.859375 5.171875 -5.808594 Z M 4.105469 -4.65625 C 3.5625 -4.597656 3.011719 -4.535156 2.410156 -4.476562 C 2.507812 -4.835938 2.664062 -5.113281 3.023438 -5.21875 C 3.433594 -5.339844 3.9375 -5.136719 4.246094 -4.714844 C 4.175781 -4.679688 4.140625 -4.65625 4.105469 -4.65625 Z M 4.105469 -4.65625 "/></g></g></g><g fill="#000000" fill-opacity="1"><g transform="translate(58.75781, 130.949987)"><g><path d="M 6.167969 -2.398438 C 5.988281 -3.226562 5.855469 -4.078125 5.675781 -4.921875 C 5.617188 -5.183594 5.542969 -5.53125 5.351562 -5.6875 C 4.777344 -6.132812 4.140625 -6.515625 3.335938 -6.382812 C 1.933594 -6.132812 0.5625 -4.597656 0.445312 -3.097656 C 0.335938 -1.714844 1.441406 -0.757812 2.808594 -1.078125 C 3.167969 -1.175781 3.503906 -1.378906 3.839844 -1.546875 C 3.960938 -1.609375 4.054688 -1.703125 4.175781 -1.789062 C 4.234375 -1.703125 4.285156 -1.65625 4.320312 -1.597656 C 4.714844 -0.996094 5.230469 -0.769531 5.710938 -0.972656 C 6.179688 -1.175781 6.324219 -1.679688 6.167969 -2.398438 Z M 2.6875 -2.820312 C 2.554688 -2.773438 2.363281 -2.761719 2.242188 -2.820312 C 2.171875 -2.855469 2.171875 -3.109375 2.21875 -3.226562 C 2.484375 -3.972656 2.902344 -4.570312 3.707031 -4.90625 C 3.851562 -3.984375 3.421875 -3.109375 2.6875 -2.820312 Z M 2.6875 -2.820312 "/></g></g></g><g fill="#000000" fill-opacity="1"><g transform="translate(65.441823, 130.949987)"><g><path d="M 6.070312 -8.746094 C 6.058594 -8.976562 6.035156 -9.253906 5.902344 -9.40625 C 5.746094 -9.589844 5.472656 -9.769531 5.242188 -9.757812 C 5.050781 -9.742188 4.847656 -9.492188 4.714844 -9.300781 C 4.621094 -9.167969 4.644531 -8.964844 4.632812 -8.785156 C 4.558594 -7.835938 4.5 -6.886719 4.429688 -5.902344 C 4.308594 -5.941406 4.210938 -5.964844 4.128906 -5.988281 C 2.410156 -6.589844 1.210938 -6.011719 0.648438 -4.285156 C 0.574219 -4.054688 0.515625 -3.828125 0.480469 -3.601562 C 0.238281 -2.101562 1.03125 -0.828125 2.386719 -0.527344 C 3.023438 -0.382812 3.636719 -0.492188 4.222656 -0.742188 C 4.367188 -0.804688 4.546875 -0.851562 4.679688 -0.804688 C 5.507812 -0.515625 6.070312 -0.863281 6.085938 -1.753906 C 6.097656 -4.078125 6.085938 -6.421875 6.070312 -8.746094 Z M 4.152344 -2.808594 C 3.769531 -2.6875 3.371094 -2.578125 2.976562 -2.472656 C 2.652344 -2.484375 2.425781 -2.652344 2.449219 -2.941406 C 2.496094 -3.324219 2.640625 -3.707031 2.785156 -4.078125 C 2.808594 -4.164062 2.988281 -4.222656 3.097656 -4.222656 C 3.636719 -4.246094 4.308594 -3.574219 4.273438 -3.035156 C 4.273438 -2.953125 4.210938 -2.832031 4.152344 -2.808594 Z M 4.152344 -2.808594 "/></g></g></g><g fill="#000000" fill-opacity="1"><g transform="translate(71.981835, 130.949987)"><g><path d="M 6.070312 -8.746094 C 6.058594 -8.976562 6.035156 -9.253906 5.902344 -9.40625 C 5.746094 -9.589844 5.472656 -9.769531 5.242188 -9.757812 C 5.050781 -9.742188 4.847656 -9.492188 4.714844 -9.300781 C 4.621094 -9.167969 4.644531 -8.964844 4.632812 -8.785156 C 4.558594 -7.835938 4.5 -6.886719 4.429688 -5.902344 C 4.308594 -5.941406 4.210938 -5.964844 4.128906 -5.988281 C 2.410156 -6.589844 1.210938 -6.011719 0.648438 -4.285156 C 0.574219 -4.054688 0.515625 -3.828125 0.480469 -3.601562 C 0.238281 -2.101562 1.03125 -0.828125 2.386719 -0.527344 C 3.023438 -0.382812 3.636719 -0.492188 4.222656 -0.742188 C 4.367188 -0.804688 4.546875 -0.851562 4.679688 -0.804688 C 5.507812 -0.515625 6.070312 -0.863281 6.085938 -1.753906 C 6.097656 -4.078125 6.085938 -6.421875 6.070312 -8.746094 Z M 4.152344 -2.808594 C 3.769531 -2.6875 3.371094 -2.578125 2.976562 -2.472656 C 2.652344 -2.484375 2.425781 -2.652344 2.449219 -2.941406 C 2.496094 -3.324219 2.640625 -3.707031 2.785156 -4.078125 C 2.808594 -4.164062 2.988281 -4.222656 3.097656 -4.222656 C 3.636719 -4.246094 4.308594 -3.574219 4.273438 -3.035156 C 4.273438 -2.953125 4.210938 -2.832031 4.152344 -2.808594 Z M 4.152344 -2.808594 "/></g></g></g><g fill="#000000" fill-opacity="1"><g transform="translate(78.521847, 130.949987)"><g><path d="M 5.171875 -5.808594 C 4.703125 -6.289062 4.128906 -6.601562 3.46875 -6.71875 C 2.507812 -6.898438 1.632812 -6.515625 1.09375 -5.710938 C 0.683594 -5.089844 0.515625 -4.390625 0.457031 -3.660156 C 0.300781 -1.90625 1.511719 -0.445312 3.71875 -0.671875 C 4.03125 -0.695312 4.402344 -0.910156 4.632812 -1.140625 C 5.050781 -1.585938 4.90625 -2.113281 4.332031 -2.292969 C 3.9375 -2.425781 3.503906 -2.4375 3.097656 -2.507812 C 2.878906 -2.554688 2.675781 -2.628906 2.460938 -2.699219 C 3.203125 -2.832031 3.925781 -2.878906 4.570312 -3.109375 C 5.808594 -3.539062 6.085938 -4.859375 5.171875 -5.808594 Z M 4.105469 -4.65625 C 3.5625 -4.597656 3.011719 -4.535156 2.410156 -4.476562 C 2.507812 -4.835938 2.664062 -5.113281 3.023438 -5.21875 C 3.433594 -5.339844 3.9375 -5.136719 4.246094 -4.714844 C 4.175781 -4.679688 4.140625 -4.65625 4.105469 -4.65625 Z M 4.105469 -4.65625 "/></g></g></g><g fill="#000000" fill-opacity="1"><g transform="translate(84.689858, 130.949987)"><g><path d="M 6.070312 -8.746094 C 6.058594 -8.976562 6.035156 -9.253906 5.902344 -9.40625 C 5.746094 -9.589844 5.472656 -9.769531 5.242188 -9.757812 C 5.050781 -9.742188 4.847656 -9.492188 4.714844 -9.300781 C 4.621094 -9.167969 4.644531 -8.964844 4.632812 -8.785156 C 4.558594 -7.835938 4.5 -6.886719 4.429688 -5.902344 C 4.308594 -5.941406 4.210938 -5.964844 4.128906 -5.988281 C 2.410156 -6.589844 1.210938 -6.011719 0.648438 -4.285156 C 0.574219 -4.054688 0.515625 -3.828125 0.480469 -3.601562 C 0.238281 -2.101562 1.03125 -0.828125 2.386719 -0.527344 C 3.023438 -0.382812 3.636719 -0.492188 4.222656 -0.742188 C 4.367188 -0.804688 4.546875 -0.851562 4.679688 -0.804688 C 5.507812 -0.515625 6.070312 -0.863281 6.085938 -1.753906 C 6.097656 -4.078125 6.085938 -6.421875 6.070312 -8.746094 Z M 4.152344 -2.808594 C 3.769531 -2.6875 3.371094 -2.578125 2.976562 -2.472656 C 2.652344 -2.484375 2.425781 -2.652344 2.449219 -2.941406 C 2.496094 -3.324219 2.640625 -3.707031 2.785156 -4.078125 C 2.808594 -4.164062 2.988281 -4.222656 3.097656 -4.222656 C 3.636719 -4.246094 4.308594 -3.574219 4.273438 -3.035156 C 4.273438 -2.953125 4.210938 -2.832031 4.152344 -2.808594 Z M 4.152344 -2.808594 "/></g></g></g></svg>