<svg xmlns="http://www.w3.org/2000/svg" xmlns:xlink="http://www.w3.org/1999/xlink" width="200" zoomAndPan="magnify" viewBox="0 0 150 149.999998" height="200" preserveAspectRatio="xMidYMid meet" version="1.0"><defs><g/><clipPath id="65ac26a2fb"><path d="M 79 61 L 107.855469 61 L 107.855469 89.28125 L 79 89.28125 Z M 79 61 " clip-rule="nonzero"/></clipPath></defs><path fill="#f7f7f7" d="M 59.210938 76.589844 C 59.015625 76.707031 58.820312 76.8125 58.613281 76.910156 C 55.171875 78.574219 51.070312 77.964844 49.117188 76.789062 C 45.890625 74.851562 45.898438 72.78125 47.925781 69.511719 C 48.269531 68.960938 48.664062 68.371094 49.117188 67.746094 C 52.234375 63.410156 50.921875 59.449219 50.921875 59.449219 L 64.21875 64.910156 C 64.441406 71.394531 62.148438 74.902344 59.210938 76.589844 Z M 59.210938 76.589844 " fill-opacity="1" fill-rule="nonzero"/><path fill="#f7f7f7" d="M 72.367188 85.546875 C 68.96875 87.089844 64.980469 86.46875 63.0625 85.328125 C 59.871094 83.410156 59.847656 81.363281 61.816406 78.148438 C 62.167969 77.570312 62.585938 76.949219 63.0625 76.285156 C 66.1875 71.949219 64.875 67.996094 64.875 67.996094 L 78.175781 73.457031 C 78.417969 80.511719 75.671875 84.046875 72.367188 85.546875 Z M 72.367188 85.546875 " fill-opacity="1" fill-rule="nonzero"/><path fill="#f7f7f7" d="M 72.367188 85.546875 C 68.96875 87.089844 64.980469 86.46875 63.0625 85.328125 C 59.871094 83.410156 59.847656 81.363281 61.816406 78.148438 C 62.167969 77.570312 62.585938 76.949219 63.0625 76.285156 C 66.1875 71.949219 64.875 67.996094 64.875 67.996094 L 78.175781 73.457031 C 78.417969 80.511719 75.671875 84.046875 72.367188 85.546875 Z M 72.367188 85.546875 " fill-opacity="1" fill-rule="nonzero"/><path fill="#f7f7f7" d="M 106.15625 65.410156 C 106.15625 72.253906 101 76.933594 93.273438 79.347656 C 89.203125 80.617188 84.421875 81.261719 79.3125 81.261719 C 64.480469 81.261719 52.464844 75.859375 52.464844 65.410156 C 52.464844 60.851562 54.75 56.671875 58.558594 53.40625 C 60.179688 52.03125 61.9375 50.878906 63.84375 49.945312 C 68.214844 47.769531 73.546875 46.488281 79.3125 46.488281 C 91.640625 46.488281 102.023438 52.34375 105.171875 60.328125 C 105.824219 61.957031 106.152344 63.652344 106.15625 65.410156 Z M 106.15625 65.410156 " fill-opacity="1" fill-rule="nonzero"/><path fill="#bcaeab" d="M 106.15625 65.410156 C 106.15625 72.253906 101.585938 76.933594 94.726562 79.347656 C 92.476562 78.707031 94.421875 75.050781 93.152344 73.449219 C 91.035156 70.789062 89.871094 71.785156 83.710938 68.625 C 77.554688 65.464844 73.820312 60.378906 67.472656 58.09375 C 64.164062 56.902344 63.53125 55.101562 63.929688 53.40625 C 65.34375 52.046875 66.90625 50.894531 68.617188 49.945312 C 72.492188 47.769531 77.226562 46.488281 82.335938 46.488281 C 93.273438 46.488281 102.488281 52.34375 105.277344 60.328125 C 105.859375 61.96875 106.152344 63.664062 106.15625 65.410156 Z M 106.15625 65.410156 " fill-opacity="1" fill-rule="nonzero"/><g clip-path="url(#65ac26a2fb)"><path fill="#918380" d="M 105.679688 61.648438 C 105.679688 61.648438 105.726562 65.953125 101.304688 68.605469 C 100.871094 68.792969 100.429688 68.953125 99.984375 69.105469 L 99.945312 69.117188 L 99.929688 69.117188 C 99.808594 69.152344 99.6875 69.1875 99.566406 69.222656 C 99.355469 69.28125 99.144531 69.332031 98.929688 69.382812 C 98.042969 69.582031 97.144531 69.703125 96.238281 69.75 C 95.558594 69.78125 95.171875 70.566406 95.246094 71.160156 C 95.304688 71.484375 95.464844 71.746094 95.726562 71.945312 C 95.773438 71.976562 95.820312 72.007812 95.871094 72.03125 C 94.441406 72.152344 93.011719 72.195312 91.578125 72.164062 C 90.898438 72.148438 90.351562 72.558594 90.25 73.257812 C 90.222656 73.492188 90.261719 73.710938 90.371094 73.917969 C 90.222656 73.945312 90.074219 73.972656 89.921875 73.992188 C 89.71875 74.023438 89.507812 74.046875 89.300781 74.0625 L 89.035156 74.078125 L 88.910156 74.078125 C 88.492188 74.082031 88.078125 74.0625 87.660156 74.011719 C 86.984375 73.9375 86.425781 74.457031 86.332031 75.109375 C 86.285156 75.5 86.40625 75.828125 86.691406 76.09375 L 83.445312 76.34375 C 82.769531 76.394531 82.378906 77.148438 82.453125 77.757812 C 82.480469 78 82.582031 78.207031 82.757812 78.378906 C 81.34375 79.070312 80.324219 79.894531 79.722656 81.222656 C 78.011719 85.011719 81.273438 87.945312 87.117188 87.648438 C 87.054688 87.925781 87.082031 88.191406 87.191406 88.449219 C 87.332031 88.75 87.554688 88.960938 87.859375 89.082031 C 88.121094 89.1875 88.546875 89.207031 88.800781 89.054688 L 91.445312 87.488281 C 91.445312 87.785156 91.53125 88.054688 91.707031 88.292969 C 92.113281 88.839844 92.902344 88.847656 93.414062 88.464844 C 94.628906 87.546875 95.691406 86.46875 96.589844 85.234375 C 96.632812 85.335938 96.6875 85.425781 96.75 85.511719 C 97.121094 86.011719 98.003906 86.136719 98.457031 85.6875 C 99.753906 84.429688 100.859375 83.019531 101.765625 81.453125 C 102.246094 81.839844 103.136719 81.738281 103.464844 81.191406 C 104.097656 80.121094 104.546875 78.933594 105 77.777344 C 105.503906 76.488281 105.980469 75.183594 106.398438 73.863281 C 107.777344 70.03125 107.855469 65.746094 105.679688 61.648438 Z M 105.679688 61.648438 " fill-opacity="1" fill-rule="nonzero"/></g><path fill="#f7f7f7" d="M 81.148438 38.78125 C 81.085938 39.320312 81.042969 39.632812 81.042969 39.632812 L 69.382812 33.136719 C 69.382812 33.136719 69.792969 32.65625 70.449219 31.953125 C 72.601562 29.628906 77.464844 24.839844 79.734375 26.222656 C 82.210938 27.730469 81.464844 36.070312 81.148438 38.78125 Z M 81.148438 38.78125 " fill-opacity="1" fill-rule="nonzero"/><path fill="#f7f7f7" d="M 58.769531 33.730469 L 47.074219 40.171875 C 47.074219 40.171875 47.03125 39.835938 46.96875 39.269531 C 46.664062 36.503906 45.980469 28.253906 48.453125 26.769531 C 50.609375 25.46875 55.070312 29.722656 57.355469 32.152344 C 58.214844 33.070312 58.769531 33.730469 58.769531 33.730469 Z M 58.769531 33.730469 " fill-opacity="1" fill-rule="nonzero"/><path fill="#f7f7f7" d="M 86.140625 54.007812 C 86.632812 53.0625 86.382812 52.117188 86.011719 51.1875 C 85.855469 50.808594 85.703125 50.429688 85.550781 50.050781 C 85.550781 50.050781 85.550781 50.042969 85.550781 50.03125 C 85.421875 49.71875 85.292969 49.402344 85.160156 49.085938 C 85.054688 46.601562 84.425781 44.257812 83.285156 42.054688 C 82.6875 40.886719 81.976562 39.796875 81.148438 38.78125 C 80.503906 37.992188 79.800781 37.261719 79.039062 36.585938 C 77.175781 34.925781 75.082031 33.640625 72.769531 32.726562 C 71.140625 32.074219 69.457031 31.625 67.722656 31.371094 C 65.066406 30.972656 62.414062 31.03125 59.777344 31.546875 C 58.960938 31.703125 58.152344 31.90625 57.359375 32.152344 C 56.695312 32.359375 56.050781 32.59375 55.417969 32.863281 C 55.109375 32.984375 54.804688 33.125 54.503906 33.269531 C 54.074219 33.460938 53.652344 33.679688 53.246094 33.90625 C 53.082031 34 52.914062 34.089844 52.753906 34.1875 C 52.292969 34.449219 51.847656 34.746094 51.414062 35.042969 C 51.308594 35.113281 51.203125 35.191406 51.101562 35.269531 C 49.53125 36.398438 48.152344 37.730469 46.96875 39.269531 C 46.582031 39.777344 46.214844 40.304688 45.878906 40.851562 C 44.335938 43.339844 43.492188 46.054688 43.34375 48.984375 C 43.046875 49.722656 42.75 50.457031 42.453125 51.1875 C 42.453125 51.195312 42.445312 51.210938 42.4375 51.222656 C 42.078125 52.136719 41.855469 53.023438 42.296875 53.960938 C 42.507812 54.386719 42.8125 54.71875 43.21875 54.960938 C 43.097656 55.101562 42.992188 55.246094 42.890625 55.398438 C 42.402344 56.117188 42.261719 57.035156 42.664062 57.828125 C 42.953125 58.394531 43.523438 58.738281 44.113281 58.910156 C 44.320312 58.976562 44.535156 59.011719 44.746094 59.058594 C 44.699219 59.453125 44.730469 59.839844 44.839844 60.21875 C 45.214844 61.539062 46.363281 62.019531 47.546875 62.390625 C 49.152344 62.890625 50.796875 63.160156 52.476562 63.203125 C 55.832031 64.707031 59.882812 65.46875 64.25 65.46875 C 68.417969 65.46875 72.300781 64.773438 75.5625 63.398438 C 77.320312 63.371094 79.035156 63.097656 80.714844 62.578125 C 81.875 62.21875 83.011719 61.746094 83.410156 60.46875 C 83.542969 60.027344 83.574219 59.574219 83.5 59.113281 C 83.773438 59.039062 84.058594 59 84.332031 58.921875 C 84.925781 58.75 85.507812 58.394531 85.800781 57.828125 C 86.191406 57.039062 86.0625 56.144531 85.59375 55.421875 C 85.484375 55.261719 85.371094 55.109375 85.246094 54.960938 C 85.632812 54.726562 85.929688 54.410156 86.140625 54.007812 Z M 83.5 59.089844 C 83.550781 59.039062 83.566406 59.042969 83.5 59.089844 Z M 83.5 59.089844 " fill-opacity="1" fill-rule="nonzero"/><path fill="#bcaeab" d="M 70.648438 65.253906 C 70.554688 65.253906 70.46875 65.21875 70.398438 65.152344 C 70.328125 65.085938 70.289062 65.003906 70.277344 64.910156 C 70.269531 64.8125 70.292969 64.726562 70.351562 64.644531 C 70.40625 64.566406 70.484375 64.519531 70.578125 64.5 C 72.242188 64.183594 73.855469 63.699219 75.417969 63.050781 C 75.515625 63.003906 75.617188 63 75.714844 63.039062 C 75.816406 63.078125 75.886719 63.148438 75.929688 63.246094 C 75.96875 63.347656 75.96875 63.449219 75.925781 63.546875 C 75.882812 63.648438 75.8125 63.714844 75.710938 63.753906 C 74.097656 64.421875 72.433594 64.917969 70.722656 65.246094 C 70.699219 65.25 70.675781 65.253906 70.648438 65.253906 Z M 70.648438 65.253906 " fill-opacity="1" fill-rule="nonzero"/><path fill="#bcaeab" d="M 58.617188 65.394531 C 58.597656 65.394531 58.574219 65.394531 58.554688 65.394531 C 56.398438 65.042969 54.324219 64.429688 52.324219 63.550781 C 52.230469 63.507812 52.164062 63.433594 52.125 63.335938 C 52.089844 63.238281 52.09375 63.140625 52.136719 63.042969 C 52.179688 62.949219 52.25 62.882812 52.347656 62.84375 C 52.445312 62.808594 52.542969 62.8125 52.636719 62.855469 C 54.578125 63.707031 56.59375 64.300781 58.683594 64.640625 C 58.78125 64.652344 58.863281 64.699219 58.925781 64.777344 C 58.988281 64.855469 59.015625 64.945312 59.007812 65.046875 C 58.996094 65.144531 58.957031 65.230469 58.882812 65.296875 C 58.808594 65.363281 58.722656 65.394531 58.625 65.394531 Z M 58.617188 65.394531 " fill-opacity="1" fill-rule="nonzero"/><path fill="#62442f" d="M 59.773438 51.75 C 59.773438 51.945312 59.734375 52.132812 59.660156 52.3125 C 59.585938 52.496094 59.480469 52.65625 59.34375 52.792969 C 59.207031 52.933594 59.046875 53.039062 58.867188 53.113281 C 58.691406 53.1875 58.503906 53.226562 58.308594 53.226562 C 58.113281 53.226562 57.925781 53.1875 57.746094 53.113281 C 57.570312 53.039062 57.410156 52.933594 57.273438 52.792969 C 57.136719 52.65625 57.03125 52.496094 56.957031 52.3125 C 56.878906 52.132812 56.84375 51.945312 56.84375 51.75 C 56.84375 51.554688 56.878906 51.363281 56.957031 51.183594 C 57.03125 51.003906 57.136719 50.84375 57.273438 50.703125 C 57.410156 50.566406 57.570312 50.460938 57.746094 50.382812 C 57.925781 50.308594 58.113281 50.273438 58.308594 50.273438 C 58.503906 50.273438 58.691406 50.308594 58.867188 50.382812 C 59.046875 50.460938 59.207031 50.566406 59.34375 50.703125 C 59.480469 50.84375 59.585938 51.003906 59.660156 51.183594 C 59.734375 51.363281 59.773438 51.554688 59.773438 51.75 Z M 59.773438 51.75 " fill-opacity="1" fill-rule="nonzero"/><path fill="#62442f" d="M 72.113281 51.75 C 72.113281 51.945312 72.078125 52.132812 72.003906 52.3125 C 71.929688 52.496094 71.824219 52.65625 71.6875 52.792969 C 71.546875 52.933594 71.390625 53.039062 71.210938 53.113281 C 71.03125 53.1875 70.84375 53.226562 70.648438 53.226562 C 70.457031 53.226562 70.269531 53.1875 70.089844 53.113281 C 69.910156 53.039062 69.75 52.933594 69.613281 52.792969 C 69.476562 52.65625 69.371094 52.496094 69.296875 52.3125 C 69.222656 52.132812 69.183594 51.945312 69.183594 51.75 C 69.183594 51.554688 69.222656 51.363281 69.296875 51.183594 C 69.371094 51.003906 69.476562 50.84375 69.613281 50.703125 C 69.75 50.566406 69.910156 50.460938 70.089844 50.382812 C 70.269531 50.308594 70.457031 50.273438 70.648438 50.273438 C 70.84375 50.273438 71.03125 50.308594 71.210938 50.382812 C 71.390625 50.460938 71.546875 50.566406 71.6875 50.703125 C 71.824219 50.84375 71.929688 51.003906 72.003906 51.183594 C 72.078125 51.363281 72.113281 51.554688 72.113281 51.75 Z M 72.113281 51.75 " fill-opacity="1" fill-rule="nonzero"/><path fill="#62442f" d="M 66.992188 55.546875 C 65.6875 55.546875 65.113281 55.332031 64.976562 54.015625 C 64.972656 54.003906 64.96875 53.996094 64.964844 53.984375 C 64.960938 53.960938 64.957031 53.9375 64.945312 53.917969 C 64.9375 53.894531 64.925781 53.875 64.914062 53.855469 C 64.902344 53.839844 64.890625 53.824219 64.875 53.808594 C 64.859375 53.792969 64.839844 53.777344 64.820312 53.761719 C 64.800781 53.75 64.785156 53.742188 64.765625 53.734375 C 64.730469 53.722656 64.699219 53.710938 64.664062 53.699219 C 64.652344 53.699219 64.640625 53.699219 64.628906 53.699219 C 64.613281 53.699219 64.601562 53.699219 64.589844 53.699219 C 64.578125 53.699219 64.570312 53.710938 64.558594 53.710938 C 64.535156 53.714844 64.515625 53.722656 64.496094 53.730469 C 64.472656 53.742188 64.449219 53.753906 64.429688 53.765625 C 64.414062 53.777344 64.398438 53.789062 64.386719 53.804688 C 64.367188 53.820312 64.351562 53.839844 64.339844 53.859375 C 64.328125 53.878906 64.316406 53.894531 64.308594 53.914062 C 64.300781 53.9375 64.292969 53.960938 64.289062 53.984375 C 64.285156 53.996094 64.28125 54.003906 64.277344 54.015625 C 64.140625 55.332031 63.570312 55.546875 62.261719 55.546875 C 62.160156 55.539062 62.074219 55.574219 62 55.640625 C 61.925781 55.710938 61.886719 55.796875 61.886719 55.902344 C 61.886719 56.003906 61.925781 56.089844 62 56.160156 C 62.074219 56.230469 62.160156 56.261719 62.261719 56.253906 C 63.363281 56.253906 64.183594 56.066406 64.628906 55.296875 C 65.074219 56.066406 65.890625 56.253906 66.992188 56.253906 C 67.09375 56.261719 67.179688 56.230469 67.253906 56.160156 C 67.328125 56.089844 67.367188 56.003906 67.367188 55.902344 C 67.367188 55.796875 67.328125 55.710938 67.253906 55.640625 C 67.179688 55.574219 67.09375 55.539062 66.992188 55.546875 Z M 66.992188 55.546875 " fill-opacity="1" fill-rule="nonzero"/><path fill="#62442f" d="M 77.957031 54.859375 C 77.867188 54.859375 77.785156 54.828125 77.71875 54.765625 C 77.652344 54.703125 77.617188 54.625 77.609375 54.535156 C 77.601562 54.441406 77.625 54.359375 77.679688 54.289062 C 77.734375 54.214844 77.808594 54.171875 77.898438 54.15625 L 82.210938 53.410156 C 82.304688 53.398438 82.390625 53.421875 82.464844 53.476562 C 82.542969 53.53125 82.589844 53.609375 82.605469 53.703125 C 82.621094 53.796875 82.601562 53.882812 82.550781 53.964844 C 82.496094 54.042969 82.421875 54.089844 82.328125 54.109375 L 78.015625 54.855469 C 77.996094 54.859375 77.976562 54.859375 77.957031 54.859375 Z M 77.957031 54.859375 " fill-opacity="1" fill-rule="nonzero"/><path fill="#62442f" d="M 82.382812 57.105469 L 82.351562 57.105469 L 77.996094 56.722656 C 77.902344 56.707031 77.828125 56.664062 77.773438 56.589844 C 77.714844 56.515625 77.6875 56.433594 77.695312 56.339844 C 77.707031 56.246094 77.746094 56.167969 77.8125 56.105469 C 77.882812 56.042969 77.964844 56.011719 78.058594 56.015625 L 82.410156 56.398438 C 82.503906 56.40625 82.582031 56.445312 82.644531 56.515625 C 82.707031 56.589844 82.734375 56.671875 82.730469 56.765625 C 82.726562 56.859375 82.691406 56.941406 82.625 57.007812 C 82.554688 57.074219 82.476562 57.105469 82.382812 57.105469 Z M 82.382812 57.105469 " fill-opacity="1" fill-rule="nonzero"/><path fill="#62442f" d="M 51.035156 54.859375 C 51.015625 54.859375 50.996094 54.859375 50.976562 54.859375 L 46.664062 54.117188 C 46.566406 54.101562 46.488281 54.054688 46.429688 53.972656 C 46.371094 53.894531 46.351562 53.804688 46.367188 53.703125 C 46.382812 53.605469 46.433594 53.527344 46.515625 53.472656 C 46.597656 53.414062 46.6875 53.398438 46.785156 53.417969 L 51.09375 54.160156 C 51.183594 54.175781 51.257812 54.21875 51.3125 54.292969 C 51.367188 54.367188 51.394531 54.449219 51.386719 54.539062 C 51.378906 54.632812 51.339844 54.707031 51.273438 54.769531 C 51.207031 54.832031 51.128906 54.863281 51.035156 54.863281 Z M 51.035156 54.859375 " fill-opacity="1" fill-rule="nonzero"/><path fill="#62442f" d="M 46.609375 57.105469 C 46.515625 57.105469 46.4375 57.070312 46.367188 57.003906 C 46.300781 56.941406 46.265625 56.859375 46.261719 56.765625 C 46.257812 56.671875 46.285156 56.585938 46.347656 56.515625 C 46.410156 56.445312 46.488281 56.40625 46.582031 56.398438 L 50.9375 56.015625 C 51.03125 56.011719 51.113281 56.042969 51.179688 56.105469 C 51.25 56.167969 51.289062 56.246094 51.296875 56.335938 C 51.304688 56.429688 51.28125 56.515625 51.222656 56.589844 C 51.164062 56.664062 51.089844 56.707031 51 56.71875 L 46.640625 57.101562 Z M 46.609375 57.105469 " fill-opacity="1" fill-rule="nonzero"/><path fill="#eec0c2" d="M 66.488281 52.90625 C 66.488281 53.433594 65.65625 54.132812 64.628906 54.132812 C 63.601562 54.132812 62.765625 53.4375 62.765625 52.90625 C 62.765625 52.375 63.601562 51.945312 64.628906 51.945312 C 65.65625 51.945312 66.488281 52.375 66.488281 52.90625 Z M 66.488281 52.90625 " fill-opacity="1" fill-rule="nonzero"/><path fill="#eec0c2" d="M 56.035156 54.433594 C 55.765625 54.152344 55.445312 54.0625 55.074219 54.167969 C 54.851562 54.238281 54.675781 54.371094 54.542969 54.566406 C 54.414062 54.371094 54.234375 54.238281 54.011719 54.167969 C 53.640625 54.0625 53.320312 54.152344 53.054688 54.433594 C 52.851562 54.65625 52.765625 54.921875 52.792969 55.222656 C 52.839844 55.628906 52.976562 55.996094 53.207031 56.328125 C 53.394531 56.636719 53.628906 56.902344 53.917969 57.117188 C 53.992188 57.167969 54.066406 57.210938 54.144531 57.25 C 54.273438 57.3125 54.410156 57.347656 54.550781 57.359375 C 54.691406 57.347656 54.828125 57.3125 54.957031 57.25 C 55.035156 57.210938 55.109375 57.167969 55.179688 57.117188 C 55.46875 56.902344 55.707031 56.636719 55.890625 56.328125 C 56.121094 55.996094 56.261719 55.628906 56.308594 55.222656 C 56.332031 54.917969 56.242188 54.65625 56.035156 54.433594 Z M 56.035156 54.433594 " fill-opacity="1" fill-rule="nonzero"/><path fill="#eec0c2" d="M 76.199219 54.433594 C 75.933594 54.152344 75.613281 54.0625 75.242188 54.167969 C 75.019531 54.238281 74.84375 54.371094 74.710938 54.566406 C 74.578125 54.371094 74.402344 54.238281 74.179688 54.167969 C 73.808594 54.0625 73.488281 54.152344 73.21875 54.433594 C 73.015625 54.65625 72.925781 54.921875 72.953125 55.222656 C 73 55.628906 73.136719 55.996094 73.367188 56.328125 C 73.554688 56.636719 73.792969 56.902344 74.078125 57.117188 C 74.152344 57.167969 74.226562 57.210938 74.304688 57.25 C 74.433594 57.3125 74.570312 57.347656 74.710938 57.359375 C 74.851562 57.347656 74.988281 57.3125 75.117188 57.25 C 75.195312 57.210938 75.269531 57.167969 75.34375 57.117188 C 75.628906 56.902344 75.867188 56.636719 76.050781 56.328125 C 76.28125 55.996094 76.421875 55.628906 76.46875 55.222656 C 76.496094 54.921875 76.40625 54.65625 76.199219 54.433594 Z M 76.199219 54.433594 " fill-opacity="1" fill-rule="nonzero"/><path fill="#918380" d="M 59.773438 31.546875 L 59.773438 40.851562 L 45.878906 40.851562 C 46.214844 40.304688 46.582031 39.777344 46.96875 39.269531 C 46.664062 36.503906 45.980469 28.253906 48.453125 26.769531 C 50.609375 25.46875 55.070312 29.722656 57.355469 32.152344 C 58.148438 31.90625 58.957031 31.703125 59.773438 31.546875 Z M 59.773438 31.546875 " fill-opacity="1" fill-rule="nonzero"/><path fill="#918380" d="M 83.285156 42.054688 L 67.71875 42.054688 L 67.71875 31.378906 C 68.640625 31.511719 69.550781 31.703125 70.449219 31.953125 C 72.601562 29.628906 77.464844 24.839844 79.734375 26.222656 C 82.214844 27.730469 81.464844 36.070312 81.148438 38.78125 C 81.976562 39.796875 82.6875 40.886719 83.285156 42.054688 Z M 83.285156 42.054688 " fill-opacity="1" fill-rule="nonzero"/><path fill="#eec0c2" d="M 72.535156 33.277344 C 72.535156 33.277344 76.648438 28.414062 78.308594 29.421875 C 79.964844 30.429688 79.039062 36.898438 79.039062 36.898438 Z M 72.535156 33.277344 " fill-opacity="1" fill-rule="nonzero"/><path fill="#eec0c2" d="M 55.550781 33.5625 C 55.550781 33.5625 51.460938 28.679688 49.796875 29.679688 C 48.132812 30.679688 49.03125 37.152344 49.03125 37.152344 Z M 55.550781 33.5625 " fill-opacity="1" fill-rule="nonzero"/><path fill="#bcaeab" d="M 85.550781 50.050781 C 77.496094 59.261719 70.460938 46.855469 69.808594 44.917969 C 68.464844 40.921875 68.035156 43.777344 66.765625 44.421875 C 65.492188 45.066406 65.226562 40.761719 64.394531 40.703125 C 63.566406 40.648438 63.21875 44.03125 62.128906 44.308594 C 61.035156 44.589844 59.964844 40.171875 58.070312 45.296875 C 54.132812 55.960938 46.039062 53.144531 42.4375 51.226562 C 42.4375 51.21875 42.449219 51.203125 42.453125 51.191406 C 42.75 50.460938 43.046875 49.722656 43.34375 48.984375 C 43.492188 46.054688 44.335938 43.34375 45.878906 40.851562 C 46.214844 40.304688 46.582031 39.777344 46.96875 39.269531 C 48.152344 37.730469 49.53125 36.398438 51.101562 35.269531 C 51.203125 35.191406 51.308594 35.113281 51.414062 35.042969 C 51.847656 34.746094 52.292969 34.457031 52.753906 34.1875 C 52.914062 34.089844 53.082031 34 53.246094 33.90625 C 53.652344 33.679688 54.074219 33.460938 54.503906 33.269531 C 54.800781 33.121094 55.105469 32.984375 55.417969 32.863281 C 56.046875 32.597656 56.695312 32.359375 57.359375 32.152344 C 58.152344 31.90625 58.960938 31.703125 59.777344 31.546875 C 62.414062 31.03125 65.066406 30.972656 67.722656 31.371094 C 69.453125 31.625 71.132812 32.074219 72.757812 32.726562 C 75.074219 33.640625 77.164062 34.925781 79.03125 36.585938 C 79.792969 37.261719 80.5 37.992188 81.148438 38.78125 C 81.976562 39.796875 82.6875 40.886719 83.285156 42.054688 C 84.429688 44.261719 85.054688 46.605469 85.160156 49.09375 C 85.292969 49.410156 85.410156 49.722656 85.550781 50.039062 C 85.546875 50.042969 85.550781 50.046875 85.550781 50.050781 Z M 85.550781 50.050781 " fill-opacity="1" fill-rule="nonzero"/><path fill="#bcaeab" d="M 59.210938 76.589844 C 59.015625 76.707031 58.820312 76.8125 58.613281 76.910156 C 55.171875 78.574219 51.070312 77.964844 49.117188 76.789062 C 45.890625 74.851562 45.898438 72.78125 47.925781 69.511719 C 48.433594 69.535156 48.777344 69.992188 49.113281 70.300781 C 49.59375 70.746094 49.863281 71.09375 50.382812 71.335938 C 50.90625 71.578125 51.492188 71.539062 52.28125 71.980469 C 53.070312 72.417969 53.089844 73.035156 53.878906 73.617188 C 54.5 74.105469 55.195312 74.410156 55.972656 74.539062 C 56.796875 74.675781 58.8125 75.71875 59.210938 76.589844 Z M 59.210938 76.589844 " fill-opacity="1" fill-rule="nonzero"/><path fill="#bcaeab" d="M 72.367188 85.546875 C 68.96875 87.089844 64.980469 86.46875 63.0625 85.328125 C 59.871094 83.410156 59.847656 81.363281 61.816406 78.148438 C 62.273438 78.1875 62.488281 78.75 62.800781 79.035156 C 63.191406 79.421875 63.636719 79.730469 64.136719 79.957031 C 64.65625 80.195312 65.28125 80.320312 66.074219 80.761719 C 66.863281 81.199219 66.839844 81.664062 67.628906 82.242188 C 67.90625 82.441406 69.261719 83 69.898438 83.285156 C 70.535156 83.570312 72.105469 84.671875 72.367188 85.546875 Z M 72.367188 85.546875 " fill-opacity="1" fill-rule="nonzero"/><path fill="#bcaeab" d="M 58.976562 76.722656 C 58.894531 76.722656 58.820312 76.699219 58.753906 76.648438 C 54.394531 73.414062 52.089844 68.9375 52.089844 63.703125 C 52.089844 63.550781 52.089844 63.394531 52.089844 63.242188 C 52.09375 63.136719 52.132812 63.050781 52.207031 62.980469 C 52.28125 62.910156 52.371094 62.875 52.472656 62.875 L 52.480469 62.875 C 52.585938 62.878906 52.675781 62.917969 52.746094 62.996094 C 52.820312 63.070312 52.851562 63.164062 52.847656 63.269531 C 52.847656 63.417969 52.847656 63.566406 52.847656 63.710938 C 52.847656 68.695312 55.046875 72.960938 59.207031 76.042969 C 59.355469 76.152344 59.398438 76.296875 59.34375 76.46875 C 59.285156 76.644531 59.167969 76.730469 58.984375 76.730469 Z M 58.976562 76.722656 " fill-opacity="1" fill-rule="nonzero"/><path fill="#bcaeab" d="M 76.527344 82.097656 C 76.382812 82.097656 76.273438 82.035156 76.199219 81.910156 C 76.128906 81.78125 76.128906 81.65625 76.199219 81.527344 C 77.375 79.460938 77.910156 76.75 77.796875 73.472656 C 77.792969 73.367188 77.824219 73.273438 77.898438 73.199219 C 77.96875 73.121094 78.054688 73.082031 78.160156 73.078125 C 78.265625 73.070312 78.355469 73.105469 78.433594 73.175781 C 78.511719 73.25 78.550781 73.335938 78.550781 73.441406 C 78.671875 76.863281 78.097656 79.710938 76.855469 81.90625 C 76.78125 82.03125 76.671875 82.097656 76.527344 82.097656 Z M 76.527344 82.097656 " fill-opacity="1" fill-rule="nonzero"/><path fill="#bcaeab" d="M 62.023438 78.199219 C 61.875 78.199219 61.765625 78.132812 61.695312 78 C 61.625 77.871094 61.628906 77.742188 61.707031 77.613281 C 62.003906 77.144531 62.351562 76.636719 62.765625 76.0625 C 64.386719 73.808594 64.75 71.667969 64.773438 70.265625 C 64.773438 70.160156 64.8125 70.070312 64.886719 69.996094 C 64.960938 69.921875 65.050781 69.886719 65.15625 69.890625 C 65.257812 69.890625 65.347656 69.929688 65.421875 70.003906 C 65.492188 70.078125 65.527344 70.171875 65.527344 70.273438 C 65.503906 71.785156 65.113281 74.097656 63.375 76.503906 C 62.96875 77.066406 62.632812 77.558594 62.339844 78.023438 C 62.265625 78.140625 62.160156 78.199219 62.023438 78.199219 Z M 62.023438 78.199219 " fill-opacity="1" fill-rule="nonzero"/><path fill="#918380" d="M 48.523438 76.527344 C 48.492188 76.527344 48.460938 76.523438 48.429688 76.515625 C 48.328125 76.492188 48.25 76.433594 48.199219 76.339844 C 48.144531 76.25 48.132812 76.152344 48.160156 76.050781 L 48.222656 75.800781 C 48.40625 75.011719 48.640625 74.234375 48.929688 73.476562 C 48.96875 73.378906 49.035156 73.308594 49.132812 73.269531 C 49.226562 73.226562 49.324219 73.226562 49.421875 73.265625 C 49.515625 73.304688 49.585938 73.371094 49.628906 73.46875 C 49.667969 73.566406 49.667969 73.664062 49.628906 73.761719 C 49.355469 74.488281 49.132812 75.234375 48.957031 75.992188 L 48.890625 76.242188 C 48.84375 76.433594 48.71875 76.53125 48.523438 76.527344 Z M 48.523438 76.527344 " fill-opacity="1" fill-rule="nonzero"/><path fill="#918380" d="M 51.589844 77.800781 C 51.5625 77.800781 51.535156 77.800781 51.503906 77.792969 C 51.40625 77.769531 51.328125 77.710938 51.269531 77.625 C 51.214844 77.535156 51.199219 77.4375 51.222656 77.335938 L 51.285156 77.074219 C 51.445312 76.28125 51.65625 75.507812 51.925781 74.746094 C 51.960938 74.644531 52.027344 74.574219 52.121094 74.53125 C 52.214844 74.488281 52.3125 74.484375 52.410156 74.519531 C 52.507812 74.554688 52.578125 74.621094 52.621094 74.71875 C 52.664062 74.8125 52.667969 74.910156 52.632812 75.007812 C 52.378906 75.738281 52.175781 76.480469 52.019531 77.238281 L 51.960938 77.5 C 51.917969 77.703125 51.792969 77.804688 51.589844 77.800781 Z M 51.589844 77.800781 " fill-opacity="1" fill-rule="nonzero"/><path fill="#918380" d="M 62.390625 84.800781 C 62.351562 84.800781 62.316406 84.796875 62.285156 84.785156 C 62.183594 84.757812 62.105469 84.695312 62.054688 84.605469 C 62.003906 84.511719 61.992188 84.414062 62.023438 84.3125 L 62.097656 84.050781 C 62.304688 83.269531 62.558594 82.507812 62.867188 81.761719 C 62.910156 81.664062 62.980469 81.597656 63.074219 81.558594 C 63.171875 81.519531 63.269531 81.519531 63.363281 81.5625 C 63.460938 81.605469 63.527344 81.675781 63.566406 81.773438 C 63.601562 81.871094 63.601562 81.96875 63.558594 82.0625 C 63.265625 82.78125 63.023438 83.511719 62.828125 84.261719 L 62.753906 84.523438 C 62.699219 84.707031 62.578125 84.800781 62.390625 84.800781 Z M 62.390625 84.800781 " fill-opacity="1" fill-rule="nonzero"/><path fill="#918380" d="M 65.765625 86.332031 C 65.730469 86.332031 65.699219 86.324219 65.664062 86.316406 C 65.5625 86.289062 65.488281 86.226562 65.4375 86.136719 C 65.386719 86.042969 65.375 85.945312 65.402344 85.84375 L 65.476562 85.582031 C 65.703125 84.839844 65.882812 84.085938 66.011719 83.320312 C 66.023438 83.210938 66.070312 83.125 66.15625 83.058594 C 66.242188 82.992188 66.335938 82.96875 66.441406 82.984375 C 66.550781 83 66.632812 83.050781 66.695312 83.140625 C 66.757812 83.230469 66.777344 83.328125 66.757812 83.433594 C 66.625 84.230469 66.441406 85.019531 66.199219 85.792969 L 66.128906 86.054688 C 66.074219 86.238281 65.957031 86.328125 65.765625 86.332031 Z M 65.765625 86.332031 " fill-opacity="1" fill-rule="nonzero"/><g fill="#000000" fill-opacity="1"><g transform="translate(33.023437, 101.119458)"><g><path d="M 10.636719 -2.167969 C 10.414062 -2.519531 10.0625 -2.671875 9.628906 -2.617188 C 9.347656 -2.589844 9.054688 -2.492188 8.804688 -2.40625 C 7.585938 -2.015625 6.128906 -1.707031 4.605469 -2.449219 C 3.332031 -3.078125 2.660156 -4.324219 2.910156 -5.625 C 2.996094 -6.046875 3.121094 -6.589844 3.402344 -7.027344 C 4.6875 -9.082031 6.128906 -9.65625 8.074219 -8.871094 C 8.339844 -8.773438 8.578125 -8.703125 8.789062 -8.675781 C 9.070312 -8.648438 9.308594 -8.734375 9.445312 -8.929688 C 9.574219 -9.109375 9.585938 -9.347656 9.476562 -9.585938 C 9.347656 -9.851562 9.140625 -10.117188 8.859375 -10.355469 C 8.117188 -10.972656 7.179688 -11.28125 6.226562 -11.28125 C 5.402344 -11.28125 4.5625 -11.042969 3.820312 -10.566406 C 2.195312 -9.53125 1.175781 -8.171875 0.742188 -6.523438 C 0.183594 -4.339844 0.644531 -2.546875 2.097656 -1.191406 C 3.191406 -0.167969 4.644531 0.417969 6.410156 0.558594 C 7.613281 0.488281 8.691406 0.238281 9.710938 -0.222656 C 10.019531 -0.363281 10.34375 -0.65625 10.636719 -1.035156 C 10.886719 -1.371094 10.886719 -1.792969 10.636719 -2.167969 Z M 10.636719 -2.167969 "/></g></g></g><g fill="#000000" fill-opacity="1"><g transform="translate(44.3711, 101.119458)"><g><path d="M 7.195312 -2.800781 C 6.984375 -3.765625 6.828125 -4.757812 6.621094 -5.738281 C 6.550781 -6.046875 6.464844 -6.453125 6.242188 -6.632812 C 5.570312 -7.152344 4.828125 -7.597656 3.890625 -7.445312 C 2.253906 -7.152344 0.65625 -5.359375 0.519531 -3.609375 C 0.390625 -2 1.679688 -0.882812 3.273438 -1.257812 C 3.695312 -1.371094 4.085938 -1.609375 4.476562 -1.804688 C 4.617188 -1.875 4.730469 -1.988281 4.871094 -2.085938 C 4.941406 -1.988281 4.996094 -1.929688 5.039062 -1.863281 C 5.5 -1.160156 6.101562 -0.894531 6.660156 -1.132812 C 7.207031 -1.371094 7.375 -1.960938 7.195312 -2.800781 Z M 3.136719 -3.289062 C 2.980469 -3.234375 2.757812 -3.21875 2.617188 -3.289062 C 2.53125 -3.332031 2.53125 -3.625 2.589844 -3.765625 C 2.898438 -4.632812 3.386719 -5.332031 4.324219 -5.722656 C 4.492188 -4.644531 3.988281 -3.625 3.136719 -3.289062 Z M 3.136719 -3.289062 "/></g></g></g><g fill="#000000" fill-opacity="1"><g transform="translate(52.164755, 101.119458)"><g><path d="M 6.453125 -6.046875 C 5.667969 -7.09375 4.449219 -7.261719 3.386719 -6.507812 C 3.078125 -6.285156 2.800781 -6.019531 2.476562 -5.738281 C 2.421875 -5.851562 2.394531 -5.917969 2.363281 -6.003906 C 2.238281 -6.4375 2.042969 -6.84375 1.511719 -6.828125 C 0.953125 -6.800781 0.785156 -6.339844 0.742188 -5.890625 C 0.644531 -4.605469 0.546875 -3.316406 0.519531 -2.027344 C 0.488281 -1.316406 0.964844 -0.824219 1.582031 -0.753906 C 2.195312 -0.6875 2.730469 -1.078125 2.898438 -1.792969 C 3.121094 -2.785156 3.667969 -3.609375 4.28125 -4.394531 C 4.378906 -4.519531 4.519531 -4.605469 4.714844 -4.785156 C 4.785156 -4.421875 4.828125 -4.183594 4.855469 -3.933594 C 4.953125 -3.273438 4.996094 -2.589844 5.164062 -1.929688 C 5.304688 -1.371094 5.78125 -1.089844 6.269531 -1.105469 C 6.71875 -1.132812 7.152344 -1.46875 7.234375 -2.027344 C 7.460938 -3.457031 7.332031 -4.84375 6.453125 -6.046875 Z M 6.453125 -6.046875 "/></g></g></g><g fill="#000000" fill-opacity="1"><g transform="translate(60.028368, 101.119458)"><g><path d="M 3.171875 -10.203125 L 3.28125 -10.0625 C 3.050781 -9.15625 2.648438 -8.0625 2.078125 -6.78125 L 1.140625 -6.78125 C 1.453125 -8.164062 1.675781 -9.304688 1.8125 -10.203125 Z M 3.09375 -8.703125 Z M 3.0625 -12.546875 Z M 3.0625 -12.546875 "/></g></g></g><g fill="#000000" fill-opacity="1"><g transform="translate(64.387262, 101.119458)"><g><path d="M 5.835938 -2.421875 C 5.667969 -2.855469 5.304688 -2.996094 4.871094 -2.953125 C 4.644531 -2.9375 4.421875 -2.882812 4.210938 -2.855469 C 3.863281 -2.8125 3.582031 -2.953125 3.527344 -3.304688 C 3.429688 -3.863281 3.386719 -4.421875 3.316406 -4.996094 C 3.820312 -4.996094 4.210938 -4.96875 4.589844 -4.996094 C 5.109375 -5.039062 5.5 -5.429688 5.542969 -5.90625 C 5.585938 -6.382812 5.261719 -6.828125 4.746094 -6.957031 C 4.421875 -7.039062 4.085938 -7.066406 3.765625 -7.066406 C 3.472656 -7.082031 3.371094 -7.195312 3.371094 -7.488281 C 3.371094 -7.878906 3.359375 -8.285156 3.304688 -8.675781 C 3.234375 -9.25 2.96875 -9.53125 2.589844 -9.542969 C 2.195312 -9.542969 1.945312 -9.265625 1.832031 -8.691406 C 1.777344 -8.367188 1.707031 -8.03125 1.695312 -7.710938 C 1.664062 -7.332031 1.496094 -7.179688 1.160156 -7.039062 C 0.894531 -6.925781 0.628906 -6.621094 0.546875 -6.355469 C 0.417969 -5.976562 0.699219 -5.683594 1.050781 -5.542969 C 1.328125 -5.429688 1.386719 -5.261719 1.386719 -4.996094 C 1.386719 -4.421875 1.414062 -3.847656 1.46875 -3.273438 C 1.554688 -2.464844 1.929688 -1.804688 2.589844 -1.300781 C 3.402344 -0.6875 4.828125 -0.699219 5.527344 -1.359375 C 5.835938 -1.652344 6.003906 -2 5.835938 -2.421875 Z M 5.835938 -2.421875 "/></g></g></g><g fill="#000000" fill-opacity="1"><g transform="translate(70.823671, 101.119458)"><g/></g></g><g fill="#000000" fill-opacity="1"><g transform="translate(74.839425, 101.119458)"><g><path d="M 7.195312 -2.800781 C 6.984375 -3.765625 6.828125 -4.757812 6.621094 -5.738281 C 6.550781 -6.046875 6.464844 -6.453125 6.242188 -6.632812 C 5.570312 -7.152344 4.828125 -7.597656 3.890625 -7.445312 C 2.253906 -7.152344 0.65625 -5.359375 0.519531 -3.609375 C 0.390625 -2 1.679688 -0.882812 3.273438 -1.257812 C 3.695312 -1.371094 4.085938 -1.609375 4.476562 -1.804688 C 4.617188 -1.875 4.730469 -1.988281 4.871094 -2.085938 C 4.941406 -1.988281 4.996094 -1.929688 5.039062 -1.863281 C 5.5 -1.160156 6.101562 -0.894531 6.660156 -1.132812 C 7.207031 -1.371094 7.375 -1.960938 7.195312 -2.800781 Z M 3.136719 -3.289062 C 2.980469 -3.234375 2.757812 -3.21875 2.617188 -3.289062 C 2.53125 -3.332031 2.53125 -3.625 2.589844 -3.765625 C 2.898438 -4.632812 3.386719 -5.332031 4.324219 -5.722656 C 4.492188 -4.644531 3.988281 -3.625 3.136719 -3.289062 Z M 3.136719 -3.289062 "/></g></g></g><g fill="#000000" fill-opacity="1"><g transform="translate(82.63308, 101.119458)"><g><path d="M 4.140625 -2.644531 C 3.863281 -2.644531 3.597656 -2.617188 3.332031 -2.660156 C 2.828125 -2.730469 2.519531 -3.066406 2.53125 -3.570312 C 2.546875 -4.476562 2.839844 -5.289062 3.582031 -5.878906 C 4.113281 -6.285156 4.367188 -6.101562 4.746094 -5.554688 C 4.84375 -5.417969 5.050781 -5.277344 5.277344 -5.386719 C 5.402344 -5.457031 5.542969 -5.375 5.695312 -5.738281 C 5.960938 -6.339844 5.554688 -7.09375 4.96875 -7.460938 C 4.351562 -7.851562 3.707031 -7.824219 3.050781 -7.542969 C 1.496094 -6.859375 0.460938 -5.179688 0.519531 -3.386719 C 0.546875 -2.085938 1.398438 -1.035156 2.671875 -0.753906 C 4.015625 -0.460938 5.148438 -0.964844 6.171875 -1.761719 C 6.324219 -1.890625 6.421875 -2.226562 6.367188 -2.421875 C 6.324219 -2.574219 6.003906 -2.714844 5.808594 -2.714844 C 5.25 -2.730469 4.6875 -2.671875 4.140625 -2.632812 C 4.140625 -2.644531 4.140625 -2.644531 4.140625 -2.644531 Z M 4.140625 -2.644531 "/></g></g></g><g fill="#000000" fill-opacity="1"><g transform="translate(89.559216, 101.119458)"><g><path d="M 4.140625 -2.644531 C 3.863281 -2.644531 3.597656 -2.617188 3.332031 -2.660156 C 2.828125 -2.730469 2.519531 -3.066406 2.53125 -3.570312 C 2.546875 -4.476562 2.839844 -5.289062 3.582031 -5.878906 C 4.113281 -6.285156 4.367188 -6.101562 4.746094 -5.554688 C 4.84375 -5.417969 5.050781 -5.277344 5.277344 -5.386719 C 5.402344 -5.457031 5.542969 -5.375 5.695312 -5.738281 C 5.960938 -6.339844 5.554688 -7.09375 4.96875 -7.460938 C 4.351562 -7.851562 3.707031 -7.824219 3.050781 -7.542969 C 1.496094 -6.859375 0.460938 -5.179688 0.519531 -3.386719 C 0.546875 -2.085938 1.398438 -1.035156 2.671875 -0.753906 C 4.015625 -0.460938 5.148438 -0.964844 6.171875 -1.761719 C 6.324219 -1.890625 6.421875 -2.226562 6.367188 -2.421875 C 6.324219 -2.574219 6.003906 -2.714844 5.808594 -2.714844 C 5.25 -2.730469 4.6875 -2.671875 4.140625 -2.632812 C 4.140625 -2.644531 4.140625 -2.644531 4.140625 -2.644531 Z M 4.140625 -2.644531 "/></g></g></g><g fill="#000000" fill-opacity="1"><g transform="translate(96.485351, 101.119458)"><g><path d="M 6.03125 -6.773438 C 5.484375 -7.332031 4.8125 -7.695312 4.042969 -7.835938 C 2.925781 -8.046875 1.902344 -7.597656 1.273438 -6.660156 C 0.796875 -5.933594 0.601562 -5.121094 0.53125 -4.269531 C 0.351562 -2.226562 1.761719 -0.519531 4.339844 -0.785156 C 4.703125 -0.8125 5.136719 -1.0625 5.402344 -1.328125 C 5.890625 -1.847656 5.722656 -2.464844 5.050781 -2.671875 C 4.589844 -2.828125 4.085938 -2.839844 3.609375 -2.925781 C 3.359375 -2.980469 3.121094 -3.066406 2.867188 -3.148438 C 3.738281 -3.304688 4.578125 -3.359375 5.332031 -3.625 C 6.773438 -4.128906 7.09375 -5.667969 6.03125 -6.773438 Z M 4.785156 -5.429688 C 4.15625 -5.359375 3.511719 -5.289062 2.8125 -5.21875 C 2.925781 -5.640625 3.105469 -5.960938 3.527344 -6.085938 C 4.003906 -6.226562 4.589844 -5.988281 4.953125 -5.5 C 4.871094 -5.457031 4.828125 -5.429688 4.785156 -5.429688 Z M 4.785156 -5.429688 "/></g></g></g><g fill="#000000" fill-opacity="1"><g transform="translate(103.677333, 101.119458)"><g><path d="M 5.332031 -4.042969 C 4.800781 -4.535156 4.085938 -4.84375 3.441406 -5.234375 C 3.261719 -5.347656 3.066406 -5.417969 2.828125 -5.542969 C 3.332031 -6.128906 3.820312 -6.214844 4.492188 -5.851562 C 4.800781 -5.695312 5.136719 -5.554688 5.375 -5.835938 C 5.554688 -6.046875 5.667969 -6.410156 5.640625 -6.675781 C 5.554688 -7.375 5.09375 -7.808594 4.4375 -8.019531 C 3.105469 -8.4375 1.425781 -7.738281 0.785156 -6.507812 C 0.351562 -5.667969 0.417969 -4.773438 1.132812 -4.15625 C 1.59375 -3.765625 2.183594 -3.539062 2.730469 -3.273438 C 3.050781 -3.105469 3.402344 -3.023438 3.738281 -2.898438 C 3.722656 -2.839844 3.707031 -2.785156 3.695312 -2.714844 C 3.246094 -2.757812 2.8125 -2.800781 2.378906 -2.855469 C 1.734375 -2.925781 1.230469 -2.714844 1.035156 -2.265625 C 0.824219 -1.792969 0.953125 -1.160156 1.46875 -0.839844 C 1.917969 -0.558594 2.449219 -0.335938 2.953125 -0.292969 C 3.511719 -0.265625 4.101562 -0.40625 4.632812 -0.601562 C 6.269531 -1.21875 6.621094 -2.855469 5.332031 -4.042969 Z M 5.332031 -4.042969 "/></g></g></g><g fill="#000000" fill-opacity="1"><g transform="translate(110.323626, 101.119458)"><g><path d="M 5.332031 -4.042969 C 4.800781 -4.535156 4.085938 -4.84375 3.441406 -5.234375 C 3.261719 -5.347656 3.066406 -5.417969 2.828125 -5.542969 C 3.332031 -6.128906 3.820312 -6.214844 4.492188 -5.851562 C 4.800781 -5.695312 5.136719 -5.554688 5.375 -5.835938 C 5.554688 -6.046875 5.667969 -6.410156 5.640625 -6.675781 C 5.554688 -7.375 5.09375 -7.808594 4.4375 -8.019531 C 3.105469 -8.4375 1.425781 -7.738281 0.785156 -6.507812 C 0.351562 -5.667969 0.417969 -4.773438 1.132812 -4.15625 C 1.59375 -3.765625 2.183594 -3.539062 2.730469 -3.273438 C 3.050781 -3.105469 3.402344 -3.023438 3.738281 -2.898438 C 3.722656 -2.839844 3.707031 -2.785156 3.695312 -2.714844 C 3.246094 -2.757812 2.8125 -2.800781 2.378906 -2.855469 C 1.734375 -2.925781 1.230469 -2.714844 1.035156 -2.265625 C 0.824219 -1.792969 0.953125 -1.160156 1.46875 -0.839844 C 1.917969 -0.558594 2.449219 -0.335938 2.953125 -0.292969 C 3.511719 -0.265625 4.101562 -0.40625 4.632812 -0.601562 C 6.269531 -1.21875 6.621094 -2.855469 5.332031 -4.042969 Z M 5.332031 -4.042969 "/></g></g></g><g fill="#000000" fill-opacity="1"><g transform="translate(50.015623, 120.619457)"><g><path d="M 2.519531 -8.929688 C 2.492188 -9.292969 2.464844 -9.683594 2.296875 -9.992188 C 2.183594 -10.214844 1.863281 -10.46875 1.625 -10.46875 C 1.386719 -10.46875 1.105469 -10.214844 0.921875 -10.007812 C 0.796875 -9.839844 0.753906 -9.574219 0.726562 -9.335938 C 0.601562 -7.949219 0.488281 -3.527344 0.519531 -2.714844 C 0.519531 -2.363281 0.574219 -2.015625 0.65625 -1.679688 C 0.8125 -1.148438 1.191406 -0.839844 1.625 -0.824219 C 2.058594 -0.8125 2.492188 -1.089844 2.632812 -1.625 C 2.769531 -2.226562 2.882812 -2.839844 2.855469 -3.457031 C 2.785156 -5.277344 2.644531 -7.109375 2.519531 -8.929688 Z M 2.519531 -8.929688 "/></g></g></g><g fill="#000000" fill-opacity="1"><g transform="translate(53.401735, 120.619457)"><g><path d="M 4.925781 -6.5625 C 4.605469 -6.605469 4.28125 -6.660156 3.960938 -6.746094 C 3.386719 -6.914062 2.839844 -6.84375 2.335938 -6.535156 C 1.175781 -5.835938 0.433594 -4.828125 0.238281 -3.472656 C 0.0703125 -2.308594 0.585938 -1.398438 1.695312 -1.023438 C 2.253906 -0.824219 2.839844 -0.753906 3.414062 -0.628906 C 4.28125 -0.617188 4.996094 -0.894531 5.597656 -1.484375 C 6.324219 -2.183594 6.703125 -3.066406 6.84375 -4.058594 C 7.011719 -5.316406 6.199219 -6.382812 4.925781 -6.5625 Z M 4.519531 -3.875 C 4.253906 -3.105469 3.988281 -2.855469 3.441406 -2.882812 C 2.351562 -2.9375 2.183594 -3.246094 2.730469 -4.210938 C 2.769531 -4.28125 2.8125 -4.351562 2.855469 -4.421875 C 3.386719 -5.207031 3.5 -5.207031 4.269531 -4.675781 C 4.578125 -4.449219 4.644531 -4.226562 4.519531 -3.875 Z M 4.519531 -3.875 "/></g></g></g><g fill="#000000" fill-opacity="1"><g transform="translate(60.607713, 120.619457)"><g><path d="M 4.140625 -2.644531 C 3.863281 -2.644531 3.597656 -2.617188 3.332031 -2.660156 C 2.828125 -2.730469 2.519531 -3.066406 2.53125 -3.570312 C 2.546875 -4.476562 2.839844 -5.289062 3.582031 -5.878906 C 4.113281 -6.285156 4.367188 -6.101562 4.746094 -5.554688 C 4.84375 -5.417969 5.050781 -5.277344 5.277344 -5.386719 C 5.402344 -5.457031 5.542969 -5.375 5.695312 -5.738281 C 5.960938 -6.339844 5.554688 -7.09375 4.96875 -7.460938 C 4.351562 -7.851562 3.707031 -7.824219 3.050781 -7.542969 C 1.496094 -6.859375 0.460938 -5.179688 0.519531 -3.386719 C 0.546875 -2.085938 1.398438 -1.035156 2.671875 -0.753906 C 4.015625 -0.460938 5.148438 -0.964844 6.171875 -1.761719 C 6.324219 -1.890625 6.421875 -2.226562 6.367188 -2.421875 C 6.324219 -2.574219 6.003906 -2.714844 5.808594 -2.714844 C 5.25 -2.730469 4.6875 -2.671875 4.140625 -2.632812 C 4.140625 -2.644531 4.140625 -2.644531 4.140625 -2.644531 Z M 4.140625 -2.644531 "/></g></g></g><g fill="#000000" fill-opacity="1"><g transform="translate(67.533849, 120.619457)"><g><path d="M 7.195312 -2.800781 C 6.984375 -3.765625 6.828125 -4.757812 6.621094 -5.738281 C 6.550781 -6.046875 6.464844 -6.453125 6.242188 -6.632812 C 5.570312 -7.152344 4.828125 -7.597656 3.890625 -7.445312 C 2.253906 -7.152344 0.65625 -5.359375 0.519531 -3.609375 C 0.390625 -2 1.679688 -0.882812 3.273438 -1.257812 C 3.695312 -1.371094 4.085938 -1.609375 4.476562 -1.804688 C 4.617188 -1.875 4.730469 -1.988281 4.871094 -2.085938 C 4.941406 -1.988281 4.996094 -1.929688 5.039062 -1.863281 C 5.5 -1.160156 6.101562 -0.894531 6.660156 -1.132812 C 7.207031 -1.371094 7.375 -1.960938 7.195312 -2.800781 Z M 3.136719 -3.289062 C 2.980469 -3.234375 2.757812 -3.21875 2.617188 -3.289062 C 2.53125 -3.332031 2.53125 -3.625 2.589844 -3.765625 C 2.898438 -4.632812 3.386719 -5.332031 4.324219 -5.722656 C 4.492188 -4.644531 3.988281 -3.625 3.136719 -3.289062 Z M 3.136719 -3.289062 "/></g></g></g><g fill="#000000" fill-opacity="1"><g transform="translate(75.327504, 120.619457)"><g><path d="M 5.835938 -2.421875 C 5.667969 -2.855469 5.304688 -2.996094 4.871094 -2.953125 C 4.644531 -2.9375 4.421875 -2.882812 4.210938 -2.855469 C 3.863281 -2.8125 3.582031 -2.953125 3.527344 -3.304688 C 3.429688 -3.863281 3.386719 -4.421875 3.316406 -4.996094 C 3.820312 -4.996094 4.210938 -4.96875 4.589844 -4.996094 C 5.109375 -5.039062 5.5 -5.429688 5.542969 -5.90625 C 5.585938 -6.382812 5.261719 -6.828125 4.746094 -6.957031 C 4.421875 -7.039062 4.085938 -7.066406 3.765625 -7.066406 C 3.472656 -7.082031 3.371094 -7.195312 3.371094 -7.488281 C 3.371094 -7.878906 3.359375 -8.285156 3.304688 -8.675781 C 3.234375 -9.25 2.96875 -9.53125 2.589844 -9.542969 C 2.195312 -9.542969 1.945312 -9.265625 1.832031 -8.691406 C 1.777344 -8.367188 1.707031 -8.03125 1.695312 -7.710938 C 1.664062 -7.332031 1.496094 -7.179688 1.160156 -7.039062 C 0.894531 -6.925781 0.628906 -6.621094 0.546875 -6.355469 C 0.417969 -5.976562 0.699219 -5.683594 1.050781 -5.542969 C 1.328125 -5.429688 1.386719 -5.261719 1.386719 -4.996094 C 1.386719 -4.421875 1.414062 -3.847656 1.46875 -3.273438 C 1.554688 -2.464844 1.929688 -1.804688 2.589844 -1.300781 C 3.402344 -0.6875 4.828125 -0.699219 5.527344 -1.359375 C 5.835938 -1.652344 6.003906 -2 5.835938 -2.421875 Z M 5.835938 -2.421875 "/></g></g></g><g fill="#000000" fill-opacity="1"><g transform="translate(81.763912, 120.619457)"><g><path d="M 2.589844 -5.976562 C 2.574219 -6.367188 2.363281 -6.675781 1.945312 -6.730469 C 1.511719 -6.789062 1.191406 -6.535156 1.121094 -6.144531 C 0.882812 -4.785156 0.644531 -3.402344 0.519531 -2.027344 C 0.449219 -1.300781 0.894531 -0.839844 1.398438 -0.796875 C 1.917969 -0.753906 2.335938 -1.191406 2.476562 -1.929688 C 2.519531 -2.210938 2.546875 -2.503906 2.5625 -2.785156 C 2.574219 -3.203125 2.617188 -5.332031 2.589844 -5.976562 Z M 1.554688 -7.933594 C 2.015625 -7.921875 2.433594 -8.339844 2.449219 -8.859375 C 2.449219 -9.335938 2.085938 -9.710938 1.609375 -9.699219 C 1.132812 -9.699219 0.742188 -9.320312 0.742188 -8.832031 C 0.742188 -8.339844 1.089844 -7.949219 1.554688 -7.933594 Z M 1.554688 -7.933594 "/></g></g></g><g fill="#000000" fill-opacity="1"><g transform="translate(84.898163, 120.619457)"><g><path d="M 4.925781 -6.5625 C 4.605469 -6.605469 4.28125 -6.660156 3.960938 -6.746094 C 3.386719 -6.914062 2.839844 -6.84375 2.335938 -6.535156 C 1.175781 -5.835938 0.433594 -4.828125 0.238281 -3.472656 C 0.0703125 -2.308594 0.585938 -1.398438 1.695312 -1.023438 C 2.253906 -0.824219 2.839844 -0.753906 3.414062 -0.628906 C 4.28125 -0.617188 4.996094 -0.894531 5.597656 -1.484375 C 6.324219 -2.183594 6.703125 -3.066406 6.84375 -4.058594 C 7.011719 -5.316406 6.199219 -6.382812 4.925781 -6.5625 Z M 4.519531 -3.875 C 4.253906 -3.105469 3.988281 -2.855469 3.441406 -2.882812 C 2.351562 -2.9375 2.183594 -3.246094 2.730469 -4.210938 C 2.769531 -4.28125 2.8125 -4.351562 2.855469 -4.421875 C 3.386719 -5.207031 3.5 -5.207031 4.269531 -4.675781 C 4.578125 -4.449219 4.644531 -4.226562 4.519531 -3.875 Z M 4.519531 -3.875 "/></g></g></g><g fill="#000000" fill-opacity="1"><g transform="translate(92.104141, 120.619457)"><g><path d="M 6.453125 -6.046875 C 5.667969 -7.09375 4.449219 -7.261719 3.386719 -6.507812 C 3.078125 -6.285156 2.800781 -6.019531 2.476562 -5.738281 C 2.421875 -5.851562 2.394531 -5.917969 2.363281 -6.003906 C 2.238281 -6.4375 2.042969 -6.84375 1.511719 -6.828125 C 0.953125 -6.800781 0.785156 -6.339844 0.742188 -5.890625 C 0.644531 -4.605469 0.546875 -3.316406 0.519531 -2.027344 C 0.488281 -1.316406 0.964844 -0.824219 1.582031 -0.753906 C 2.195312 -0.6875 2.730469 -1.078125 2.898438 -1.792969 C 3.121094 -2.785156 3.667969 -3.609375 4.28125 -4.394531 C 4.378906 -4.519531 4.519531 -4.605469 4.714844 -4.785156 C 4.785156 -4.421875 4.828125 -4.183594 4.855469 -3.933594 C 4.953125 -3.273438 4.996094 -2.589844 5.164062 -1.929688 C 5.304688 -1.371094 5.78125 -1.089844 6.269531 -1.105469 C 6.71875 -1.132812 7.152344 -1.46875 7.234375 -2.027344 C 7.460938 -3.457031 7.332031 -4.84375 6.453125 -6.046875 Z M 6.453125 -6.046875 "/></g></g></g></svg>